Dakdam-R_orig.ufo
<glyph name="uni1783" format="2">
  <advance width="1968"/>
  <unicode hex="1783"/>
  <anchor x="1723" y="0" name="L"/>
  <anchor x="1723" y="1440" name="U"/>
  <anchor x="1329" y="0" name="lm"/>
  <anchor x="1329" y="1440" name="um"/>
  <outline>
    <contour>
      <point x="335" y="945" type="curve"/>
      <point x="335" y="187" type="line" smooth="yes"/>
      <point x="335" y="87"/>
      <point x="533" y="0"/>
      <point x="729" y="0" type="curve" smooth="yes"/>
      <point x="839" y="0"/>
      <point x="949" y="26"/>
      <point x="1028" y="68" type="curve"/>
      <point x="1103" y="26"/>
      <point x="1217" y="0"/>
      <point x="1329" y="0" type="curve" smooth="yes"/>
      <point x="1525" y="0"/>
      <point x="1723" y="87"/>
      <point x="1723" y="187" type="curve" smooth="yes"/>
      <point x="1723" y="950" type="line" smooth="yes"/>
      <point x="1723" y="1015"/>
      <point x="1584" y="1114"/>
      <point x="1464" y="1154" type="curve" smooth="yes"/>
      <point x="1462" y="1155"/>
      <point x="1461" y="1156"/>
      <point x="1461" y="1158" type="curve"/>
      <point x="1461" y="1160" type="line"/>
      <point x="1466" y="1183"/>
      <point x="1481" y="1215"/>
      <point x="1499" y="1227" type="curve" smooth="yes"/>
      <point x="1507" y="1233"/>
      <point x="1517" y="1236"/>
      <point x="1527" y="1236" type="curve" smooth="yes"/>
      <point x="1596" y="1236"/>
      <point x="1629" y="1165"/>
      <point x="1714" y="1165" type="curve" smooth="yes"/>
      <point x="1805" y="1165"/>
      <point x="1824" y="1260"/>
      <point x="1855" y="1346" type="curve"/>
      <point x="1832" y="1336"/>
      <point x="1808" y="1334"/>
      <point x="1785" y="1334" type="curve" smooth="yes"/>
      <point x="1730" y="1334"/>
      <point x="1645" y="1440"/>
      <point x="1573" y="1440" type="curve" smooth="yes"/>
      <point x="1489" y="1440"/>
      <point x="1386" y="1185"/>
      <point x="1361" y="1081" type="curve"/>
      <point x="1361" y="1079" type="line"/>
      <point x="1361" y="1075"/>
      <point x="1363" y="1070"/>
      <point x="1368" y="1069" type="curve" smooth="yes"/>
      <point x="1473" y="1057"/>
      <point x="1535" y="983"/>
      <point x="1535" y="939" type="curve" smooth="yes"/>
      <point x="1535" y="194" type="line" smooth="yes"/>
      <point x="1535" y="139"/>
      <point x="1415" y="112"/>
      <point x="1329" y="112" type="curve" smooth="yes"/>
      <point x="1243" y="112"/>
      <point x="1123" y="139"/>
      <point x="1123" y="194" type="curve" smooth="yes"/>
      <point x="1123" y="950" type="line" smooth="yes"/>
      <point x="1123" y="1015"/>
      <point x="984" y="1114"/>
      <point x="864" y="1154" type="curve" smooth="yes"/>
      <point x="862" y="1155"/>
      <point x="861" y="1156"/>
      <point x="861" y="1158" type="curve"/>
      <point x="861" y="1160" type="line"/>
      <point x="866" y="1183"/>
      <point x="881" y="1215"/>
      <point x="899" y="1227" type="curve" smooth="yes"/>
      <point x="907" y="1233"/>
      <point x="917" y="1236"/>
      <point x="927" y="1236" type="curve" smooth="yes"/>
      <point x="996" y="1236"/>
      <point x="1029" y="1165"/>
      <point x="1114" y="1165" type="curve" smooth="yes"/>
      <point x="1205" y="1165"/>
      <point x="1224" y="1260"/>
      <point x="1255" y="1346" type="curve"/>
      <point x="1232" y="1336"/>
      <point x="1208" y="1334"/>
      <point x="1185" y="1334" type="curve" smooth="yes"/>
      <point x="1130" y="1334"/>
      <point x="1045" y="1440"/>
      <point x="973" y="1440" type="curve" smooth="yes"/>
      <point x="889" y="1440"/>
      <point x="786" y="1185"/>
      <point x="761" y="1081" type="curve"/>
      <point x="761" y="1079" type="line"/>
      <point x="761" y="1075"/>
      <point x="763" y="1070"/>
      <point x="768" y="1069" type="curve" smooth="yes"/>
      <point x="873" y="1057"/>
      <point x="935" y="983"/>
      <point x="935" y="939" type="curve" smooth="yes"/>
      <point x="935" y="194" type="line" smooth="yes"/>
      <point x="935" y="139"/>
      <point x="815" y="112"/>
      <point x="729" y="112" type="curve" smooth="yes"/>
      <point x="643" y="112"/>
      <point x="523" y="139"/>
      <point x="523" y="194" type="curve" smooth="yes"/>
      <point x="523" y="1362" type="line"/>
      <point x="498" y="1425"/>
      <point x="417" y="1440"/>
      <point x="352" y="1440" type="curve"/>
      <point x="186" y="1409"/>
      <point x="108" y="1269"/>
      <point x="108" y="1170" type="curve" smooth="yes"/>
      <point x="108" y="1056"/>
      <point x="205" y="958"/>
    </contour>
    <contour>
      <point x="230" y="1170" type="curve" smooth="yes"/>
      <point x="230" y="1241"/>
      <point x="284" y="1281"/>
      <point x="335" y="1303" type="curve"/>
      <point x="335" y="1032" type="line"/>
      <point x="269" y="1051"/>
      <point x="230" y="1117"/>
    </contour>
  </outline>
</glyph>
<glyph name="uni1788" format="2">
  <advance width="2528"/>
  <unicode hex="1788"/>
  <anchor x="2283" y="0" name="L"/>
  <anchor x="2283" y="1440" name="U"/>
  <anchor x="1889" y="0" name="lm"/>
  <anchor x="1889" y="1440" name="um"/>
  <outline>
    <contour>
      <point x="2283" y="187" type="curve"/>
      <point x="2283" y="950" type="line" smooth="yes"/>
      <point x="2283" y="1015"/>
      <point x="2144" y="1114"/>
      <point x="2024" y="1154" type="curve" smooth="yes"/>
      <point x="2022" y="1155"/>
      <point x="2021" y="1156"/>
      <point x="2021" y="1158" type="curve"/>
      <point x="2021" y="1160" type="line"/>
      <point x="2026" y="1183"/>
      <point x="2041" y="1215"/>
      <point x="2059" y="1227" type="curve" smooth="yes"/>
      <point x="2067" y="1233"/>
      <point x="2077" y="1236"/>
      <point x="2087" y="1236" type="curve" smooth="yes"/>
      <point x="2156" y="1236"/>
      <point x="2189" y="1165"/>
      <point x="2274" y="1165" type="curve" smooth="yes"/>
      <point x="2365" y="1165"/>
      <point x="2384" y="1260"/>
      <point x="2415" y="1346" type="curve"/>
      <point x="2392" y="1336"/>
      <point x="2368" y="1334"/>
      <point x="2345" y="1334" type="curve" smooth="yes"/>
      <point x="2290" y="1334"/>
      <point x="2205" y="1440"/>
      <point x="2133" y="1440" type="curve" smooth="yes"/>
      <point x="2049" y="1440"/>
      <point x="1946" y="1185"/>
      <point x="1921" y="1081" type="curve"/>
      <point x="1921" y="1079" type="line"/>
      <point x="1921" y="1075"/>
      <point x="1923" y="1070"/>
      <point x="1928" y="1069" type="curve" smooth="yes"/>
      <point x="2033" y="1057"/>
      <point x="2095" y="983"/>
      <point x="2095" y="939" type="curve" smooth="yes"/>
      <point x="2095" y="194" type="line" smooth="yes"/>
      <point x="2095" y="139"/>
      <point x="1975" y="112"/>
      <point x="1889" y="112" type="curve" smooth="yes"/>
      <point x="1803" y="112"/>
      <point x="1683" y="139"/>
      <point x="1683" y="194" type="curve" smooth="yes"/>
      <point x="1683" y="950" type="line" smooth="yes"/>
      <point x="1683" y="1015"/>
      <point x="1544" y="1114"/>
      <point x="1424" y="1154" type="curve" smooth="yes"/>
      <point x="1422" y="1155"/>
      <point x="1421" y="1156"/>
      <point x="1421" y="1158" type="curve"/>
      <point x="1421" y="1160" type="line"/>
      <point x="1426" y="1183"/>
      <point x="1441" y="1215"/>
      <point x="1459" y="1227" type="curve" smooth="yes"/>
      <point x="1467" y="1233"/>
      <point x="1477" y="1236"/>
      <point x="1487" y="1236" type="curve" smooth="yes"/>
      <point x="1556" y="1236"/>
      <point x="1589" y="1165"/>
      <point x="1674" y="1165" type="curve" smooth="yes"/>
      <point x="1765" y="1165"/>
      <point x="1784" y="1260"/>
      <point x="1815" y="1346" type="curve"/>
      <point x="1792" y="1336"/>
      <point x="1768" y="1334"/>
      <point x="1745" y="1334" type="curve" smooth="yes"/>
      <point x="1690" y="1334"/>
      <point x="1605" y="1440"/>
      <point x="1533" y="1440" type="curve" smooth="yes"/>
      <point x="1449" y="1440"/>
      <point x="1346" y="1185"/>
      <point x="1321" y="1081" type="curve"/>
      <point x="1321" y="1079" type="line"/>
      <point x="1321" y="1075"/>
      <point x="1323" y="1070"/>
      <point x="1328" y="1069" type="curve" smooth="yes"/>
      <point x="1433" y="1057"/>
      <point x="1495" y="983"/>
      <point x="1495" y="939" type="curve" smooth="yes"/>
      <point x="1495" y="194" type="line" smooth="yes"/>
      <point x="1495" y="139"/>
      <point x="1375" y="112"/>
      <point x="1289" y="112" type="curve" smooth="yes"/>
      <point x="1203" y="112"/>
      <point x="1083" y="139"/>
      <point x="1083" y="194" type="curve" smooth="yes"/>
      <point x="1083" y="1253" type="line" smooth="yes"/>
      <point x="1083" y="1353"/>
      <point x="885" y="1440"/>
      <point x="689" y="1440" type="curve" smooth="yes"/>
      <point x="493" y="1440"/>
      <point x="295" y="1353"/>
      <point x="295" y="1253" type="curve" smooth="yes"/>
      <point x="295" y="78" type="line"/>
      <point x="320" y="15"/>
      <point x="401" y="0"/>
      <point x="466" y="0" type="curve"/>
      <point x="632" y="31"/>
      <point x="710" y="171"/>
      <point x="710" y="270" type="curve" smooth="yes"/>
      <point x="710" y="384"/>
      <point x="613" y="482"/>
      <point x="483" y="495" type="curve"/>
      <point x="483" y="1246" type="line" smooth="yes"/>
      <point x="483" y="1301"/>
      <point x="603" y="1328"/>
      <point x="689" y="1328" type="curve" smooth="yes"/>
      <point x="775" y="1328"/>
      <point x="895" y="1301"/>
      <point x="895" y="1246" type="curve" smooth="yes"/>
      <point x="895" y="187" type="line" smooth="yes"/>
      <point x="895" y="87"/>
      <point x="1093" y="0"/>
      <point x="1289" y="0" type="curve" smooth="yes"/>
      <point x="1398" y="0"/>
      <point x="1510" y="26"/>
      <point x="1589" y="68" type="curve"/>
      <point x="1664" y="26"/>
      <point x="1778" y="0"/>
      <point x="1889" y="0" type="curve" smooth="yes"/>
      <point x="2085" y="0"/>
      <point x="2283" y="87"/>
    </contour>
    <contour>
      <point x="588" y="270" type="curve" smooth="yes"/>
      <point x="588" y="199"/>
      <point x="534" y="159"/>
      <point x="483" y="137" type="curve"/>
      <point x="483" y="408" type="line"/>
      <point x="549" y="389"/>
      <point x="588" y="323"/>
    </contour>
  </outline>
</glyph>
<glyph name="uni1790" format="2">
  <advance width="1476"/>
  <unicode hex="1790"/>
  <anchor x="1231" y="0" name="L"/>
  <anchor x="1231" y="1743" name="U"/>
  <anchor x="763" y="0" name="lm"/>
  <anchor x="763" y="1743" name="um"/>
  <outline>
    <contour>
      <point x="1231" y="187" type="curve"/>
      <point x="1231" y="822" type="line"/>
      <point x="1206" y="885"/>
      <point x="1125" y="900"/>
      <point x="1060" y="900" type="curve"/>
      <point x="894" y="869"/>
      <point x="816" y="729"/>
      <point x="816" y="640" type="curve" smooth="yes"/>
      <point x="816" y="526"/>
      <point x="913" y="458"/>
      <point x="1043" y="445" type="curve"/>
      <point x="1043" y="207" type="line" smooth="yes"/>
      <point x="1043" y="143"/>
      <point x="841" y="112"/>
      <point x="763" y="112" type="curve" smooth="yes"/>
      <point x="685" y="112"/>
      <point x="483" y="143"/>
      <point x="483" y="207" type="curve" smooth="yes"/>
      <point x="483" y="1000" type="line"/>
      <point x="400" y="1016"/>
      <point x="300" y="1041"/>
      <point x="300" y="1104" type="curve" smooth="yes"/>
      <point x="300" y="1107" type="line" smooth="yes"/>
      <point x="300" y="1115"/>
      <point x="301" y="1136"/>
      <point x="311" y="1160" type="curve" smooth="yes"/>
      <point x="320" y="1182"/>
      <point x="351" y="1215"/>
      <point x="369" y="1227" type="curve" smooth="yes"/>
      <point x="377" y="1233"/>
      <point x="387" y="1236"/>
      <point x="397" y="1236" type="curve" smooth="yes"/>
      <point x="486" y="1236"/>
      <point x="789" y="1054"/>
      <point x="894" y="1054" type="curve" smooth="yes"/>
      <point x="1056" y="1054"/>
      <point x="1231" y="1186"/>
      <point x="1231" y="1374" type="curve" smooth="yes"/>
      <point x="1231" y="1468"/>
      <point x="1215" y="1519"/>
      <point x="1158" y="1602" type="curve" smooth="yes"/>
      <point x="1098" y="1689"/>
      <point x="1026" y="1743"/>
      <point x="930" y="1743" type="curve" smooth="yes"/>
      <point x="843" y="1743"/>
      <point x="813" y="1704"/>
      <point x="813" y="1658" type="curve" smooth="yes"/>
      <point x="813" y="1594"/>
      <point x="887" y="1550"/>
      <point x="951" y="1531" type="curve" smooth="yes"/>
      <point x="1092" y="1489"/>
      <point x="1111" y="1425"/>
      <point x="1111" y="1374" type="curve" smooth="yes"/>
      <point x="1111" y="1305"/>
      <point x="1040" y="1250"/>
      <point x="938" y="1250" type="curve" smooth="yes"/>
      <point x="859" y="1250"/>
      <point x="537" y="1440"/>
      <point x="443" y="1440" type="curve" smooth="yes"/>
      <point x="359" y="1440"/>
      <point x="166" y="1185"/>
      <point x="141" y="1081" type="curve" smooth="yes"/>
      <point x="140" y="1076"/>
      <point x="140" y="1055"/>
      <point x="140" y="1049" type="curve" smooth="yes"/>
      <point x="140" y="980"/>
      <point x="223" y="953"/>
      <point x="295" y="931" type="curve"/>
      <point x="295" y="187" type="line" smooth="yes"/>
      <point x="295" y="87"/>
      <point x="567" y="0"/>
      <point x="763" y="0" type="curve" smooth="yes"/>
      <point x="959" y="0"/>
      <point x="1231" y="87"/>
    </contour>
    <contour>
      <point x="938" y="640" type="curve" smooth="yes"/>
      <point x="938" y="701"/>
      <point x="992" y="741"/>
      <point x="1043" y="763" type="curve"/>
      <point x="1043" y="532" type="line"/>
      <point x="977" y="551"/>
      <point x="938" y="587"/>
    </contour>
  </outline>
</glyph>
<glyph name="uni1797" format="2">
  <advance width="1516"/>
  <unicode hex="1797"/>
  <anchor x="1271" y="0" name="L"/>
  <anchor x="1271" y="1440" name="U"/>
  <anchor x="803" y="0" name="lm"/>
  <anchor x="803" y="1440" name="um"/>
  <outline>
    <contour>
      <point x="803" y="1030" type="curve" smooth="yes"/>
      <point x="607" y="1030"/>
      <point x="335" y="945"/>
      <point x="335" y="845" type="curve" smooth="yes"/>
      <point x="335" y="495" type="line"/>
      <point x="205" y="482"/>
      <point x="108" y="384"/>
      <point x="108" y="270" type="curve" smooth="yes"/>
      <point x="108" y="171"/>
      <point x="186" y="31"/>
      <point x="352" y="0" type="curve"/>
      <point x="417" y="0"/>
      <point x="498" y="15"/>
      <point x="523" y="78" type="curve"/>
      <point x="523" y="827" type="line" smooth="yes"/>
      <point x="523" y="891"/>
      <point x="725" y="918"/>
      <point x="803" y="918" type="curve" smooth="yes"/>
      <point x="881" y="918"/>
      <point x="1083" y="891"/>
      <point x="1083" y="827" type="curve" smooth="yes"/>
      <point x="1083" y="0" type="line"/>
      <point x="1271" y="0" type="line"/>
      <point x="1271" y="845" type="line" smooth="yes"/>
      <point x="1271" y="945"/>
      <point x="999" y="1030"/>
    </contour>
    <contour>
      <point x="764" y="1114" type="curve" smooth="yes"/>
      <point x="801" y="1114"/>
      <point x="832" y="1148"/>
      <point x="851" y="1172" type="curve" smooth="yes"/>
      <point x="875" y="1201"/>
      <point x="904" y="1236"/>
      <point x="935" y="1236" type="curve" smooth="yes"/>
      <point x="1004" y="1236"/>
      <point x="1177" y="1114"/>
      <point x="1262" y="1114" type="curve" smooth="yes"/>
      <point x="1343" y="1114"/>
      <point x="1372" y="1219"/>
      <point x="1403" y="1305" type="curve"/>
      <point x="1380" y="1295"/>
      <point x="1356" y="1293"/>
      <point x="1333" y="1293" type="curve" smooth="yes"/>
      <point x="1268" y="1293"/>
      <point x="1063" y="1440"/>
      <point x="991" y="1440" type="curve" smooth="yes"/>
      <point x="967" y="1440"/>
      <point x="930" y="1419"/>
      <point x="896" y="1387" type="curve" smooth="yes"/>
      <point x="869" y="1361"/>
      <point x="839" y="1331"/>
      <point x="811" y="1298" type="curve"/>
      <point x="732" y="1323"/>
      <point x="547" y="1440"/>
      <point x="483" y="1440" type="curve" smooth="yes"/>
      <point x="399" y="1440"/>
      <point x="206" y="1185"/>
      <point x="181" y="1081" type="curve" smooth="yes"/>
      <point x="180" y="1076"/>
      <point x="180" y="1055"/>
      <point x="180" y="1049" type="curve" smooth="yes"/>
      <point x="180" y="978"/>
      <point x="268" y="952"/>
      <point x="341" y="930" type="curve"/>
      <point x="502" y="1004" type="line"/>
      <point x="419" y="1020"/>
      <point x="340" y="1047"/>
      <point x="340" y="1104" type="curve" smooth="yes"/>
      <point x="340" y="1107" type="line" smooth="yes"/>
      <point x="340" y="1115"/>
      <point x="341" y="1136"/>
      <point x="351" y="1160" type="curve" smooth="yes"/>
      <point x="360" y="1182"/>
      <point x="391" y="1215"/>
      <point x="409" y="1227" type="curve" smooth="yes"/>
      <point x="417" y="1233"/>
      <point x="427" y="1236"/>
      <point x="437" y="1236" type="curve" smooth="yes"/>
      <point x="506" y="1236"/>
      <point x="679" y="1114"/>
    </contour>
    <contour>
      <point x="230" y="270" type="curve" smooth="yes"/>
      <point x="230" y="323"/>
      <point x="269" y="389"/>
      <point x="335" y="408" type="curve"/>
      <point x="335" y="137" type="line"/>
      <point x="284" y="159"/>
      <point x="230" y="199"/>
    </contour>
  </outline>
</glyph>
<glyph name="uni1799" format="2">
  <advance width="2008"/>
  <unicode hex="1799"/>
  <anchor x="1763" y="0" name="L"/>
  <anchor x="1763" y="1440" name="U"/>
  <anchor x="1369" y="0" name="lm"/>
  <anchor x="1369" y="1440" name="um"/>
  <outline>
    <contour>
      <point x="1763" y="187" type="curve"/>
      <point x="1763" y="950" type="line" smooth="yes"/>
      <point x="1763" y="1015"/>
      <point x="1624" y="1114"/>
      <point x="1504" y="1154" type="curve" smooth="yes"/>
      <point x="1502" y="1155"/>
      <point x="1501" y="1156"/>
      <point x="1501" y="1158" type="curve"/>
      <point x="1501" y="1160" type="line"/>
      <point x="1506" y="1183"/>
      <point x="1521" y="1215"/>
      <point x="1539" y="1227" type="curve" smooth="yes"/>
      <point x="1547" y="1233"/>
      <point x="1557" y="1236"/>
      <point x="1567" y="1236" type="curve" smooth="yes"/>
      <point x="1636" y="1236"/>
      <point x="1669" y="1165"/>
      <point x="1754" y="1165" type="curve" smooth="yes"/>
      <point x="1845" y="1165"/>
      <point x="1864" y="1260"/>
      <point x="1895" y="1346" type="curve"/>
      <point x="1872" y="1336"/>
      <point x="1848" y="1334"/>
      <point x="1825" y="1334" type="curve" smooth="yes"/>
      <point x="1770" y="1334"/>
      <point x="1685" y="1440"/>
      <point x="1613" y="1440" type="curve" smooth="yes"/>
      <point x="1529" y="1440"/>
      <point x="1426" y="1185"/>
      <point x="1401" y="1081" type="curve"/>
      <point x="1401" y="1079" type="line"/>
      <point x="1401" y="1075"/>
      <point x="1403" y="1070"/>
      <point x="1408" y="1069" type="curve" smooth="yes"/>
      <point x="1513" y="1057"/>
      <point x="1575" y="983"/>
      <point x="1575" y="939" type="curve" smooth="yes"/>
      <point x="1575" y="194" type="line" smooth="yes"/>
      <point x="1575" y="139"/>
      <point x="1455" y="112"/>
      <point x="1369" y="112" type="curve" smooth="yes"/>
      <point x="1283" y="112"/>
      <point x="1163" y="139"/>
      <point x="1163" y="194" type="curve" smooth="yes"/>
      <point x="1163" y="950" type="line" smooth="yes"/>
      <point x="1163" y="1015"/>
      <point x="1024" y="1114"/>
      <point x="904" y="1154" type="curve" smooth="yes"/>
      <point x="902" y="1155"/>
      <point x="901" y="1156"/>
      <point x="901" y="1158" type="curve"/>
      <point x="901" y="1160" type="line"/>
      <point x="906" y="1183"/>
      <point x="921" y="1215"/>
      <point x="939" y="1227" type="curve" smooth="yes"/>
      <point x="947" y="1233"/>
      <point x="957" y="1236"/>
      <point x="967" y="1236" type="curve" smooth="yes"/>
      <point x="1036" y="1236"/>
      <point x="1069" y="1165"/>
      <point x="1154" y="1165" type="curve" smooth="yes"/>
      <point x="1245" y="1165"/>
      <point x="1264" y="1260"/>
      <point x="1295" y="1346" type="curve"/>
      <point x="1272" y="1336"/>
      <point x="1248" y="1334"/>
      <point x="1225" y="1334" type="curve" smooth="yes"/>
      <point x="1170" y="1334"/>
      <point x="1085" y="1440"/>
      <point x="1013" y="1440" type="curve" smooth="yes"/>
      <point x="929" y="1440"/>
      <point x="826" y="1185"/>
      <point x="801" y="1081" type="curve"/>
      <point x="801" y="1079" type="line"/>
      <point x="801" y="1075"/>
      <point x="803" y="1070"/>
      <point x="808" y="1069" type="curve" smooth="yes"/>
      <point x="913" y="1057"/>
      <point x="975" y="983"/>
      <point x="975" y="939" type="curve" smooth="yes"/>
      <point x="975" y="194" type="line" smooth="yes"/>
      <point x="975" y="139"/>
      <point x="815" y="112"/>
      <point x="729" y="112" type="curve" smooth="yes"/>
      <point x="643" y="112"/>
      <point x="483" y="139"/>
      <point x="483" y="194" type="curve" smooth="yes"/>
      <point x="483" y="945" type="line"/>
      <point x="613" y="958"/>
      <point x="710" y="1056"/>
      <point x="710" y="1170" type="curve" smooth="yes"/>
      <point x="710" y="1269"/>
      <point x="632" y="1409"/>
      <point x="466" y="1440" type="curve"/>
      <point x="401" y="1440"/>
      <point x="320" y="1425"/>
      <point x="295" y="1362" type="curve"/>
      <point x="295" y="187" type="line" smooth="yes"/>
      <point x="295" y="87"/>
      <point x="533" y="0"/>
      <point x="729" y="0" type="curve" smooth="yes"/>
      <point x="842" y="0"/>
      <point x="975" y="26"/>
      <point x="1063" y="72" type="curve"/>
      <point x="1138" y="26"/>
      <point x="1252" y="0"/>
      <point x="1369" y="0" type="curve" smooth="yes"/>
      <point x="1565" y="0"/>
      <point x="1763" y="87"/>
    </contour>
    <contour>
      <point x="588" y="1170" type="curve" smooth="yes"/>
      <point x="588" y="1117"/>
      <point x="549" y="1051"/>
      <point x="483" y="1032" type="curve"/>
      <point x="483" y="1303" type="line"/>
      <point x="534" y="1281"/>
      <point x="588" y="1241"/>
    </contour>
  </outline>
</glyph>
<glyph name="uni179A" format="2">
  <advance width="768"/>
  <unicode hex="179A"/>
  <anchor x="523" y="1440" name="U"/>
  <anchor x="372" y="0" name="lm"/>
  <anchor x="399" y="1440" name="um"/>
  <outline>
    <contour>
      <point x="523" y="78" type="curve"/>
      <point x="523" y="950" type="line" smooth="yes"/>
      <point x="523" y="1015"/>
      <point x="384" y="1114"/>
      <point x="264" y="1154" type="curve" smooth="yes"/>
      <point x="262" y="1155"/>
      <point x="261" y="1156"/>
      <point x="261" y="1158" type="curve"/>
      <point x="261" y="1160" type="line"/>
      <point x="266" y="1183"/>
      <point x="281" y="1215"/>
      <point x="299" y="1227" type="curve" smooth="yes"/>
      <point x="307" y="1233"/>
      <point x="317" y="1236"/>
      <point x="327" y="1236" type="curve" smooth="yes"/>
      <point x="396" y="1236"/>
      <point x="429" y="1165"/>
      <point x="514" y="1165" type="curve" smooth="yes"/>
      <point x="605" y="1165"/>
      <point x="624" y="1260"/>
      <point x="655" y="1346" type="curve"/>
      <point x="632" y="1336"/>
      <point x="608" y="1334"/>
      <point x="585" y="1334" type="curve" smooth="yes"/>
      <point x="530" y="1334"/>
      <point x="445" y="1440"/>
      <point x="373" y="1440" type="curve" smooth="yes"/>
      <point x="289" y="1440"/>
      <point x="186" y="1185"/>
      <point x="161" y="1081" type="curve"/>
      <point x="161" y="1079" type="line"/>
      <point x="161" y="1075"/>
      <point x="163" y="1070"/>
      <point x="168" y="1069" type="curve" smooth="yes"/>
      <point x="273" y="1057"/>
      <point x="335" y="983"/>
      <point x="335" y="939" type="curve" smooth="yes"/>
      <point x="335" y="495" type="line"/>
      <point x="205" y="482"/>
      <point x="108" y="384"/>
      <point x="108" y="270" type="curve" smooth="yes"/>
      <point x="108" y="171"/>
      <point x="186" y="31"/>
      <point x="352" y="0" type="curve"/>
      <point x="417" y="0"/>
      <point x="498" y="15"/>
    </contour>
    <contour>
      <point x="230" y="270" type="curve" smooth="yes"/>
      <point x="230" y="323"/>
      <point x="269" y="389"/>
      <point x="335" y="408" type="curve"/>
      <point x="335" y="137" type="line"/>
      <point x="284" y="159"/>
      <point x="230" y="199"/>
    </contour>
  </outline>
</glyph>
<glyph name="uni179F" format="2">
  <advance width="1928"/>
  <unicode hex="179F"/>
  <anchor x="1683" y="0" name="L"/>
  <anchor x="1683" y="1440" name="U"/>
  <anchor x="989" y="0" name="lm"/>
  <anchor x="1289" y="1440" name="um"/>
  <outline>
    <contour>
      <point x="295" y="803" type="curve"/>
      <point x="295" y="78" type="line"/>
      <point x="320" y="15"/>
      <point x="401" y="0"/>
      <point x="466" y="0" type="curve"/>
      <point x="632" y="31"/>
      <point x="710" y="171"/>
      <point x="710" y="270" type="curve" smooth="yes"/>
      <point x="710" y="384"/>
      <point x="613" y="482"/>
      <point x="483" y="495" type="curve"/>
      <point x="483" y="796" type="line" smooth="yes"/>
      <point x="483" y="851"/>
      <point x="603" y="878"/>
      <point x="689" y="878" type="curve" smooth="yes"/>
      <point x="775" y="878"/>
      <point x="895" y="851"/>
      <point x="895" y="796" type="curve" smooth="yes"/>
      <point x="895" y="187" type="line" smooth="yes"/>
      <point x="895" y="87"/>
      <point x="1093" y="0"/>
      <point x="1289" y="0" type="curve" smooth="yes"/>
      <point x="1485" y="0"/>
      <point x="1683" y="87"/>
      <point x="1683" y="187" type="curve" smooth="yes"/>
      <point x="1683" y="950" type="line" smooth="yes"/>
      <point x="1683" y="1015"/>
      <point x="1544" y="1114"/>
      <point x="1424" y="1154" type="curve" smooth="yes"/>
      <point x="1422" y="1155"/>
      <point x="1421" y="1156"/>
      <point x="1421" y="1158" type="curve"/>
      <point x="1421" y="1160" type="line"/>
      <point x="1426" y="1183"/>
      <point x="1441" y="1215"/>
      <point x="1459" y="1227" type="curve" smooth="yes"/>
      <point x="1467" y="1233"/>
      <point x="1477" y="1236"/>
      <point x="1487" y="1236" type="curve" smooth="yes"/>
      <point x="1556" y="1236"/>
      <point x="1589" y="1165"/>
      <point x="1674" y="1165" type="curve" smooth="yes"/>
      <point x="1765" y="1165"/>
      <point x="1784" y="1260"/>
      <point x="1815" y="1346" type="curve"/>
      <point x="1792" y="1336"/>
      <point x="1768" y="1334"/>
      <point x="1745" y="1334" type="curve" smooth="yes"/>
      <point x="1690" y="1334"/>
      <point x="1605" y="1440"/>
      <point x="1533" y="1440" type="curve" smooth="yes"/>
      <point x="1449" y="1440"/>
      <point x="1346" y="1185"/>
      <point x="1321" y="1081" type="curve"/>
      <point x="1321" y="1079" type="line"/>
      <point x="1321" y="1075"/>
      <point x="1323" y="1070"/>
      <point x="1328" y="1069" type="curve" smooth="yes"/>
      <point x="1433" y="1057"/>
      <point x="1495" y="983"/>
      <point x="1495" y="939" type="curve" smooth="yes"/>
      <point x="1495" y="194" type="line" smooth="yes"/>
      <point x="1495" y="139"/>
      <point x="1375" y="112"/>
      <point x="1289" y="112" type="curve" smooth="yes"/>
      <point x="1203" y="112"/>
      <point x="1083" y="139"/>
      <point x="1083" y="194" type="curve" smooth="yes"/>
      <point x="1083" y="803" type="line" smooth="yes"/>
      <point x="1083" y="889"/>
      <point x="937" y="965"/>
      <point x="772" y="985" type="curve"/>
      <point x="737" y="1046"/>
      <point x="624" y="1120"/>
      <point x="524" y="1154" type="curve" smooth="yes"/>
      <point x="522" y="1155"/>
      <point x="521" y="1156"/>
      <point x="521" y="1158" type="curve"/>
      <point x="521" y="1160" type="line"/>
      <point x="526" y="1183"/>
      <point x="541" y="1215"/>
      <point x="559" y="1227" type="curve" smooth="yes"/>
      <point x="567" y="1233"/>
      <point x="577" y="1236"/>
      <point x="587" y="1236" type="curve" smooth="yes"/>
      <point x="656" y="1236"/>
      <point x="729" y="1165"/>
      <point x="814" y="1165" type="curve" smooth="yes"/>
      <point x="905" y="1165"/>
      <point x="924" y="1260"/>
      <point x="955" y="1346" type="curve"/>
      <point x="932" y="1336"/>
      <point x="908" y="1334"/>
      <point x="885" y="1334" type="curve" smooth="yes"/>
      <point x="830" y="1334"/>
      <point x="705" y="1440"/>
      <point x="633" y="1440" type="curve" smooth="yes"/>
      <point x="549" y="1440"/>
      <point x="446" y="1185"/>
      <point x="421" y="1081" type="curve"/>
      <point x="421" y="1079" type="line"/>
      <point x="421" y="1075"/>
      <point x="423" y="1070"/>
      <point x="428" y="1069" type="curve" smooth="yes"/>
      <point x="503" y="1060"/>
      <point x="556" y="1020"/>
      <point x="580" y="981" type="curve"/>
      <point x="426" y="957"/>
      <point x="295" y="884"/>
    </contour>
    <contour>
      <point x="588" y="270" type="curve" smooth="yes"/>
      <point x="588" y="199"/>
      <point x="534" y="159"/>
      <point x="483" y="137" type="curve"/>
      <point x="483" y="408" type="line"/>
      <point x="549" y="389"/>
      <point x="588" y="323"/>
    </contour>
  </outline>
  <guideline angle="90" x="1683" y="0"/>
  <guideline angle="90" x="295" y="0"/>
</glyph>
<glyph name="uni17A2" format="2">
  <advance width="1448"/>
  <unicode hex="17A2"/>
  <anchor x="1203" y="0" name="L"/>
  <anchor x="1203" y="1440" name="U"/>
  <anchor x="769" y="0" name="lm"/>
  <anchor x="769" y="1440" name="um"/>
  <outline>
    <contour>
      <point x="1015" y="939" type="curve"/>
      <point x="1015" y="740" type="line"/>
      <point x="523" y="740" type="line"/>
      <point x="523" y="950" type="line" smooth="yes"/>
      <point x="523" y="1015"/>
      <point x="384" y="1114"/>
      <point x="264" y="1154" type="curve" smooth="yes"/>
      <point x="262" y="1155"/>
      <point x="261" y="1156"/>
      <point x="261" y="1158" type="curve"/>
      <point x="261" y="1160" type="line"/>
      <point x="266" y="1183"/>
      <point x="281" y="1215"/>
      <point x="299" y="1227" type="curve" smooth="yes"/>
      <point x="307" y="1233"/>
      <point x="317" y="1236"/>
      <point x="327" y="1236" type="curve" smooth="yes"/>
      <point x="396" y="1236"/>
      <point x="429" y="1165"/>
      <point x="514" y="1165" type="curve" smooth="yes"/>
      <point x="605" y="1165"/>
      <point x="624" y="1260"/>
      <point x="655" y="1346" type="curve"/>
      <point x="632" y="1336"/>
      <point x="608" y="1334"/>
      <point x="585" y="1334" type="curve" smooth="yes"/>
      <point x="530" y="1334"/>
      <point x="445" y="1440"/>
      <point x="373" y="1440" type="curve" smooth="yes"/>
      <point x="289" y="1440"/>
      <point x="186" y="1185"/>
      <point x="161" y="1081" type="curve"/>
      <point x="161" y="1079" type="line"/>
      <point x="161" y="1075"/>
      <point x="163" y="1070"/>
      <point x="168" y="1069" type="curve" smooth="yes"/>
      <point x="273" y="1057"/>
      <point x="335" y="983"/>
      <point x="335" y="939" type="curve" smooth="yes"/>
      <point x="335" y="495" type="line"/>
      <point x="205" y="482"/>
      <point x="108" y="384"/>
      <point x="108" y="270" type="curve" smooth="yes"/>
      <point x="108" y="171"/>
      <point x="186" y="31"/>
      <point x="352" y="0" type="curve"/>
      <point x="417" y="0"/>
      <point x="498" y="15"/>
      <point x="523" y="78" type="curve"/>
      <point x="523" y="610" type="line"/>
      <point x="1015" y="610" type="line"/>
      <point x="1015" y="495" type="line"/>
      <point x="885" y="482"/>
      <point x="788" y="384"/>
      <point x="788" y="270" type="curve" smooth="yes"/>
      <point x="788" y="171"/>
      <point x="866" y="31"/>
      <point x="1032" y="0" type="curve"/>
      <point x="1097" y="0"/>
      <point x="1178" y="15"/>
      <point x="1203" y="78" type="curve"/>
      <point x="1203" y="950" type="line" smooth="yes"/>
      <point x="1203" y="1015"/>
      <point x="1064" y="1114"/>
      <point x="944" y="1154" type="curve" smooth="yes"/>
      <point x="942" y="1155"/>
      <point x="941" y="1156"/>
      <point x="941" y="1158" type="curve"/>
      <point x="941" y="1160" type="line"/>
      <point x="946" y="1183"/>
      <point x="961" y="1215"/>
      <point x="979" y="1227" type="curve" smooth="yes"/>
      <point x="987" y="1233"/>
      <point x="997" y="1236"/>
      <point x="1007" y="1236" type="curve" smooth="yes"/>
      <point x="1076" y="1236"/>
      <point x="1109" y="1165"/>
      <point x="1194" y="1165" type="curve" smooth="yes"/>
      <point x="1285" y="1165"/>
      <point x="1304" y="1260"/>
      <point x="1335" y="1346" type="curve"/>
      <point x="1312" y="1336"/>
      <point x="1288" y="1334"/>
      <point x="1265" y="1334" type="curve" smooth="yes"/>
      <point x="1210" y="1334"/>
      <point x="1125" y="1440"/>
      <point x="1053" y="1440" type="curve" smooth="yes"/>
      <point x="969" y="1440"/>
      <point x="866" y="1185"/>
      <point x="841" y="1081" type="curve"/>
      <point x="841" y="1079" type="line"/>
      <point x="841" y="1075"/>
      <point x="843" y="1070"/>
      <point x="848" y="1069" type="curve" smooth="yes"/>
      <point x="953" y="1057"/>
      <point x="1015" y="983"/>
    </contour>
    <contour>
      <point x="910" y="270" type="curve" smooth="yes"/>
      <point x="910" y="323"/>
      <point x="949" y="389"/>
      <point x="1015" y="408" type="curve"/>
      <point x="1015" y="137" type="line"/>
      <point x="964" y="159"/>
      <point x="910" y="199"/>
    </contour>
    <contour>
      <point x="230" y="270" type="curve" smooth="yes"/>
      <point x="230" y="323"/>
      <point x="269" y="389"/>
      <point x="335" y="408" type="curve"/>
      <point x="335" y="137" type="line"/>
      <point x="284" y="159"/>
      <point x="230" y="199"/>
    </contour>
  </outline>
</glyph>
<glyph name="uni17AA" format="2">
  <advance width="1358"/>
  <unicode hex="17AA"/>
  <anchor x="1192" y="-230" name="L"/>
  <anchor x="1192" y="2163" name="U"/>
  <anchor x="702" y="-205" name="lm"/>
  <anchor x="702" y="2163" name="um"/>
  <outline>
    <contour>
      <point x="425" y="322" type="curve"/>
      <point x="631" y="394"/>
      <point x="1192" y="676"/>
      <point x="1192" y="1024" type="curve" smooth="yes"/>
      <point x="1192" y="1295"/>
      <point x="983" y="1440"/>
      <point x="671" y="1440" type="curve" smooth="yes"/>
      <point x="475" y="1440"/>
      <point x="217" y="1332"/>
      <point x="217" y="1118" type="curve" smooth="yes"/>
      <point x="217" y="1016"/>
      <point x="253" y="949"/>
      <point x="332" y="888" type="curve"/>
      <point x="370" y="863"/>
      <point x="412" y="852"/>
      <point x="468" y="852" type="curve" smooth="yes"/>
      <point x="557" y="852"/>
      <point x="633" y="905"/>
      <point x="633" y="984" type="curve" smooth="yes"/>
      <point x="633" y="1039"/>
      <point x="580" y="1078"/>
      <point x="514" y="1078" type="curve" smooth="yes"/>
      <point x="472" y="1078"/>
      <point x="443" y="1067"/>
      <point x="416" y="1046" type="curve"/>
      <point x="409" y="1063"/>
      <point x="405" y="1088"/>
      <point x="405" y="1125" type="curve" smooth="yes"/>
      <point x="405" y="1231"/>
      <point x="517" y="1310"/>
      <point x="689" y="1310" type="curve" smooth="yes"/>
      <point x="869" y="1310"/>
      <point x="1004" y="1235"/>
      <point x="1004" y="1024" type="curve" smooth="yes"/>
      <point x="1004" y="720"/>
      <point x="370" y="467"/>
      <point x="217" y="425" type="curve"/>
      <point x="217" y="256"/>
      <point x="372" y="0"/>
      <point x="597" y="0" type="curve" smooth="yes"/>
      <point x="796" y="0"/>
      <point x="934" y="134"/>
      <point x="1004" y="209" type="curve"/>
      <point x="1004" y="-170" type="line" smooth="yes"/>
      <point x="1004" y="-197"/>
      <point x="1017" y="-230"/>
      <point x="1043" y="-230" type="curve" smooth="yes"/>
      <point x="1225" y="-230" type="line"/>
      <point x="1201" y="-227"/>
      <point x="1192" y="-196"/>
      <point x="1192" y="-170" type="curve" smooth="yes"/>
      <point x="1192" y="584" type="line"/>
      <point x="1004" y="584" type="line"/>
      <point x="1004" y="409" type="line"/>
      <point x="974" y="339"/>
      <point x="789" y="130"/>
      <point x="604" y="130" type="curve" smooth="yes"/>
      <point x="498" y="130"/>
      <point x="425" y="269"/>
    </contour>
    <contour>
      <point x="462" y="1424" type="line"/>
      <point x="379" y="1440"/>
      <point x="300" y="1467"/>
      <point x="300" y="1524" type="curve" smooth="yes"/>
      <point x="300" y="1527" type="line" smooth="yes"/>
      <point x="300" y="1535"/>
      <point x="301" y="1556"/>
      <point x="311" y="1580" type="curve" smooth="yes"/>
      <point x="320" y="1602"/>
      <point x="351" y="1635"/>
      <point x="369" y="1647" type="curve" smooth="yes"/>
      <point x="377" y="1653"/>
      <point x="387" y="1656"/>
      <point x="397" y="1656" type="curve" smooth="yes"/>
      <point x="486" y="1656"/>
      <point x="789" y="1474"/>
      <point x="894" y="1474" type="curve" smooth="yes"/>
      <point x="1056" y="1474"/>
      <point x="1231" y="1606"/>
      <point x="1231" y="1794" type="curve" smooth="yes"/>
      <point x="1231" y="1888"/>
      <point x="1215" y="1939"/>
      <point x="1158" y="2022" type="curve" smooth="yes"/>
      <point x="1098" y="2109"/>
      <point x="1026" y="2163"/>
      <point x="930" y="2163" type="curve" smooth="yes"/>
      <point x="843" y="2163"/>
      <point x="813" y="2124"/>
      <point x="813" y="2078" type="curve" smooth="yes"/>
      <point x="813" y="2014"/>
      <point x="887" y="1970"/>
      <point x="951" y="1951" type="curve" smooth="yes"/>
      <point x="1092" y="1909"/>
      <point x="1111" y="1845"/>
      <point x="1111" y="1794" type="curve" smooth="yes"/>
      <point x="1111" y="1725"/>
      <point x="1040" y="1670"/>
      <point x="938" y="1670" type="curve" smooth="yes"/>
      <point x="859" y="1670"/>
      <point x="537" y="1860"/>
      <point x="443" y="1860" type="curve" smooth="yes"/>
      <point x="359" y="1860"/>
      <point x="166" y="1605"/>
      <point x="141" y="1501" type="curve" smooth="yes"/>
      <point x="140" y="1496"/>
      <point x="140" y="1475"/>
      <point x="140" y="1469" type="curve" smooth="yes"/>
      <point x="140" y="1397"/>
      <point x="229" y="1372"/>
      <point x="301" y="1350" type="curve"/>
    </contour>
  </outline>
</glyph>
<glyph name="uni17AB" format="2">
  <advance width="1476"/>
  <unicode hex="17AB"/>
  <anchor x="1231" y="-598" name="L"/>
  <anchor x="1231" y="1440" name="U"/>
  <anchor x="763" y="-598" name="lm"/>
  <anchor x="763" y="1440" name="um"/>
  <outline>
    <contour>
      <point x="913" y="-262" type="curve" smooth="yes"/>
      <point x="913" y="-332"/>
      <point x="977" y="-371"/>
      <point x="1032" y="-375" type="curve"/>
      <point x="1032" y="-401" type="line" smooth="yes"/>
      <point x="1032" y="-461"/>
      <point x="977" y="-487"/>
      <point x="935" y="-487" type="curve" smooth="yes"/>
      <point x="863" y="-487"/>
      <point x="799" y="-418"/>
      <point x="729" y="-339" type="curve" smooth="yes"/>
      <point x="623" y="-218"/>
      <point x="564" y="-179"/>
      <point x="417" y="-179" type="curve" smooth="yes"/>
      <point x="229" y="-179"/>
      <point x="162" y="-364"/>
      <point x="162" y="-405" type="curve"/>
      <point x="240" y="-325"/>
      <point x="295" y="-288"/>
      <point x="374" y="-288" type="curve" smooth="yes"/>
      <point x="444" y="-288"/>
      <point x="557" y="-386"/>
      <point x="615" y="-458" type="curve"/>
      <point x="687" y="-537"/>
      <point x="776" y="-605"/>
      <point x="924" y="-605" type="curve" smooth="yes"/>
      <point x="1142" y="-605"/>
      <point x="1231" y="-484"/>
      <point x="1231" y="-303" type="curve" smooth="yes"/>
      <point x="1231" y="-203"/>
      <point x="1135" y="-150"/>
      <point x="1052" y="-150" type="curve" smooth="yes"/>
      <point x="978" y="-150"/>
      <point x="913" y="-199"/>
    </contour>
    <contour>
      <point x="763" y="112" type="curve" smooth="yes"/>
      <point x="685" y="112"/>
      <point x="483" y="143"/>
      <point x="483" y="207" type="curve" smooth="yes"/>
      <point x="483" y="950" type="line" smooth="yes"/>
      <point x="483" y="1015"/>
      <point x="344" y="1114"/>
      <point x="224" y="1154" type="curve" smooth="yes"/>
      <point x="222" y="1155"/>
      <point x="221" y="1156"/>
      <point x="221" y="1158" type="curve"/>
      <point x="221" y="1160" type="line"/>
      <point x="226" y="1183"/>
      <point x="241" y="1215"/>
      <point x="259" y="1227" type="curve" smooth="yes"/>
      <point x="267" y="1233"/>
      <point x="277" y="1236"/>
      <point x="287" y="1236" type="curve" smooth="yes"/>
      <point x="356" y="1236"/>
      <point x="389" y="1165"/>
      <point x="474" y="1165" type="curve" smooth="yes"/>
      <point x="565" y="1165"/>
      <point x="584" y="1260"/>
      <point x="615" y="1346" type="curve"/>
      <point x="592" y="1336"/>
      <point x="568" y="1334"/>
      <point x="545" y="1334" type="curve" smooth="yes"/>
      <point x="490" y="1334"/>
      <point x="405" y="1440"/>
      <point x="333" y="1440" type="curve" smooth="yes"/>
      <point x="249" y="1440"/>
      <point x="146" y="1185"/>
      <point x="121" y="1081" type="curve"/>
      <point x="121" y="1079" type="line"/>
      <point x="121" y="1075"/>
      <point x="123" y="1070"/>
      <point x="128" y="1069" type="curve" smooth="yes"/>
      <point x="233" y="1057"/>
      <point x="295" y="983"/>
      <point x="295" y="939" type="curve" smooth="yes"/>
      <point x="295" y="187" type="line" smooth="yes"/>
      <point x="295" y="87"/>
      <point x="567" y="0"/>
      <point x="763" y="0" type="curve" smooth="yes"/>
      <point x="959" y="0"/>
      <point x="1231" y="87"/>
      <point x="1231" y="187" type="curve" smooth="yes"/>
      <point x="1231" y="950" type="line" smooth="yes"/>
      <point x="1231" y="1015"/>
      <point x="1092" y="1114"/>
      <point x="972" y="1154" type="curve" smooth="yes"/>
      <point x="970" y="1155"/>
      <point x="969" y="1156"/>
      <point x="969" y="1158" type="curve"/>
      <point x="969" y="1160" type="line"/>
      <point x="974" y="1183"/>
      <point x="989" y="1215"/>
      <point x="1007" y="1227" type="curve" smooth="yes"/>
      <point x="1015" y="1233"/>
      <point x="1025" y="1236"/>
      <point x="1035" y="1236" type="curve" smooth="yes"/>
      <point x="1104" y="1236"/>
      <point x="1137" y="1165"/>
      <point x="1222" y="1165" type="curve" smooth="yes"/>
      <point x="1313" y="1165"/>
      <point x="1332" y="1260"/>
      <point x="1363" y="1346" type="curve"/>
      <point x="1340" y="1336"/>
      <point x="1316" y="1334"/>
      <point x="1293" y="1334" type="curve" smooth="yes"/>
      <point x="1238" y="1334"/>
      <point x="1153" y="1440"/>
      <point x="1081" y="1440" type="curve" smooth="yes"/>
      <point x="997" y="1440"/>
      <point x="894" y="1185"/>
      <point x="869" y="1081" type="curve"/>
      <point x="869" y="1079" type="line"/>
      <point x="869" y="1075"/>
      <point x="871" y="1070"/>
      <point x="876" y="1069" type="curve" smooth="yes"/>
      <point x="981" y="1057"/>
      <point x="1043" y="983"/>
      <point x="1043" y="939" type="curve" smooth="yes"/>
      <point x="1043" y="207" type="line" smooth="yes"/>
      <point x="1043" y="143"/>
      <point x="841" y="112"/>
    </contour>
  </outline>
</glyph>
<glyph name="uni17AF" format="2">
  <advance width="1516"/>
  <unicode hex="17AF"/>
  <anchor x="1271" y="0" name="L"/>
  <anchor x="1271" y="1743" name="U"/>
  <anchor x="803" y="0" name="lm"/>
  <anchor x="803" y="1743" name="um"/>
  <outline>
    <contour>
      <point x="523" y="215" type="curve"/>
      <point x="523" y="822" type="line"/>
      <point x="498" y="885"/>
      <point x="417" y="900"/>
      <point x="352" y="900" type="curve"/>
      <point x="186" y="869"/>
      <point x="108" y="729"/>
      <point x="108" y="630" type="curve" smooth="yes"/>
      <point x="108" y="516"/>
      <point x="205" y="418"/>
      <point x="335" y="405" type="curve"/>
      <point x="335" y="68" type="line" smooth="yes"/>
      <point x="335" y="33"/>
      <point x="378" y="0"/>
      <point x="422" y="0" type="curve" smooth="yes"/>
      <point x="503" y="0" type="line" smooth="yes"/>
      <point x="556" y="0"/>
      <point x="621" y="46"/>
      <point x="653" y="72" type="curve" smooth="yes"/>
      <point x="723" y="128"/>
      <point x="777" y="168"/>
      <point x="803" y="168" type="curve" smooth="yes"/>
      <point x="829" y="168"/>
      <point x="883" y="128"/>
      <point x="953" y="72" type="curve" smooth="yes"/>
      <point x="985" y="46"/>
      <point x="1050" y="0"/>
      <point x="1103" y="0" type="curve" smooth="yes"/>
      <point x="1184" y="0" type="line" smooth="yes"/>
      <point x="1226" y="0"/>
      <point x="1271" y="33"/>
      <point x="1271" y="68" type="curve" smooth="yes"/>
      <point x="1271" y="1253" type="line" smooth="yes"/>
      <point x="1271" y="1353"/>
      <point x="1082" y="1440"/>
      <point x="886" y="1440" type="curve" smooth="yes"/>
      <point x="722" y="1440"/>
      <point x="621" y="1328"/>
      <point x="556" y="1328" type="curve" smooth="yes"/>
      <point x="531" y="1328"/>
      <point x="520" y="1340"/>
      <point x="520" y="1374" type="curve" smooth="yes"/>
      <point x="520" y="1387"/>
      <point x="531" y="1429"/>
      <point x="540" y="1468" type="curve" smooth="yes"/>
      <point x="550" y="1511"/>
      <point x="560" y="1561"/>
      <point x="560" y="1598" type="curve" smooth="yes"/>
      <point x="560" y="1672"/>
      <point x="492" y="1743"/>
      <point x="410" y="1743" type="curve" smooth="yes"/>
      <point x="339" y="1743"/>
      <point x="309" y="1729"/>
      <point x="284" y="1714" type="curve"/>
      <point x="359" y="1714"/>
      <point x="392" y="1643"/>
      <point x="392" y="1610" type="curve" smooth="yes"/>
      <point x="392" y="1579"/>
      <point x="384" y="1538"/>
      <point x="374" y="1497" type="curve" smooth="yes"/>
      <point x="362" y="1449"/>
      <point x="352" y="1400"/>
      <point x="352" y="1357" type="curve" smooth="yes"/>
      <point x="352" y="1278"/>
      <point x="392" y="1198"/>
      <point x="531" y="1198" type="curve" smooth="yes"/>
      <point x="671" y="1198"/>
      <point x="750" y="1310"/>
      <point x="894" y="1310" type="curve" smooth="yes"/>
      <point x="1000" y="1310"/>
      <point x="1083" y="1271"/>
      <point x="1083" y="1216" type="curve" smooth="yes"/>
      <point x="1083" y="215" type="line" smooth="yes"/>
      <point x="1083" y="172"/>
      <point x="1078" y="150"/>
      <point x="1054" y="150" type="curve" smooth="yes"/>
      <point x="1043" y="150"/>
      <point x="984" y="191"/>
      <point x="913" y="247" type="curve" smooth="yes"/>
      <point x="877" y="275"/>
      <point x="839" y="300"/>
      <point x="803" y="300" type="curve" smooth="yes"/>
      <point x="767" y="300"/>
      <point x="729" y="275"/>
      <point x="693" y="247" type="curve" smooth="yes"/>
      <point x="622" y="191"/>
      <point x="563" y="150"/>
      <point x="552" y="150" type="curve" smooth="yes"/>
      <point x="528" y="150"/>
      <point x="523" y="172"/>
    </contour>
    <contour>
      <point x="230" y="630" type="curve" smooth="yes"/>
      <point x="230" y="701"/>
      <point x="284" y="741"/>
      <point x="335" y="763" type="curve"/>
      <point x="335" y="492" type="line"/>
      <point x="269" y="511"/>
      <point x="230" y="577"/>
    </contour>
  </outline>
</glyph>
<glyph name="uni17B1" format="2">
  <advance width="1358"/>
  <unicode hex="17B1"/>
  <anchor x="1192" y="-230" name="L"/>
  <anchor x="1192" y="1812" name="U"/>
  <anchor x="704" y="-230" name="lm"/>
  <anchor x="704" y="1812" name="um"/>
  <outline>
    <contour>
      <point x="425" y="322" type="curve"/>
      <point x="631" y="394"/>
      <point x="1192" y="676"/>
      <point x="1192" y="1024" type="curve" smooth="yes"/>
      <point x="1192" y="1295"/>
      <point x="983" y="1440"/>
      <point x="671" y="1440" type="curve" smooth="yes"/>
      <point x="475" y="1440"/>
      <point x="217" y="1332"/>
      <point x="217" y="1118" type="curve" smooth="yes"/>
      <point x="217" y="1016"/>
      <point x="253" y="949"/>
      <point x="332" y="888" type="curve"/>
      <point x="370" y="863"/>
      <point x="412" y="852"/>
      <point x="468" y="852" type="curve" smooth="yes"/>
      <point x="557" y="852"/>
      <point x="633" y="905"/>
      <point x="633" y="984" type="curve" smooth="yes"/>
      <point x="633" y="1039"/>
      <point x="580" y="1078"/>
      <point x="514" y="1078" type="curve" smooth="yes"/>
      <point x="472" y="1078"/>
      <point x="443" y="1067"/>
      <point x="416" y="1046" type="curve"/>
      <point x="409" y="1063"/>
      <point x="405" y="1088"/>
      <point x="405" y="1125" type="curve" smooth="yes"/>
      <point x="405" y="1231"/>
      <point x="517" y="1310"/>
      <point x="689" y="1310" type="curve" smooth="yes"/>
      <point x="869" y="1310"/>
      <point x="1004" y="1235"/>
      <point x="1004" y="1024" type="curve" smooth="yes"/>
      <point x="1004" y="720"/>
      <point x="370" y="467"/>
      <point x="217" y="425" type="curve"/>
      <point x="217" y="256"/>
      <point x="372" y="0"/>
      <point x="597" y="0" type="curve" smooth="yes"/>
      <point x="796" y="0"/>
      <point x="934" y="134"/>
      <point x="1004" y="209" type="curve"/>
      <point x="1004" y="-170" type="line" smooth="yes"/>
      <point x="1004" y="-197"/>
      <point x="1017" y="-230"/>
      <point x="1043" y="-230" type="curve" smooth="yes"/>
      <point x="1225" y="-230" type="line"/>
      <point x="1201" y="-227"/>
      <point x="1192" y="-196"/>
      <point x="1192" y="-170" type="curve" smooth="yes"/>
      <point x="1192" y="584" type="line"/>
      <point x="1004" y="584" type="line"/>
      <point x="1004" y="409" type="line"/>
      <point x="974" y="339"/>
      <point x="789" y="130"/>
      <point x="604" y="130" type="curve" smooth="yes"/>
      <point x="498" y="130"/>
      <point x="425" y="269"/>
    </contour>
    <contour>
      <point x="462" y="1424" type="line"/>
      <point x="379" y="1440"/>
      <point x="300" y="1467"/>
      <point x="300" y="1524" type="curve" smooth="yes"/>
      <point x="300" y="1527" type="line" smooth="yes"/>
      <point x="300" y="1535"/>
      <point x="301" y="1556"/>
      <point x="311" y="1580" type="curve" smooth="yes"/>
      <point x="320" y="1602"/>
      <point x="351" y="1635"/>
      <point x="369" y="1647" type="curve" smooth="yes"/>
      <point x="377" y="1653"/>
      <point x="387" y="1656"/>
      <point x="397" y="1656" type="curve" smooth="yes"/>
      <point x="486" y="1656"/>
      <point x="865" y="1470"/>
      <point x="970" y="1470" type="curve" smooth="yes"/>
      <point x="1082" y="1470"/>
      <point x="1165" y="1562"/>
      <point x="1175" y="1660" type="curve"/>
      <point x="1147" y="1644"/>
      <point x="1122" y="1640"/>
      <point x="1078" y="1640" type="curve" smooth="yes"/>
      <point x="999" y="1640"/>
      <point x="537" y="1860"/>
      <point x="443" y="1860" type="curve" smooth="yes"/>
      <point x="359" y="1860"/>
      <point x="166" y="1605"/>
      <point x="141" y="1501" type="curve" smooth="yes"/>
      <point x="140" y="1496"/>
      <point x="140" y="1475"/>
      <point x="140" y="1469" type="curve" smooth="yes"/>
      <point x="140" y="1397"/>
      <point x="229" y="1372"/>
      <point x="301" y="1350" type="curve"/>
    </contour>
  </outline>
</glyph>
<glyph name="uni17B3" format="2">
  <advance width="1358"/>
  <unicode hex="17B3"/>
  <anchor x="1192" y="-230" name="L"/>
  <anchor x="1192" y="1955" name="U"/>
  <anchor x="704" y="-230" name="lm"/>
  <anchor x="704" y="1955" name="um"/>
  <outline>
    <contour>
      <point x="425" y="322" type="curve"/>
      <point x="631" y="394"/>
      <point x="1192" y="676"/>
      <point x="1192" y="1024" type="curve" smooth="yes"/>
      <point x="1192" y="1295"/>
      <point x="983" y="1440"/>
      <point x="671" y="1440" type="curve" smooth="yes"/>
      <point x="475" y="1440"/>
      <point x="217" y="1332"/>
      <point x="217" y="1118" type="curve" smooth="yes"/>
      <point x="217" y="1016"/>
      <point x="253" y="949"/>
      <point x="332" y="888" type="curve"/>
      <point x="370" y="863"/>
      <point x="412" y="852"/>
      <point x="468" y="852" type="curve" smooth="yes"/>
      <point x="557" y="852"/>
      <point x="633" y="905"/>
      <point x="633" y="984" type="curve" smooth="yes"/>
      <point x="633" y="1039"/>
      <point x="580" y="1078"/>
      <point x="514" y="1078" type="curve" smooth="yes"/>
      <point x="472" y="1078"/>
      <point x="443" y="1067"/>
      <point x="416" y="1046" type="curve"/>
      <point x="409" y="1063"/>
      <point x="405" y="1088"/>
      <point x="405" y="1125" type="curve" smooth="yes"/>
      <point x="405" y="1231"/>
      <point x="517" y="1310"/>
      <point x="689" y="1310" type="curve" smooth="yes"/>
      <point x="869" y="1310"/>
      <point x="1004" y="1235"/>
      <point x="1004" y="1024" type="curve" smooth="yes"/>
      <point x="1004" y="720"/>
      <point x="370" y="467"/>
      <point x="217" y="425" type="curve"/>
      <point x="217" y="256"/>
      <point x="372" y="0"/>
      <point x="597" y="0" type="curve" smooth="yes"/>
      <point x="796" y="0"/>
      <point x="934" y="134"/>
      <point x="1004" y="209" type="curve"/>
      <point x="1004" y="-170" type="line" smooth="yes"/>
      <point x="1004" y="-197"/>
      <point x="1017" y="-230"/>
      <point x="1043" y="-230" type="curve" smooth="yes"/>
      <point x="1225" y="-230" type="line"/>
      <point x="1201" y="-227"/>
      <point x="1192" y="-196"/>
      <point x="1192" y="-170" type="curve" smooth="yes"/>
      <point x="1192" y="584" type="line"/>
      <point x="1004" y="584" type="line"/>
      <point x="1004" y="409" type="line"/>
      <point x="974" y="339"/>
      <point x="789" y="130"/>
      <point x="604" y="130" type="curve" smooth="yes"/>
      <point x="498" y="130"/>
      <point x="425" y="269"/>
    </contour>
    <contour>
      <point x="472" y="1424" type="line"/>
      <point x="389" y="1440"/>
      <point x="310" y="1467"/>
      <point x="310" y="1524" type="curve" smooth="yes"/>
      <point x="310" y="1527" type="line" smooth="yes"/>
      <point x="310" y="1535"/>
      <point x="311" y="1556"/>
      <point x="321" y="1580" type="curve" smooth="yes"/>
      <point x="330" y="1602"/>
      <point x="361" y="1635"/>
      <point x="379" y="1647" type="curve" smooth="yes"/>
      <point x="387" y="1653"/>
      <point x="397" y="1656"/>
      <point x="407" y="1656" type="curve" smooth="yes"/>
      <point x="496" y="1656"/>
      <point x="875" y="1470"/>
      <point x="980" y="1470" type="curve" smooth="yes"/>
      <point x="1092" y="1470"/>
      <point x="1184" y="1562"/>
      <point x="1185" y="1660" type="curve" smooth="yes"/>
      <point x="1187" y="1795"/>
      <point x="1230" y="1896"/>
      <point x="1288" y="1955" type="curve"/>
      <point x="1232" y="1952"/>
      <point x="1185" y="1941"/>
      <point x="1157" y="1918" type="curve" smooth="yes"/>
      <point x="1127" y="1893"/>
      <point x="1081" y="1816"/>
      <point x="1062" y="1693" type="curve" smooth="yes"/>
      <point x="1059" y="1674"/>
      <point x="1045" y="1663"/>
      <point x="1022" y="1663" type="curve" smooth="yes"/>
      <point x="1014" y="1663"/>
      <point x="1005" y="1664"/>
      <point x="995" y="1667" type="curve" smooth="yes"/>
      <point x="848" y="1712"/>
      <point x="534" y="1860"/>
      <point x="453" y="1860" type="curve" smooth="yes"/>
      <point x="369" y="1860"/>
      <point x="176" y="1605"/>
      <point x="151" y="1501" type="curve" smooth="yes"/>
      <point x="150" y="1496"/>
      <point x="150" y="1475"/>
      <point x="150" y="1469" type="curve" smooth="yes"/>
      <point x="150" y="1397"/>
      <point x="239" y="1372"/>
      <point x="311" y="1350" type="curve"/>
    </contour>
  </outline>
</glyph>
<glyph name="uni17BE" format="2">
  <advance width="2123"/>
  <unicode hex="17BE"/>
  <outline>
    <contour>
      <point x="1282" y="1679" type="curve" smooth="yes"/>
      <point x="1426" y="1679"/>
      <point x="1552" y="1651"/>
      <point x="1654" y="1626" type="curve" smooth="yes"/>
      <point x="1729" y="1607"/>
      <point x="1788" y="1590"/>
      <point x="1844" y="1590" type="curve" smooth="yes"/>
      <point x="1875" y="1590"/>
      <point x="1899" y="1609"/>
      <point x="1912" y="1632" type="curve"/>
      <point x="1980" y="1730"/>
      <point x="2012" y="1837"/>
      <point x="2012" y="1971" type="curve" smooth="yes"/>
      <point x="2012" y="2089"/>
      <point x="1950" y="2191"/>
      <point x="1852" y="2191" type="curve" smooth="yes"/>
      <point x="1805" y="2191"/>
      <point x="1765" y="2157"/>
      <point x="1765" y="2113" type="curve" smooth="yes"/>
      <point x="1765" y="2072"/>
      <point x="1778" y="2051"/>
      <point x="1808" y="2023" type="curve" smooth="yes"/>
      <point x="1841" y="1992"/>
      <point x="1852" y="1960"/>
      <point x="1852" y="1884" type="curve" smooth="yes"/>
      <point x="1852" y="1860"/>
      <point x="1848" y="1831"/>
      <point x="1844" y="1805" type="curve"/>
      <point x="1709" y="1952"/>
      <point x="1485" y="2063"/>
      <point x="1312" y="2063" type="curve" smooth="yes"/>
      <point x="1107" y="2063"/>
      <point x="918" y="1937"/>
      <point x="918" y="1805" type="curve" smooth="yes"/>
      <point x="918" y="1719"/>
      <point x="979" y="1666"/>
      <point x="1069" y="1666" type="curve" smooth="yes"/>
      <point x="1131" y="1666"/>
      <point x="1222" y="1679"/>
    </contour>
    <contour>
      <point x="295" y="939" type="curve"/>
      <point x="295" y="78" type="line"/>
      <point x="320" y="15"/>
      <point x="401" y="0"/>
      <point x="466" y="0" type="curve"/>
      <point x="632" y="31"/>
      <point x="710" y="171"/>
      <point x="710" y="270" type="curve" smooth="yes"/>
      <point x="710" y="384"/>
      <point x="613" y="482"/>
      <point x="483" y="495" type="curve"/>
      <point x="483" y="950" type="line" smooth="yes"/>
      <point x="483" y="1015"/>
      <point x="344" y="1114"/>
      <point x="224" y="1154" type="curve"/>
      <point x="222" y="1155"/>
      <point x="221" y="1156"/>
      <point x="221" y="1158" type="curve"/>
      <point x="221" y="1160" type="line"/>
      <point x="226" y="1183"/>
      <point x="241" y="1215"/>
      <point x="259" y="1227" type="curve"/>
      <point x="267" y="1233"/>
      <point x="277" y="1236"/>
      <point x="287" y="1236" type="curve" smooth="yes"/>
      <point x="356" y="1236"/>
      <point x="389" y="1165"/>
      <point x="474" y="1165" type="curve" smooth="yes"/>
      <point x="565" y="1165"/>
      <point x="584" y="1260"/>
      <point x="615" y="1346" type="curve"/>
      <point x="592" y="1336"/>
      <point x="568" y="1334"/>
      <point x="545" y="1334" type="curve" smooth="yes"/>
      <point x="490" y="1334"/>
      <point x="405" y="1440"/>
      <point x="333" y="1440" type="curve" smooth="yes"/>
      <point x="249" y="1440"/>
      <point x="146" y="1185"/>
      <point x="121" y="1081" type="curve"/>
      <point x="121" y="1079" type="line"/>
      <point x="121" y="1075"/>
      <point x="123" y="1070"/>
      <point x="128" y="1069" type="curve"/>
      <point x="233" y="1057"/>
      <point x="295" y="983"/>
    </contour>
    <contour>
      <point x="1301" y="1809" type="curve" smooth="yes"/>
      <point x="1239" y="1809"/>
      <point x="1213" y="1800"/>
      <point x="1155" y="1800" type="curve" smooth="yes"/>
      <point x="1130" y="1800"/>
      <point x="1115" y="1815"/>
      <point x="1115" y="1829" type="curve" smooth="yes"/>
      <point x="1115" y="1887"/>
      <point x="1223" y="1933"/>
      <point x="1312" y="1933" type="curve" smooth="yes"/>
      <point x="1444" y="1933"/>
      <point x="1623" y="1828"/>
      <point x="1691" y="1750" type="curve"/>
      <point x="1630" y="1770"/>
      <point x="1454" y="1809"/>
    </contour>
    <contour>
      <point x="588" y="270" type="curve" smooth="yes"/>
      <point x="588" y="199"/>
      <point x="534" y="159"/>
      <point x="483" y="137" type="curve"/>
      <point x="483" y="408" type="line"/>
      <point x="549" y="389"/>
      <point x="588" y="323"/>
    </contour>
    <contour>
      <point x="1321" y="1360" type="curve" smooth="yes"/>
      <point x="1321" y="1316"/>
      <point x="1356" y="1279"/>
      <point x="1401" y="1279" type="curve" smooth="yes"/>
      <point x="1445" y="1279"/>
      <point x="1481" y="1316"/>
      <point x="1481" y="1360" type="curve" smooth="yes"/>
      <point x="1481" y="1405"/>
      <point x="1445" y="1440"/>
      <point x="1401" y="1440" type="curve" smooth="yes"/>
      <point x="1356" y="1440"/>
      <point x="1321" y="1405"/>
    </contour>
    <contour>
      <point x="1321" y="80" type="curve" smooth="yes"/>
      <point x="1321" y="35"/>
      <point x="1356" y="0"/>
      <point x="1401" y="0" type="curve" smooth="yes"/>
      <point x="1445" y="0"/>
      <point x="1481" y="35"/>
      <point x="1481" y="80" type="curve" smooth="yes"/>
      <point x="1481" y="124"/>
      <point x="1445" y="161"/>
      <point x="1401" y="161" type="curve" smooth="yes"/>
      <point x="1356" y="161"/>
      <point x="1321" y="124"/>
    </contour>
    <contour>
      <point x="1681" y="448" type="curve" smooth="yes"/>
      <point x="1681" y="405"/>
      <point x="1717" y="367"/>
      <point x="1761" y="367" type="curve" smooth="yes"/>
      <point x="1804" y="367"/>
      <point x="1842" y="405"/>
      <point x="1842" y="448" type="curve" smooth="yes"/>
      <point x="1842" y="492"/>
      <point x="1804" y="528"/>
      <point x="1761" y="528" type="curve" smooth="yes"/>
      <point x="1717" y="528"/>
      <point x="1681" y="492"/>
    </contour>
    <contour>
      <point x="1121" y="448" type="curve" smooth="yes"/>
      <point x="1121" y="492"/>
      <point x="1085" y="528"/>
      <point x="1041" y="528" type="curve" smooth="yes"/>
      <point x="998" y="528"/>
      <point x="960" y="492"/>
      <point x="960" y="448" type="curve" smooth="yes"/>
      <point x="960" y="405"/>
      <point x="998" y="367"/>
      <point x="1041" y="367" type="curve" smooth="yes"/>
      <point x="1085" y="367"/>
      <point x="1121" y="405"/>
    </contour>
    <contour>
      <point x="1121" y="993" type="curve" smooth="yes"/>
      <point x="1121" y="1035"/>
      <point x="1085" y="1073"/>
      <point x="1041" y="1073" type="curve" smooth="yes"/>
      <point x="998" y="1073"/>
      <point x="960" y="1035"/>
      <point x="960" y="993" type="curve" smooth="yes"/>
      <point x="960" y="949"/>
      <point x="998" y="912"/>
      <point x="1041" y="912" type="curve" smooth="yes"/>
      <point x="1085" y="912"/>
      <point x="1121" y="949"/>
    </contour>
    <contour>
      <point x="1681" y="993" type="curve" smooth="yes"/>
      <point x="1681" y="949"/>
      <point x="1717" y="912"/>
      <point x="1761" y="912" type="curve" smooth="yes"/>
      <point x="1804" y="912"/>
      <point x="1842" y="949"/>
      <point x="1842" y="993" type="curve" smooth="yes"/>
      <point x="1842" y="1035"/>
      <point x="1804" y="1073"/>
      <point x="1761" y="1073" type="curve" smooth="yes"/>
      <point x="1717" y="1073"/>
      <point x="1681" y="1035"/>
    </contour>
    <contour>
      <point x="1721" y="721" type="curve" smooth="yes"/>
      <point x="1721" y="677"/>
      <point x="1756" y="640"/>
      <point x="1800" y="640" type="curve" smooth="yes"/>
      <point x="1845" y="640"/>
      <point x="1881" y="677"/>
      <point x="1881" y="721" type="curve" smooth="yes"/>
      <point x="1881" y="764"/>
      <point x="1845" y="800"/>
      <point x="1800" y="800" type="curve" smooth="yes"/>
      <point x="1756" y="800"/>
      <point x="1721" y="764"/>
    </contour>
    <contour>
      <point x="921" y="721" type="curve" smooth="yes"/>
      <point x="921" y="677"/>
      <point x="956" y="640"/>
      <point x="1001" y="640" type="curve" smooth="yes"/>
      <point x="1045" y="640"/>
      <point x="1081" y="677"/>
      <point x="1081" y="721" type="curve" smooth="yes"/>
      <point x="1081" y="764"/>
      <point x="1045" y="800"/>
      <point x="1001" y="800" type="curve" smooth="yes"/>
      <point x="956" y="800"/>
      <point x="921" y="764"/>
    </contour>
    <contour>
      <point x="1573" y="1249" type="curve" smooth="yes"/>
      <point x="1573" y="1205"/>
      <point x="1609" y="1168"/>
      <point x="1654" y="1168" type="curve" smooth="yes"/>
      <point x="1697" y="1168"/>
      <point x="1733" y="1205"/>
      <point x="1733" y="1249" type="curve" smooth="yes"/>
      <point x="1733" y="1292"/>
      <point x="1697" y="1328"/>
      <point x="1654" y="1328" type="curve" smooth="yes"/>
      <point x="1609" y="1328"/>
      <point x="1573" y="1292"/>
    </contour>
    <contour>
      <point x="1577" y="192" type="curve" smooth="yes"/>
      <point x="1577" y="149"/>
      <point x="1613" y="112"/>
      <point x="1657" y="112" type="curve" smooth="yes"/>
      <point x="1701" y="112"/>
      <point x="1737" y="149"/>
      <point x="1737" y="192" type="curve" smooth="yes"/>
      <point x="1737" y="235"/>
      <point x="1701" y="272"/>
      <point x="1657" y="272" type="curve" smooth="yes"/>
      <point x="1613" y="272"/>
      <point x="1577" y="235"/>
    </contour>
    <contour>
      <point x="1228" y="1249" type="curve" smooth="yes"/>
      <point x="1228" y="1292"/>
      <point x="1193" y="1328"/>
      <point x="1148" y="1328" type="curve" smooth="yes"/>
      <point x="1105" y="1328"/>
      <point x="1070" y="1292"/>
      <point x="1070" y="1249" type="curve" smooth="yes"/>
      <point x="1070" y="1205"/>
      <point x="1105" y="1168"/>
      <point x="1148" y="1168" type="curve" smooth="yes"/>
      <point x="1193" y="1168"/>
      <point x="1228" y="1205"/>
    </contour>
    <contour>
      <point x="1228" y="192" type="curve" smooth="yes"/>
      <point x="1228" y="235"/>
      <point x="1193" y="272"/>
      <point x="1148" y="272" type="curve" smooth="yes"/>
      <point x="1105" y="272"/>
      <point x="1070" y="235"/>
      <point x="1070" y="192" type="curve" smooth="yes"/>
      <point x="1070" y="149"/>
      <point x="1105" y="112"/>
      <point x="1148" y="112" type="curve" smooth="yes"/>
      <point x="1193" y="112"/>
      <point x="1228" y="149"/>
    </contour>
  </outline>
</glyph>
<glyph name="uni17C1" format="2">
  <advance width="729"/>
  <unicode hex="17C1"/>
  <outline>
    <contour>
      <point x="483" y="495" type="curve"/>
      <point x="483" y="950" type="line" smooth="yes"/>
      <point x="483" y="1015"/>
      <point x="344" y="1114"/>
      <point x="224" y="1154" type="curve"/>
      <point x="222" y="1155"/>
      <point x="221" y="1156"/>
      <point x="221" y="1158" type="curve"/>
      <point x="221" y="1160" type="line"/>
      <point x="226" y="1183"/>
      <point x="241" y="1215"/>
      <point x="259" y="1227" type="curve"/>
      <point x="267" y="1233"/>
      <point x="277" y="1236"/>
      <point x="287" y="1236" type="curve" smooth="yes"/>
      <point x="356" y="1236"/>
      <point x="389" y="1165"/>
      <point x="474" y="1165" type="curve" smooth="yes"/>
      <point x="565" y="1165"/>
      <point x="584" y="1260"/>
      <point x="615" y="1346" type="curve"/>
      <point x="592" y="1336"/>
      <point x="568" y="1334"/>
      <point x="545" y="1334" type="curve" smooth="yes"/>
      <point x="490" y="1334"/>
      <point x="405" y="1440"/>
      <point x="333" y="1440" type="curve" smooth="yes"/>
      <point x="249" y="1440"/>
      <point x="146" y="1185"/>
      <point x="121" y="1081" type="curve"/>
      <point x="121" y="1079" type="line"/>
      <point x="121" y="1075"/>
      <point x="123" y="1070"/>
      <point x="128" y="1069" type="curve"/>
      <point x="233" y="1057"/>
      <point x="295" y="983"/>
      <point x="295" y="939" type="curve" smooth="yes"/>
      <point x="295" y="78" type="line"/>
      <point x="320" y="15"/>
      <point x="401" y="0"/>
      <point x="466" y="0" type="curve"/>
      <point x="632" y="31"/>
      <point x="710" y="171"/>
      <point x="710" y="270" type="curve" smooth="yes"/>
      <point x="710" y="384"/>
      <point x="613" y="482"/>
    </contour>
    <contour>
      <point x="588" y="270" type="curve" smooth="yes"/>
      <point x="588" y="199"/>
      <point x="534" y="159"/>
      <point x="483" y="137" type="curve"/>
      <point x="483" y="408" type="line"/>
      <point x="549" y="389"/>
      <point x="588" y="323"/>
    </contour>
  </outline>
</glyph>
<glyph name="uni17C2" format="2">
  <advance width="729"/>
  <unicode hex="17C2"/>
  <outline>
    <contour>
      <point x="483" y="495" type="curve"/>
      <point x="483" y="950" type="line" smooth="yes"/>
      <point x="483" y="1015"/>
      <point x="344" y="1114"/>
      <point x="224" y="1154" type="curve"/>
      <point x="222" y="1155"/>
      <point x="221" y="1156"/>
      <point x="221" y="1158" type="curve"/>
      <point x="221" y="1160" type="line"/>
      <point x="226" y="1183"/>
      <point x="241" y="1215"/>
      <point x="259" y="1227" type="curve"/>
      <point x="267" y="1233"/>
      <point x="277" y="1236"/>
      <point x="287" y="1236" type="curve" smooth="yes"/>
      <point x="356" y="1236"/>
      <point x="389" y="1165"/>
      <point x="474" y="1165" type="curve" smooth="yes"/>
      <point x="565" y="1165"/>
      <point x="584" y="1260"/>
      <point x="615" y="1346" type="curve"/>
      <point x="592" y="1336"/>
      <point x="568" y="1334"/>
      <point x="545" y="1334" type="curve" smooth="yes"/>
      <point x="490" y="1334"/>
      <point x="405" y="1440"/>
      <point x="333" y="1440" type="curve" smooth="yes"/>
      <point x="249" y="1440"/>
      <point x="146" y="1185"/>
      <point x="121" y="1081" type="curve"/>
      <point x="121" y="1079" type="line"/>
      <point x="121" y="1075"/>
      <point x="123" y="1070"/>
      <point x="128" y="1069" type="curve"/>
      <point x="233" y="1057"/>
      <point x="295" y="983"/>
      <point x="295" y="939" type="curve" smooth="yes"/>
      <point x="295" y="78" type="line"/>
      <point x="320" y="15"/>
      <point x="401" y="0"/>
      <point x="466" y="0" type="curve"/>
      <point x="632" y="31"/>
      <point x="710" y="171"/>
      <point x="710" y="270" type="curve" smooth="yes"/>
      <point x="710" y="384"/>
      <point x="613" y="482"/>
    </contour>
    <contour>
      <point x="305" y="1905" type="curve" smooth="yes"/>
      <point x="305" y="1977"/>
      <point x="231" y="2005"/>
      <point x="184" y="2005" type="curve" smooth="yes"/>
      <point x="87" y="2005"/>
      <point x="20" y="1941"/>
      <point x="20" y="1858" type="curve" smooth="yes"/>
      <point x="20" y="1722"/>
      <point x="116" y="1590"/>
      <point x="307" y="1590" type="curve" smooth="yes"/>
      <point x="528" y="1590"/>
      <point x="709" y="1719"/>
      <point x="709" y="1969" type="curve" smooth="yes"/>
      <point x="709" y="2030"/>
      <point x="694" y="2075"/>
      <point x="659" y="2119" type="curve" smooth="yes"/>
      <point x="623" y="2164"/>
      <point x="572" y="2187"/>
      <point x="510" y="2187" type="curve" smooth="yes"/>
      <point x="463" y="2187"/>
      <point x="429" y="2154"/>
      <point x="429" y="2120" type="curve" smooth="yes"/>
      <point x="429" y="2079"/>
      <point x="451" y="2051"/>
      <point x="508" y="2025" type="curve" smooth="yes"/>
      <point x="545" y="2007"/>
      <point x="556" y="1977"/>
      <point x="556" y="1941" type="curve" smooth="yes"/>
      <point x="556" y="1873"/>
      <point x="526" y="1823"/>
      <point x="495" y="1787" type="curve" smooth="yes"/>
      <point x="447" y="1730"/>
      <point x="371" y="1702"/>
      <point x="307" y="1702" type="curve" smooth="yes"/>
      <point x="244" y="1702"/>
      <point x="195" y="1755"/>
      <point x="195" y="1805" type="curve"/>
      <point x="252" y="1809"/>
      <point x="305" y="1851"/>
    </contour>
    <contour>
      <point x="588" y="270" type="curve" smooth="yes"/>
      <point x="588" y="199"/>
      <point x="534" y="159"/>
      <point x="483" y="137" type="curve"/>
      <point x="483" y="408" type="line"/>
      <point x="549" y="389"/>
      <point x="588" y="323"/>
    </contour>
  </outline>
</glyph>
<glyph name="uni17CA" format="2">
  <unicode hex="17CA"/>
  <anchor x="-245" y="1852" name="U"/>
  <anchor x="-245" y="1440" name="_U"/>
  <anchor x="-719" y="1852" name="um"/>
  <outline>
    <contour>
      <point x="-752" y="1546" type="curve" smooth="yes"/>
      <point x="-715" y="1546"/>
      <point x="-684" y="1570"/>
      <point x="-665" y="1594" type="curve" smooth="yes"/>
      <point x="-641" y="1623"/>
      <point x="-612" y="1648"/>
      <point x="-581" y="1648" type="curve" smooth="yes"/>
      <point x="-512" y="1648"/>
      <point x="-339" y="1546"/>
      <point x="-254" y="1546" type="curve" smooth="yes"/>
      <point x="-173" y="1546"/>
      <point x="-144" y="1651"/>
      <point x="-113" y="1737" type="curve"/>
      <point x="-136" y="1727"/>
      <point x="-160" y="1725"/>
      <point x="-183" y="1725" type="curve" smooth="yes"/>
      <point x="-248" y="1725"/>
      <point x="-471" y="1852"/>
      <point x="-543" y="1852" type="curve" smooth="yes"/>
      <point x="-567" y="1852"/>
      <point x="-596" y="1835"/>
      <point x="-626" y="1809" type="curve" smooth="yes"/>
      <point x="-654" y="1784"/>
      <point x="-677" y="1763"/>
      <point x="-705" y="1730" type="curve"/>
      <point x="-784" y="1755"/>
      <point x="-969" y="1852"/>
      <point x="-1033" y="1852" type="curve" smooth="yes"/>
      <point x="-1117" y="1852"/>
      <point x="-1302" y="1656"/>
      <point x="-1333" y="1584" type="curve" smooth="yes"/>
      <point x="-1336" y="1577"/>
      <point x="-1336" y="1569"/>
      <point x="-1336" y="1563" type="curve" smooth="yes"/>
      <point x="-1336" y="1532"/>
      <point x="-1288" y="1514"/>
      <point x="-1215" y="1492" type="curve"/>
      <point x="-1054" y="1536" type="line"/>
      <point x="-1137" y="1552"/>
      <point x="-1176" y="1569"/>
      <point x="-1176" y="1591" type="curve" smooth="yes"/>
      <point x="-1176" y="1602"/>
      <point x="-1151" y="1623"/>
      <point x="-1122" y="1639" type="curve" smooth="yes"/>
      <point x="-1113" y="1644"/>
      <point x="-1104" y="1648"/>
      <point x="-1094" y="1648" type="curve" smooth="yes"/>
      <point x="-1025" y="1648"/>
      <point x="-837" y="1546"/>
    </contour>
  </outline>
</glyph>
<glyph name="uni17CB" format="2">
  <unicode hex="17CB"/>
  <anchor x="-719" y="1440" name="_um"/>
  <anchor x="-719" y="1986" name="um"/>
  <outline>
    <contour>
      <point x="-843" y="1862" type="curve" smooth="yes"/>
      <point x="-843" y="1790"/>
      <point x="-800" y="1763"/>
      <point x="-774" y="1759" type="curve"/>
      <point x="-771" y="1756"/>
      <point x="-771" y="1737"/>
      <point x="-771" y="1730" type="curve" smooth="yes"/>
      <point x="-771" y="1654"/>
      <point x="-801" y="1614"/>
      <point x="-801" y="1601" type="curve" smooth="yes"/>
      <point x="-801" y="1594"/>
      <point x="-790" y="1590"/>
      <point x="-754" y="1590" type="curve" smooth="yes"/>
      <point x="-653" y="1590"/>
      <point x="-597" y="1701"/>
      <point x="-597" y="1850" type="curve" smooth="yes"/>
      <point x="-597" y="1913"/>
      <point x="-654" y="1967"/>
      <point x="-729" y="1967" type="curve" smooth="yes"/>
      <point x="-795" y="1967"/>
      <point x="-843" y="1926"/>
    </contour>
  </outline>
</glyph>
<glyph name="uni17CE" format="2">
  <unicode hex="17CE"/>
  <anchor x="-719" y="1440" name="_um"/>
  <anchor x="-719" y="2020" name="um"/>
  <outline>
    <contour>
      <point x="-950" y="1728" type="line"/>
      <point x="-803" y="1728" type="line"/>
      <point x="-803" y="1590" type="line"/>
      <point x="-635" y="1590" type="line"/>
      <point x="-635" y="1728" type="line"/>
      <point x="-488" y="1728" type="line"/>
      <point x="-488" y="1883" type="line"/>
      <point x="-635" y="1883" type="line"/>
      <point x="-635" y="2020" type="line"/>
      <point x="-803" y="2020" type="line"/>
      <point x="-803" y="1883" type="line"/>
      <point x="-950" y="1883" type="line"/>
    </contour>
  </outline>
</glyph>
<glyph name="uni17E3" format="2">
  <advance width="1698"/>
  <unicode hex="17E3"/>
  <outline>
    <contour>
      <point x="155" y="1272" type="curve"/>
      <point x="155" y="78" type="line"/>
      <point x="180" y="15"/>
      <point x="261" y="0"/>
      <point x="326" y="0" type="curve"/>
      <point x="492" y="31"/>
      <point x="570" y="171"/>
      <point x="570" y="270" type="curve" smooth="yes"/>
      <point x="570" y="384"/>
      <point x="473" y="482"/>
      <point x="343" y="495" type="curve"/>
      <point x="343" y="1253" type="line" smooth="yes"/>
      <point x="343" y="1308"/>
      <point x="481" y="1328"/>
      <point x="549" y="1328" type="curve" smooth="yes"/>
      <point x="617" y="1328"/>
      <point x="755" y="1308"/>
      <point x="755" y="1253" type="curve" smooth="yes"/>
      <point x="755" y="0" type="line"/>
      <point x="943" y="0" type="line"/>
      <point x="943" y="1253" type="line" smooth="yes"/>
      <point x="943" y="1308"/>
      <point x="1081" y="1328"/>
      <point x="1149" y="1328" type="curve" smooth="yes"/>
      <point x="1217" y="1328"/>
      <point x="1355" y="1308"/>
      <point x="1355" y="1253" type="curve" smooth="yes"/>
      <point x="1355" y="0" type="line"/>
      <point x="1543" y="0" type="line"/>
      <point x="1543" y="1272" type="line" smooth="yes"/>
      <point x="1543" y="1372"/>
      <point x="1345" y="1440"/>
      <point x="1149" y="1440" type="curve" smooth="yes"/>
      <point x="1037" y="1440"/>
      <point x="923" y="1418"/>
      <point x="848" y="1381" type="curve"/>
      <point x="773" y="1418"/>
      <point x="661" y="1440"/>
      <point x="549" y="1440" type="curve" smooth="yes"/>
      <point x="353" y="1440"/>
      <point x="155" y="1372"/>
    </contour>
    <contour>
      <point x="448" y="270" type="curve" smooth="yes"/>
      <point x="448" y="199"/>
      <point x="394" y="159"/>
      <point x="343" y="137" type="curve"/>
      <point x="343" y="408" type="line"/>
      <point x="409" y="389"/>
      <point x="448" y="323"/>
    </contour>
  </outline>
</glyph>
<glyph name="uni19E1" format="2">
  <advance width="1390"/>
  <unicode hex="19E1"/>
  <outline>
    <contour>
      <point x="570" y="1229" type="curve" smooth="yes"/>
      <point x="706" y="1229"/>
      <point x="829" y="1329"/>
      <point x="829" y="1461" type="curve"/>
      <point x="829" y="1562"/>
      <point x="766" y="1615"/>
      <point x="681" y="1615" type="curve"/>
      <point x="595" y="1615"/>
      <point x="573" y="1566"/>
      <point x="573" y="1536" type="curve"/>
      <point x="573" y="1494"/>
      <point x="593" y="1457"/>
      <point x="661" y="1457" type="curve"/>
      <point x="661" y="1400"/>
      <point x="619" y="1359"/>
      <point x="574" y="1359" type="curve"/>
      <point x="465" y="1359"/>
      <point x="396" y="1472"/>
      <point x="396" y="1604" type="curve"/>
      <point x="396" y="1817"/>
      <point x="536" y="1932"/>
      <point x="678" y="1932" type="curve"/>
      <point x="844" y="1932"/>
      <point x="996" y="1776"/>
      <point x="996" y="1378" type="curve"/>
      <point x="996" y="1052"/>
      <point x="745" y="692"/>
      <point x="416" y="692" type="curve"/>
      <point x="393" y="692"/>
      <point x="376" y="692"/>
      <point x="355" y="695" type="curve"/>
      <point x="401" y="646"/>
      <point x="480" y="620"/>
      <point x="562" y="620" type="curve"/>
      <point x="851" y="620"/>
      <point x="1184" y="965"/>
      <point x="1184" y="1397" type="curve"/>
      <point x="1184" y="1858"/>
      <point x="930" y="2060"/>
      <point x="678" y="2060" type="curve"/>
      <point x="404" y="2060"/>
      <point x="216" y="1876"/>
      <point x="216" y="1640" type="curve"/>
      <point x="216" y="1415"/>
      <point x="348" y="1229"/>
    </contour>
    <contour>
      <point x="1084" y="-1200" type="line"/>
      <point x="1084" y="240" type="line"/>
      <point x="858" y="240" type="line"/>
      <point x="858" y="154"/>
      <point x="724" y="-105"/>
      <point x="589" y="-105" type="curve" smooth="yes"/>
      <point x="503" y="-105"/>
      <point x="503" y="4"/>
      <point x="503" y="38" type="curve"/>
      <point x="565" y="50"/>
      <point x="632" y="114"/>
      <point x="632" y="170" type="curve"/>
      <point x="632" y="225"/>
      <point x="592" y="278"/>
      <point x="483" y="278" type="curve"/>
      <point x="359" y="278"/>
      <point x="277" y="178"/>
      <point x="277" y="38" type="curve"/>
      <point x="277" y="-75"/>
      <point x="389" y="-217"/>
      <point x="554" y="-217" type="curve"/>
      <point x="689" y="-217"/>
      <point x="798" y="-116"/>
      <point x="858" y="-18" type="curve"/>
      <point x="858" y="-1200" type="line"/>
    </contour>
  </outline>
</glyph>
<glyph name="uni19E3" format="2">
  <advance width="1840"/>
  <unicode hex="19E3"/>
  <outline>
    <contour>
      <point x="1304" y="-1200" type="line"/>
      <point x="1304" y="240" type="line"/>
      <point x="1078" y="240" type="line"/>
      <point x="1078" y="154"/>
      <point x="944" y="-105"/>
      <point x="809" y="-105" type="curve" smooth="yes"/>
      <point x="723" y="-105"/>
      <point x="723" y="4"/>
      <point x="723" y="38" type="curve"/>
      <point x="785" y="50"/>
      <point x="852" y="114"/>
      <point x="852" y="170" type="curve"/>
      <point x="852" y="225"/>
      <point x="812" y="278"/>
      <point x="703" y="278" type="curve"/>
      <point x="579" y="278"/>
      <point x="497" y="178"/>
      <point x="497" y="38" type="curve"/>
      <point x="497" y="-75"/>
      <point x="609" y="-217"/>
      <point x="774" y="-217" type="curve"/>
      <point x="909" y="-217"/>
      <point x="1018" y="-116"/>
      <point x="1078" y="-18" type="curve"/>
      <point x="1078" y="-1200" type="line"/>
    </contour>
    <contour>
      <point x="225" y="1892" type="curve"/>
      <point x="225" y="699" type="line"/>
      <point x="250" y="636"/>
      <point x="331" y="620"/>
      <point x="396" y="620" type="curve"/>
      <point x="562" y="651"/>
      <point x="640" y="789"/>
      <point x="640" y="868" type="curve" smooth="yes"/>
      <point x="640" y="996"/>
      <point x="540" y="1064"/>
      <point x="413" y="1071" type="curve"/>
      <point x="413" y="1873" type="line" smooth="yes"/>
      <point x="413" y="1928"/>
      <point x="551" y="1948"/>
      <point x="619" y="1948" type="curve" smooth="yes"/>
      <point x="687" y="1948"/>
      <point x="825" y="1928"/>
      <point x="825" y="1873" type="curve" smooth="yes"/>
      <point x="825" y="620" type="line"/>
      <point x="1013" y="620" type="line"/>
      <point x="1013" y="1873" type="line" smooth="yes"/>
      <point x="1013" y="1928"/>
      <point x="1151" y="1948"/>
      <point x="1219" y="1948" type="curve" smooth="yes"/>
      <point x="1287" y="1948"/>
      <point x="1425" y="1928"/>
      <point x="1425" y="1873" type="curve" smooth="yes"/>
      <point x="1425" y="620" type="line"/>
      <point x="1613" y="620" type="line"/>
      <point x="1613" y="1892" type="line" smooth="yes"/>
      <point x="1613" y="1992"/>
      <point x="1415" y="2060"/>
      <point x="1219" y="2060" type="curve" smooth="yes"/>
      <point x="1107" y="2060"/>
      <point x="993" y="2038"/>
      <point x="918" y="2001" type="curve"/>
      <point x="843" y="2038"/>
      <point x="731" y="2060"/>
      <point x="619" y="2060" type="curve" smooth="yes"/>
      <point x="423" y="2060"/>
      <point x="225" y="1992"/>
    </contour>
    <contour>
      <point x="518" y="877" type="curve" smooth="yes"/>
      <point x="518" y="816"/>
      <point x="464" y="779"/>
      <point x="413" y="757" type="curve"/>
      <point x="413" y="965" type="line"/>
      <point x="461" y="958"/>
      <point x="518" y="927"/>
    </contour>
  </outline>
</glyph>
<glyph name="uni19E4" format="2">
  <advance width="1390"/>
  <unicode hex="19E4"/>
  <outline>
    <contour>
      <point x="208" y="1150" type="curve" smooth="yes"/>
      <point x="208" y="756"/>
      <point x="355" y="620"/>
      <point x="472" y="620" type="curve"/>
      <point x="506" y="620"/>
      <point x="551" y="627"/>
      <point x="591" y="634" type="curve"/>
      <point x="638" y="643"/>
      <point x="681" y="650"/>
      <point x="716" y="650" type="curve"/>
      <point x="783" y="650"/>
      <point x="862" y="640"/>
      <point x="927" y="630" type="curve"/>
      <point x="971" y="624"/>
      <point x="1006" y="620"/>
      <point x="1032" y="620" type="curve"/>
      <point x="1092" y="620"/>
      <point x="1106" y="653"/>
      <point x="1106" y="669" type="curve"/>
      <point x="1106" y="728"/>
      <point x="1051" y="796"/>
      <point x="993" y="866" type="curve"/>
      <point x="936" y="935"/>
      <point x="878" y="1014"/>
      <point x="878" y="1093" type="curve"/>
      <point x="878" y="1164"/>
      <point x="895" y="1240"/>
      <point x="933" y="1240" type="curve"/>
      <point x="940" y="1240"/>
      <point x="948" y="1236"/>
      <point x="952" y="1229" type="curve"/>
      <point x="929" y="1204"/>
      <point x="922" y="1178"/>
      <point x="922" y="1153" type="curve"/>
      <point x="922" y="1089"/>
      <point x="977" y="1040"/>
      <point x="1052" y="1040" type="curve"/>
      <point x="1123" y="1040"/>
      <point x="1182" y="1078"/>
      <point x="1182" y="1178" type="curve"/>
      <point x="1182" y="1280"/>
      <point x="1095" y="1359"/>
      <point x="973" y="1359" type="curve"/>
      <point x="801" y="1359"/>
      <point x="710" y="1250"/>
      <point x="710" y="1100" type="curve"/>
      <point x="710" y="1003"/>
      <point x="766" y="867"/>
      <point x="874" y="767" type="curve"/>
      <point x="824" y="774"/>
      <point x="731" y="778"/>
      <point x="706" y="778" type="curve"/>
      <point x="681" y="778"/>
      <point x="652" y="774"/>
      <point x="619" y="770" type="curve"/>
      <point x="591" y="767"/>
      <point x="520" y="759"/>
      <point x="509" y="759" type="curve" smooth="yes"/>
      <point x="442" y="759"/>
      <point x="396" y="974"/>
      <point x="396" y="1131" type="curve"/>
      <point x="396" y="1314"/>
      <point x="562" y="1490"/>
      <point x="717" y="1610" type="curve"/>
      <point x="877" y="1734"/>
      <point x="1092" y="1902"/>
      <point x="1092" y="2069" type="curve"/>
      <point x="1092" y="2214"/>
      <point x="1039" y="2275"/>
      <point x="941" y="2324" type="curve" smooth="yes"/>
      <point x="896" y="2346"/>
      <point x="841" y="2356"/>
      <point x="777" y="2360" type="curve"/>
      <point x="877" y="2309"/>
      <point x="907" y="2181"/>
      <point x="907" y="2109" type="curve"/>
      <point x="907" y="1960"/>
      <point x="734" y="1832"/>
      <point x="580" y="1716" type="curve"/>
      <point x="419" y="1595"/>
      <point x="208" y="1374"/>
    </contour>
    <contour>
      <point x="1084" y="-1200" type="line"/>
      <point x="1084" y="240" type="line"/>
      <point x="858" y="240" type="line"/>
      <point x="858" y="154"/>
      <point x="724" y="-105"/>
      <point x="589" y="-105" type="curve" smooth="yes"/>
      <point x="503" y="-105"/>
      <point x="503" y="4"/>
      <point x="503" y="38" type="curve"/>
      <point x="565" y="50"/>
      <point x="632" y="114"/>
      <point x="632" y="170" type="curve"/>
      <point x="632" y="225"/>
      <point x="592" y="278"/>
      <point x="483" y="278" type="curve"/>
      <point x="359" y="278"/>
      <point x="277" y="178"/>
      <point x="277" y="38" type="curve"/>
      <point x="277" y="-75"/>
      <point x="389" y="-217"/>
      <point x="554" y="-217" type="curve"/>
      <point x="689" y="-217"/>
      <point x="798" y="-116"/>
      <point x="858" y="-18" type="curve"/>
      <point x="858" y="-1200" type="line"/>
    </contour>
  </outline>
</glyph>
<glyph name="uni19E5" format="2">
  <advance width="1390"/>
  <unicode hex="19E5"/>
  <outline>
    <contour>
      <point x="208" y="1150" type="curve" smooth="yes"/>
      <point x="208" y="756"/>
      <point x="355" y="620"/>
      <point x="472" y="620" type="curve"/>
      <point x="506" y="620"/>
      <point x="551" y="627"/>
      <point x="591" y="634" type="curve"/>
      <point x="638" y="643"/>
      <point x="681" y="650"/>
      <point x="716" y="650" type="curve"/>
      <point x="783" y="650"/>
      <point x="862" y="640"/>
      <point x="927" y="630" type="curve"/>
      <point x="971" y="624"/>
      <point x="1006" y="620"/>
      <point x="1032" y="620" type="curve"/>
      <point x="1092" y="620"/>
      <point x="1106" y="653"/>
      <point x="1106" y="669" type="curve"/>
      <point x="1106" y="728"/>
      <point x="1051" y="796"/>
      <point x="993" y="866" type="curve"/>
      <point x="936" y="935"/>
      <point x="878" y="1014"/>
      <point x="878" y="1093" type="curve"/>
      <point x="878" y="1164"/>
      <point x="895" y="1240"/>
      <point x="933" y="1240" type="curve"/>
      <point x="940" y="1240"/>
      <point x="948" y="1236"/>
      <point x="952" y="1229" type="curve"/>
      <point x="929" y="1204"/>
      <point x="921" y="1178"/>
      <point x="921" y="1153" type="curve"/>
      <point x="921" y="1089"/>
      <point x="977" y="1040"/>
      <point x="1052" y="1040" type="curve"/>
      <point x="1123" y="1040"/>
      <point x="1182" y="1078"/>
      <point x="1182" y="1178" type="curve"/>
      <point x="1182" y="1280"/>
      <point x="1095" y="1359"/>
      <point x="973" y="1359" type="curve"/>
      <point x="801" y="1359"/>
      <point x="710" y="1250"/>
      <point x="710" y="1100" type="curve"/>
      <point x="710" y="1003"/>
      <point x="766" y="867"/>
      <point x="874" y="767" type="curve"/>
      <point x="824" y="774"/>
      <point x="731" y="778"/>
      <point x="706" y="778" type="curve"/>
      <point x="681" y="778"/>
      <point x="652" y="774"/>
      <point x="619" y="770" type="curve"/>
      <point x="591" y="767"/>
      <point x="520" y="759"/>
      <point x="509" y="759" type="curve" smooth="yes"/>
      <point x="450" y="759"/>
      <point x="396" y="974"/>
      <point x="396" y="1131" type="curve"/>
      <point x="396" y="1310"/>
      <point x="540" y="1494"/>
      <point x="612" y="1583" type="curve"/>
      <point x="627" y="1604"/>
      <point x="641" y="1622"/>
      <point x="645" y="1630" type="curve"/>
      <point x="978" y="1630"/>
      <point x="1164" y="1659"/>
      <point x="1164" y="1862" type="curve"/>
      <point x="1164" y="1902"/>
      <point x="1147" y="1956"/>
      <point x="1131" y="2005" type="curve"/>
      <point x="1117" y="2049"/>
      <point x="1103" y="2094"/>
      <point x="1103" y="2131" type="curve"/>
      <point x="1103" y="2222"/>
      <point x="1136" y="2301"/>
      <point x="1218" y="2301" type="curve"/>
      <point x="1193" y="2328"/>
      <point x="1164" y="2360"/>
      <point x="1077" y="2360" type="curve"/>
      <point x="985" y="2360"/>
      <point x="930" y="2249"/>
      <point x="930" y="2128" type="curve"/>
      <point x="930" y="2084"/>
      <point x="941" y="2038"/>
      <point x="953" y="1998" type="curve"/>
      <point x="964" y="1952"/>
      <point x="974" y="1911"/>
      <point x="974" y="1866" type="curve"/>
      <point x="974" y="1779"/>
      <point x="841" y="1765"/>
      <point x="719" y="1765" type="curve"/>
      <point x="731" y="1791"/>
      <point x="734" y="1824"/>
      <point x="734" y="1836" type="curve"/>
      <point x="734" y="1956"/>
      <point x="638" y="2060"/>
      <point x="509" y="2060" type="curve"/>
      <point x="383" y="2060"/>
      <point x="284" y="1956"/>
      <point x="284" y="1836" type="curve"/>
      <point x="284" y="1741"/>
      <point x="340" y="1679"/>
      <point x="438" y="1630" type="curve"/>
      <point x="408" y="1600"/>
      <point x="208" y="1351"/>
    </contour>
    <contour>
      <point x="454" y="1836" type="curve" smooth="yes"/>
      <point x="454" y="1877"/>
      <point x="480" y="1911"/>
      <point x="509" y="1911" type="curve"/>
      <point x="540" y="1911"/>
      <point x="566" y="1877"/>
      <point x="566" y="1836" type="curve"/>
      <point x="566" y="1794"/>
      <point x="540" y="1762"/>
      <point x="509" y="1762" type="curve"/>
      <point x="480" y="1762"/>
      <point x="454" y="1794"/>
    </contour>
    <contour>
      <point x="1084" y="-1200" type="line"/>
      <point x="1084" y="240" type="line"/>
      <point x="858" y="240" type="line"/>
      <point x="858" y="154"/>
      <point x="724" y="-105"/>
      <point x="589" y="-105" type="curve" smooth="yes"/>
      <point x="503" y="-105"/>
      <point x="503" y="4"/>
      <point x="503" y="38" type="curve"/>
      <point x="565" y="50"/>
      <point x="632" y="114"/>
      <point x="632" y="170" type="curve"/>
      <point x="632" y="225"/>
      <point x="592" y="278"/>
      <point x="483" y="278" type="curve"/>
      <point x="359" y="278"/>
      <point x="277" y="178"/>
      <point x="277" y="38" type="curve"/>
      <point x="277" y="-75"/>
      <point x="389" y="-217"/>
      <point x="554" y="-217" type="curve"/>
      <point x="689" y="-217"/>
      <point x="798" y="-116"/>
      <point x="858" y="-18" type="curve"/>
      <point x="858" y="-1200" type="line"/>
    </contour>
  </outline>
</glyph>
<glyph name="uni19EB" format="2">
  <advance width="2660"/>
  <unicode hex="19EB"/>
  <outline>
    <contour>
      <point x="640" y="1229" type="curve" smooth="yes"/>
      <point x="776" y="1229"/>
      <point x="899" y="1329"/>
      <point x="899" y="1461" type="curve"/>
      <point x="899" y="1562"/>
      <point x="836" y="1615"/>
      <point x="751" y="1615" type="curve"/>
      <point x="665" y="1615"/>
      <point x="643" y="1566"/>
      <point x="643" y="1536" type="curve"/>
      <point x="643" y="1494"/>
      <point x="663" y="1457"/>
      <point x="731" y="1457" type="curve"/>
      <point x="731" y="1400"/>
      <point x="689" y="1359"/>
      <point x="644" y="1359" type="curve"/>
      <point x="535" y="1359"/>
      <point x="466" y="1472"/>
      <point x="466" y="1604" type="curve"/>
      <point x="466" y="1817"/>
      <point x="606" y="1932"/>
      <point x="748" y="1932" type="curve"/>
      <point x="914" y="1932"/>
      <point x="1066" y="1776"/>
      <point x="1066" y="1378" type="curve"/>
      <point x="1066" y="1052"/>
      <point x="815" y="692"/>
      <point x="486" y="692" type="curve"/>
      <point x="463" y="692"/>
      <point x="446" y="692"/>
      <point x="425" y="695" type="curve"/>
      <point x="471" y="646"/>
      <point x="550" y="620"/>
      <point x="632" y="620" type="curve"/>
      <point x="921" y="620"/>
      <point x="1254" y="965"/>
      <point x="1254" y="1397" type="curve"/>
      <point x="1254" y="1858"/>
      <point x="1000" y="2060"/>
      <point x="748" y="2060" type="curve"/>
      <point x="474" y="2060"/>
      <point x="286" y="1876"/>
      <point x="286" y="1640" type="curve"/>
      <point x="286" y="1415"/>
      <point x="418" y="1229"/>
    </contour>
    <contour>
      <point x="1780" y="1229" type="curve" smooth="yes"/>
      <point x="1916" y="1229"/>
      <point x="2039" y="1329"/>
      <point x="2039" y="1461" type="curve"/>
      <point x="2039" y="1562"/>
      <point x="1976" y="1615"/>
      <point x="1891" y="1615" type="curve"/>
      <point x="1805" y="1615"/>
      <point x="1783" y="1566"/>
      <point x="1783" y="1536" type="curve"/>
      <point x="1783" y="1494"/>
      <point x="1803" y="1457"/>
      <point x="1871" y="1457" type="curve"/>
      <point x="1871" y="1400"/>
      <point x="1829" y="1359"/>
      <point x="1784" y="1359" type="curve"/>
      <point x="1675" y="1359"/>
      <point x="1606" y="1472"/>
      <point x="1606" y="1604" type="curve"/>
      <point x="1606" y="1817"/>
      <point x="1746" y="1932"/>
      <point x="1888" y="1932" type="curve"/>
      <point x="2054" y="1932"/>
      <point x="2206" y="1776"/>
      <point x="2206" y="1378" type="curve"/>
      <point x="2206" y="1052"/>
      <point x="1955" y="692"/>
      <point x="1626" y="692" type="curve"/>
      <point x="1603" y="692"/>
      <point x="1586" y="692"/>
      <point x="1565" y="695" type="curve"/>
      <point x="1611" y="646"/>
      <point x="1690" y="620"/>
      <point x="1772" y="620" type="curve"/>
      <point x="2061" y="620"/>
      <point x="2394" y="965"/>
      <point x="2394" y="1397" type="curve"/>
      <point x="2394" y="1858"/>
      <point x="2140" y="2060"/>
      <point x="1888" y="2060" type="curve"/>
      <point x="1614" y="2060"/>
      <point x="1426" y="1876"/>
      <point x="1426" y="1640" type="curve"/>
      <point x="1426" y="1415"/>
      <point x="1558" y="1229"/>
    </contour>
    <contour>
      <point x="1744" y="-1200" type="line"/>
      <point x="1744" y="240" type="line"/>
      <point x="1518" y="240" type="line"/>
      <point x="1518" y="154"/>
      <point x="1384" y="-105"/>
      <point x="1249" y="-105" type="curve" smooth="yes"/>
      <point x="1163" y="-105"/>
      <point x="1163" y="4"/>
      <point x="1163" y="38" type="curve"/>
      <point x="1225" y="50"/>
      <point x="1292" y="114"/>
      <point x="1292" y="170" type="curve"/>
      <point x="1292" y="225"/>
      <point x="1252" y="278"/>
      <point x="1143" y="278" type="curve"/>
      <point x="1019" y="278"/>
      <point x="937" y="178"/>
      <point x="937" y="38" type="curve"/>
      <point x="937" y="-75"/>
      <point x="1049" y="-217"/>
      <point x="1214" y="-217" type="curve"/>
      <point x="1349" y="-217"/>
      <point x="1458" y="-116"/>
      <point x="1518" y="-18" type="curve"/>
      <point x="1518" y="-1200" type="line"/>
    </contour>
  </outline>
</glyph>
<glyph name="uni19EC" format="2">
  <advance width="3200"/>
  <unicode hex="19EC"/>
  <outline>
    <contour>
      <point x="640" y="1229" type="curve" smooth="yes"/>
      <point x="776" y="1229"/>
      <point x="899" y="1329"/>
      <point x="899" y="1461" type="curve"/>
      <point x="899" y="1562"/>
      <point x="836" y="1615"/>
      <point x="751" y="1615" type="curve"/>
      <point x="665" y="1615"/>
      <point x="643" y="1566"/>
      <point x="643" y="1536" type="curve"/>
      <point x="643" y="1494"/>
      <point x="663" y="1457"/>
      <point x="731" y="1457" type="curve"/>
      <point x="731" y="1400"/>
      <point x="689" y="1359"/>
      <point x="644" y="1359" type="curve"/>
      <point x="535" y="1359"/>
      <point x="466" y="1472"/>
      <point x="466" y="1604" type="curve"/>
      <point x="466" y="1817"/>
      <point x="606" y="1932"/>
      <point x="748" y="1932" type="curve"/>
      <point x="914" y="1932"/>
      <point x="1066" y="1776"/>
      <point x="1066" y="1378" type="curve"/>
      <point x="1066" y="1052"/>
      <point x="815" y="692"/>
      <point x="486" y="692" type="curve"/>
      <point x="463" y="692"/>
      <point x="446" y="692"/>
      <point x="425" y="695" type="curve"/>
      <point x="471" y="646"/>
      <point x="550" y="620"/>
      <point x="632" y="620" type="curve"/>
      <point x="921" y="620"/>
      <point x="1254" y="965"/>
      <point x="1254" y="1397" type="curve"/>
      <point x="1254" y="1858"/>
      <point x="1000" y="2060"/>
      <point x="748" y="2060" type="curve"/>
      <point x="474" y="2060"/>
      <point x="286" y="1876"/>
      <point x="286" y="1640" type="curve"/>
      <point x="286" y="1415"/>
      <point x="418" y="1229"/>
    </contour>
    <contour>
      <point x="2659" y="823" type="line"/>
      <point x="2659" y="768"/>
      <point x="2353" y="731"/>
      <point x="2225" y="731" type="curve" smooth="yes"/>
      <point x="2097" y="731"/>
      <point x="1791" y="768"/>
      <point x="1791" y="823" type="curve" smooth="yes"/>
      <point x="1791" y="2005" type="line" smooth="yes"/>
      <point x="1791" y="2156"/>
      <point x="1711" y="2266"/>
      <point x="1663" y="2312" type="curve"/>
      <point x="1632" y="2338"/>
      <point x="1588" y="2363"/>
      <point x="1485" y="2363" type="curve" smooth="yes"/>
      <point x="1403" y="2363"/>
      <point x="1328" y="2295"/>
      <point x="1317" y="2252" type="curve"/>
      <point x="1388" y="2278"/>
      <point x="1417" y="2278"/>
      <point x="1441" y="2278" type="curve" smooth="yes"/>
      <point x="1557" y="2278"/>
      <point x="1603" y="2077"/>
      <point x="1603" y="1985" type="curve" smooth="yes"/>
      <point x="1603" y="784" type="line" smooth="yes"/>
      <point x="1603" y="684"/>
      <point x="1977" y="620"/>
      <point x="2225" y="620" type="curve" smooth="yes"/>
      <point x="2473" y="620"/>
      <point x="2847" y="684"/>
      <point x="2847" y="784" type="curve" smooth="yes"/>
      <point x="2847" y="1802" type="line" smooth="yes"/>
      <point x="2847" y="1862"/>
      <point x="2701" y="2060"/>
      <point x="2600" y="2060" type="curve" smooth="yes"/>
      <point x="2547" y="2060"/>
      <point x="2503" y="2016"/>
      <point x="2462" y="1970" type="curve" smooth="yes"/>
      <point x="2429" y="1933"/>
      <point x="2390" y="1896"/>
      <point x="2379" y="1896" type="curve" smooth="yes"/>
      <point x="2368" y="1896"/>
      <point x="2329" y="1933"/>
      <point x="2296" y="1970" type="curve" smooth="yes"/>
      <point x="2255" y="2016"/>
      <point x="2211" y="2060"/>
      <point x="2158" y="2060" type="curve" smooth="yes"/>
      <point x="2057" y="2060"/>
      <point x="1911" y="1862"/>
      <point x="1911" y="1802" type="curve" smooth="yes"/>
      <point x="1911" y="1219" type="line"/>
      <point x="1936" y="1156"/>
      <point x="2017" y="1140"/>
      <point x="2082" y="1140" type="curve"/>
      <point x="2248" y="1171"/>
      <point x="2326" y="1309"/>
      <point x="2326" y="1388" type="curve" smooth="yes"/>
      <point x="2326" y="1516"/>
      <point x="2226" y="1584"/>
      <point x="2099" y="1591" type="curve"/>
      <point x="2099" y="1765" type="line" smooth="yes"/>
      <point x="2099" y="1813"/>
      <point x="2155" y="1892"/>
      <point x="2180" y="1892" type="curve" smooth="yes"/>
      <point x="2184" y="1892"/>
      <point x="2220" y="1858"/>
      <point x="2252" y="1824" type="curve" smooth="yes"/>
      <point x="2289" y="1783"/>
      <point x="2330" y="1741"/>
      <point x="2379" y="1741" type="curve" smooth="yes"/>
      <point x="2428" y="1741"/>
      <point x="2469" y="1783"/>
      <point x="2506" y="1824" type="curve" smooth="yes"/>
      <point x="2538" y="1858"/>
      <point x="2574" y="1892"/>
      <point x="2578" y="1892" type="curve" smooth="yes"/>
      <point x="2603" y="1892"/>
      <point x="2659" y="1813"/>
      <point x="2659" y="1765" type="curve" smooth="yes"/>
    </contour>
    <contour>
      <point x="2204" y="1397" type="curve" smooth="yes"/>
      <point x="2204" y="1336"/>
      <point x="2150" y="1299"/>
      <point x="2099" y="1277" type="curve"/>
      <point x="2099" y="1485" type="line"/>
      <point x="2147" y="1478"/>
      <point x="2204" y="1447"/>
    </contour>
    <contour>
      <point x="1984" y="-1200" type="line"/>
      <point x="1984" y="240" type="line"/>
      <point x="1758" y="240" type="line"/>
      <point x="1758" y="154"/>
      <point x="1624" y="-105"/>
      <point x="1489" y="-105" type="curve" smooth="yes"/>
      <point x="1403" y="-105"/>
      <point x="1403" y="4"/>
      <point x="1403" y="38" type="curve"/>
      <point x="1465" y="50"/>
      <point x="1532" y="114"/>
      <point x="1532" y="170" type="curve"/>
      <point x="1532" y="225"/>
      <point x="1492" y="278"/>
      <point x="1383" y="278" type="curve"/>
      <point x="1259" y="278"/>
      <point x="1177" y="178"/>
      <point x="1177" y="38" type="curve"/>
      <point x="1177" y="-75"/>
      <point x="1289" y="-217"/>
      <point x="1454" y="-217" type="curve"/>
      <point x="1589" y="-217"/>
      <point x="1698" y="-116"/>
      <point x="1758" y="-18" type="curve"/>
      <point x="1758" y="-1200" type="line"/>
    </contour>
  </outline>
</glyph>
<glyph name="uni19EF" format="2">
  <advance width="2660"/>
  <unicode hex="19EF"/>
  <outline>
    <contour>
      <point x="640" y="1229" type="curve" smooth="yes"/>
      <point x="776" y="1229"/>
      <point x="899" y="1329"/>
      <point x="899" y="1461" type="curve"/>
      <point x="899" y="1562"/>
      <point x="836" y="1615"/>
      <point x="751" y="1615" type="curve"/>
      <point x="665" y="1615"/>
      <point x="643" y="1566"/>
      <point x="643" y="1536" type="curve"/>
      <point x="643" y="1494"/>
      <point x="663" y="1457"/>
      <point x="731" y="1457" type="curve"/>
      <point x="731" y="1400"/>
      <point x="689" y="1359"/>
      <point x="644" y="1359" type="curve"/>
      <point x="535" y="1359"/>
      <point x="466" y="1472"/>
      <point x="466" y="1604" type="curve"/>
      <point x="466" y="1817"/>
      <point x="606" y="1932"/>
      <point x="748" y="1932" type="curve"/>
      <point x="914" y="1932"/>
      <point x="1066" y="1776"/>
      <point x="1066" y="1378" type="curve"/>
      <point x="1066" y="1052"/>
      <point x="815" y="692"/>
      <point x="486" y="692" type="curve"/>
      <point x="463" y="692"/>
      <point x="446" y="692"/>
      <point x="425" y="695" type="curve"/>
      <point x="471" y="646"/>
      <point x="550" y="620"/>
      <point x="632" y="620" type="curve"/>
      <point x="921" y="620"/>
      <point x="1254" y="965"/>
      <point x="1254" y="1397" type="curve"/>
      <point x="1254" y="1858"/>
      <point x="1000" y="2060"/>
      <point x="748" y="2060" type="curve"/>
      <point x="474" y="2060"/>
      <point x="286" y="1876"/>
      <point x="286" y="1640" type="curve"/>
      <point x="286" y="1415"/>
      <point x="418" y="1229"/>
    </contour>
    <contour>
      <point x="1418" y="1150" type="curve" smooth="yes"/>
      <point x="1418" y="756"/>
      <point x="1565" y="620"/>
      <point x="1682" y="620" type="curve"/>
      <point x="1716" y="620"/>
      <point x="1761" y="627"/>
      <point x="1801" y="634" type="curve"/>
      <point x="1848" y="643"/>
      <point x="1891" y="650"/>
      <point x="1926" y="650" type="curve"/>
      <point x="1993" y="650"/>
      <point x="2072" y="640"/>
      <point x="2137" y="630" type="curve"/>
      <point x="2181" y="624"/>
      <point x="2216" y="620"/>
      <point x="2242" y="620" type="curve"/>
      <point x="2302" y="620"/>
      <point x="2316" y="653"/>
      <point x="2316" y="669" type="curve"/>
      <point x="2316" y="728"/>
      <point x="2261" y="796"/>
      <point x="2203" y="866" type="curve"/>
      <point x="2146" y="935"/>
      <point x="2088" y="1014"/>
      <point x="2088" y="1093" type="curve"/>
      <point x="2088" y="1164"/>
      <point x="2105" y="1240"/>
      <point x="2143" y="1240" type="curve"/>
      <point x="2150" y="1240"/>
      <point x="2158" y="1236"/>
      <point x="2162" y="1229" type="curve"/>
      <point x="2139" y="1204"/>
      <point x="2131" y="1178"/>
      <point x="2131" y="1153" type="curve"/>
      <point x="2131" y="1089"/>
      <point x="2187" y="1040"/>
      <point x="2262" y="1040" type="curve"/>
      <point x="2333" y="1040"/>
      <point x="2392" y="1078"/>
      <point x="2392" y="1178" type="curve"/>
      <point x="2392" y="1280"/>
      <point x="2305" y="1359"/>
      <point x="2183" y="1359" type="curve"/>
      <point x="2011" y="1359"/>
      <point x="1920" y="1250"/>
      <point x="1920" y="1100" type="curve"/>
      <point x="1920" y="1003"/>
      <point x="1976" y="867"/>
      <point x="2084" y="767" type="curve"/>
      <point x="2034" y="774"/>
      <point x="1941" y="778"/>
      <point x="1916" y="778" type="curve"/>
      <point x="1891" y="778"/>
      <point x="1862" y="774"/>
      <point x="1829" y="770" type="curve"/>
      <point x="1801" y="767"/>
      <point x="1730" y="759"/>
      <point x="1719" y="759" type="curve" smooth="yes"/>
      <point x="1660" y="759"/>
      <point x="1606" y="974"/>
      <point x="1606" y="1131" type="curve"/>
      <point x="1606" y="1310"/>
      <point x="1750" y="1494"/>
      <point x="1822" y="1583" type="curve"/>
      <point x="1837" y="1604"/>
      <point x="1851" y="1622"/>
      <point x="1855" y="1630" type="curve"/>
      <point x="2188" y="1630"/>
      <point x="2374" y="1659"/>
      <point x="2374" y="1862" type="curve"/>
      <point x="2374" y="1902"/>
      <point x="2357" y="1956"/>
      <point x="2341" y="2005" type="curve"/>
      <point x="2327" y="2049"/>
      <point x="2313" y="2094"/>
      <point x="2313" y="2131" type="curve"/>
      <point x="2313" y="2222"/>
      <point x="2346" y="2301"/>
      <point x="2428" y="2301" type="curve"/>
      <point x="2403" y="2328"/>
      <point x="2374" y="2360"/>
      <point x="2287" y="2360" type="curve"/>
      <point x="2195" y="2360"/>
      <point x="2140" y="2249"/>
      <point x="2140" y="2128" type="curve"/>
      <point x="2140" y="2084"/>
      <point x="2151" y="2038"/>
      <point x="2163" y="1998" type="curve"/>
      <point x="2174" y="1952"/>
      <point x="2184" y="1911"/>
      <point x="2184" y="1866" type="curve"/>
      <point x="2184" y="1779"/>
      <point x="2051" y="1765"/>
      <point x="1929" y="1765" type="curve"/>
      <point x="1941" y="1791"/>
      <point x="1944" y="1824"/>
      <point x="1944" y="1836" type="curve"/>
      <point x="1944" y="1956"/>
      <point x="1848" y="2060"/>
      <point x="1719" y="2060" type="curve"/>
      <point x="1593" y="2060"/>
      <point x="1494" y="1956"/>
      <point x="1494" y="1836" type="curve"/>
      <point x="1494" y="1741"/>
      <point x="1550" y="1679"/>
      <point x="1648" y="1630" type="curve"/>
      <point x="1618" y="1600"/>
      <point x="1418" y="1351"/>
    </contour>
    <contour>
      <point x="1664" y="1836" type="curve" smooth="yes"/>
      <point x="1664" y="1877"/>
      <point x="1690" y="1911"/>
      <point x="1719" y="1911" type="curve"/>
      <point x="1750" y="1911"/>
      <point x="1776" y="1877"/>
      <point x="1776" y="1836" type="curve"/>
      <point x="1776" y="1794"/>
      <point x="1750" y="1762"/>
      <point x="1719" y="1762" type="curve"/>
      <point x="1690" y="1762"/>
      <point x="1664" y="1794"/>
    </contour>
    <contour>
      <point x="1744" y="-1200" type="line"/>
      <point x="1744" y="240" type="line"/>
      <point x="1518" y="240" type="line"/>
      <point x="1518" y="154"/>
      <point x="1384" y="-105"/>
      <point x="1249" y="-105" type="curve" smooth="yes"/>
      <point x="1163" y="-105"/>
      <point x="1163" y="4"/>
      <point x="1163" y="38" type="curve"/>
      <point x="1225" y="50"/>
      <point x="1292" y="114"/>
      <point x="1292" y="170" type="curve"/>
      <point x="1292" y="225"/>
      <point x="1252" y="278"/>
      <point x="1143" y="278" type="curve"/>
      <point x="1019" y="278"/>
      <point x="937" y="178"/>
      <point x="937" y="38" type="curve"/>
      <point x="937" y="-75"/>
      <point x="1049" y="-217"/>
      <point x="1214" y="-217" type="curve"/>
      <point x="1349" y="-217"/>
      <point x="1458" y="-116"/>
      <point x="1518" y="-18" type="curve"/>
      <point x="1518" y="-1200" type="line"/>
    </contour>
  </outline>
</glyph>
<glyph name="uni19F1" format="2">
  <advance width="1390"/>
  <unicode hex="19F1"/>
  <outline>
    <contour>
      <point x="1084" y="619" type="line"/>
      <point x="1084" y="2059" type="line"/>
      <point x="858" y="2059" type="line"/>
      <point x="858" y="1973"/>
      <point x="724" y="1714"/>
      <point x="589" y="1714" type="curve" smooth="yes"/>
      <point x="503" y="1714"/>
      <point x="503" y="1823"/>
      <point x="503" y="1857" type="curve"/>
      <point x="565" y="1869"/>
      <point x="632" y="1933"/>
      <point x="632" y="1989" type="curve"/>
      <point x="632" y="2044"/>
      <point x="592" y="2097"/>
      <point x="483" y="2097" type="curve"/>
      <point x="359" y="2097"/>
      <point x="277" y="1997"/>
      <point x="277" y="1857" type="curve"/>
      <point x="277" y="1744"/>
      <point x="389" y="1602"/>
      <point x="554" y="1602" type="curve"/>
      <point x="689" y="1602"/>
      <point x="798" y="1703"/>
      <point x="858" y="1801" type="curve"/>
      <point x="858" y="619" type="line"/>
    </contour>
    <contour>
      <point x="570" y="-591" type="curve" smooth="yes"/>
      <point x="706" y="-591"/>
      <point x="829" y="-491"/>
      <point x="829" y="-359" type="curve"/>
      <point x="829" y="-258"/>
      <point x="766" y="-205"/>
      <point x="681" y="-205" type="curve"/>
      <point x="595" y="-205"/>
      <point x="573" y="-254"/>
      <point x="573" y="-284" type="curve"/>
      <point x="573" y="-326"/>
      <point x="593" y="-363"/>
      <point x="661" y="-363" type="curve"/>
      <point x="661" y="-420"/>
      <point x="619" y="-461"/>
      <point x="574" y="-461" type="curve"/>
      <point x="465" y="-461"/>
      <point x="396" y="-348"/>
      <point x="396" y="-216" type="curve"/>
      <point x="396" y="-3"/>
      <point x="536" y="112"/>
      <point x="678" y="112" type="curve"/>
      <point x="844" y="112"/>
      <point x="996" y="-44"/>
      <point x="996" y="-442" type="curve"/>
      <point x="996" y="-768"/>
      <point x="745" y="-1128"/>
      <point x="416" y="-1128" type="curve"/>
      <point x="393" y="-1128"/>
      <point x="376" y="-1128"/>
      <point x="355" y="-1125" type="curve"/>
      <point x="401" y="-1174"/>
      <point x="480" y="-1200"/>
      <point x="562" y="-1200" type="curve"/>
      <point x="851" y="-1200"/>
      <point x="1184" y="-855"/>
      <point x="1184" y="-423" type="curve"/>
      <point x="1184" y="38"/>
      <point x="930" y="240"/>
      <point x="678" y="240" type="curve"/>
      <point x="404" y="240"/>
      <point x="216" y="56"/>
      <point x="216" y="-180" type="curve"/>
      <point x="216" y="-405"/>
      <point x="348" y="-591"/>
    </contour>
  </outline>
</glyph>
<glyph name="uni19F6" format="2">
  <advance width="1390"/>
  <unicode hex="19F6"/>
  <outline>
    <contour>
      <point x="1084" y="620" type="line"/>
      <point x="1084" y="2060" type="line"/>
      <point x="858" y="2060" type="line"/>
      <point x="858" y="1974"/>
      <point x="724" y="1715"/>
      <point x="589" y="1715" type="curve" smooth="yes"/>
      <point x="503" y="1715"/>
      <point x="503" y="1824"/>
      <point x="503" y="1858" type="curve"/>
      <point x="565" y="1870"/>
      <point x="632" y="1934"/>
      <point x="632" y="1990" type="curve"/>
      <point x="632" y="2045"/>
      <point x="592" y="2098"/>
      <point x="483" y="2098" type="curve"/>
      <point x="359" y="2098"/>
      <point x="277" y="1998"/>
      <point x="277" y="1858" type="curve"/>
      <point x="277" y="1745"/>
      <point x="389" y="1603"/>
      <point x="554" y="1603" type="curve"/>
      <point x="689" y="1603"/>
      <point x="798" y="1704"/>
      <point x="858" y="1802" type="curve"/>
      <point x="858" y="620" type="line"/>
    </contour>
    <contour>
      <point x="1183" y="-480" type="curve" smooth="yes"/>
      <point x="1183" y="-29"/>
      <point x="955" y="240"/>
      <point x="733" y="240" type="curve"/>
      <point x="626" y="240"/>
      <point x="573" y="221"/>
      <point x="505" y="185" type="curve"/>
      <point x="547" y="249"/>
      <point x="583" y="318"/>
      <point x="583" y="397" type="curve"/>
      <point x="583" y="503"/>
      <point x="479" y="543"/>
      <point x="400" y="543" type="curve"/>
      <point x="314" y="543"/>
      <point x="246" y="479"/>
      <point x="207" y="397" type="curve"/>
      <point x="260" y="417"/>
      <point x="303" y="428"/>
      <point x="324" y="428" type="curve"/>
      <point x="378" y="428"/>
      <point x="411" y="390"/>
      <point x="411" y="349" type="curve"/>
      <point x="411" y="207"/>
      <point x="324" y="8"/>
      <point x="264" y="-86" type="curve"/>
      <point x="314" y="-71" type="line"/>
      <point x="396" y="38"/>
      <point x="573" y="106"/>
      <point x="718" y="106" type="curve" smooth="yes"/>
      <point x="884" y="106"/>
      <point x="995" y="-254"/>
      <point x="995" y="-480" type="curve"/>
      <point x="995" y="-780"/>
      <point x="840" y="-1068"/>
      <point x="669" y="-1068" type="curve"/>
      <point x="482" y="-1068"/>
      <point x="395" y="-840"/>
      <point x="395" y="-716" type="curve"/>
      <point x="395" y="-606"/>
      <point x="411" y="-495"/>
      <point x="490" y="-495" type="curve"/>
      <point x="497" y="-495"/>
      <point x="512" y="-502"/>
      <point x="515" y="-513" type="curve"/>
      <point x="497" y="-524"/>
      <point x="483" y="-559"/>
      <point x="483" y="-591" type="curve"/>
      <point x="483" y="-656"/>
      <point x="541" y="-706"/>
      <point x="616" y="-706" type="curve"/>
      <point x="699" y="-706"/>
      <point x="749" y="-659"/>
      <point x="749" y="-559" type="curve"/>
      <point x="749" y="-438"/>
      <point x="629" y="-374"/>
      <point x="528" y="-374" type="curve"/>
      <point x="307" y="-374"/>
      <point x="207" y="-559"/>
      <point x="207" y="-720" type="curve"/>
      <point x="207" y="-989"/>
      <point x="430" y="-1200"/>
      <point x="669" y="-1200" type="curve"/>
      <point x="937" y="-1200"/>
      <point x="1183" y="-904"/>
    </contour>
  </outline>
</glyph>
<glyph name="uni19FF" format="2">
  <advance width="2660"/>
  <unicode hex="19FF"/>
  <outline>
    <contour>
      <point x="1694" y="620" type="line"/>
      <point x="1694" y="2060" type="line"/>
      <point x="1468" y="2060" type="line"/>
      <point x="1468" y="1974"/>
      <point x="1334" y="1715"/>
      <point x="1199" y="1715" type="curve" smooth="yes"/>
      <point x="1113" y="1715"/>
      <point x="1113" y="1824"/>
      <point x="1113" y="1858" type="curve"/>
      <point x="1175" y="1870"/>
      <point x="1242" y="1934"/>
      <point x="1242" y="1990" type="curve"/>
      <point x="1242" y="2045"/>
      <point x="1202" y="2098"/>
      <point x="1093" y="2098" type="curve"/>
      <point x="969" y="2098"/>
      <point x="887" y="1998"/>
      <point x="887" y="1858" type="curve"/>
      <point x="887" y="1745"/>
      <point x="999" y="1603"/>
      <point x="1164" y="1603" type="curve"/>
      <point x="1299" y="1603"/>
      <point x="1408" y="1704"/>
      <point x="1468" y="1802" type="curve"/>
      <point x="1468" y="620" type="line"/>
    </contour>
    <contour>
      <point x="640" y="-591" type="curve" smooth="yes"/>
      <point x="776" y="-591"/>
      <point x="899" y="-491"/>
      <point x="899" y="-359" type="curve"/>
      <point x="899" y="-258"/>
      <point x="836" y="-205"/>
      <point x="751" y="-205" type="curve"/>
      <point x="665" y="-205"/>
      <point x="643" y="-254"/>
      <point x="643" y="-284" type="curve"/>
      <point x="643" y="-326"/>
      <point x="663" y="-363"/>
      <point x="731" y="-363" type="curve"/>
      <point x="731" y="-420"/>
      <point x="689" y="-461"/>
      <point x="644" y="-461" type="curve"/>
      <point x="535" y="-461"/>
      <point x="466" y="-348"/>
      <point x="466" y="-216" type="curve"/>
      <point x="466" y="-3"/>
      <point x="606" y="112"/>
      <point x="748" y="112" type="curve"/>
      <point x="914" y="112"/>
      <point x="1066" y="-44"/>
      <point x="1066" y="-442" type="curve"/>
      <point x="1066" y="-768"/>
      <point x="815" y="-1128"/>
      <point x="486" y="-1128" type="curve"/>
      <point x="463" y="-1128"/>
      <point x="446" y="-1128"/>
      <point x="425" y="-1125" type="curve"/>
      <point x="471" y="-1174"/>
      <point x="550" y="-1200"/>
      <point x="632" y="-1200" type="curve"/>
      <point x="921" y="-1200"/>
      <point x="1254" y="-855"/>
      <point x="1254" y="-423" type="curve"/>
      <point x="1254" y="38"/>
      <point x="1000" y="240"/>
      <point x="748" y="240" type="curve"/>
      <point x="474" y="240"/>
      <point x="286" y="56"/>
      <point x="286" y="-180" type="curve"/>
      <point x="286" y="-405"/>
      <point x="418" y="-591"/>
    </contour>
    <contour>
      <point x="1418" y="-670" type="curve" smooth="yes"/>
      <point x="1418" y="-1064"/>
      <point x="1565" y="-1200"/>
      <point x="1682" y="-1200" type="curve"/>
      <point x="1716" y="-1200"/>
      <point x="1761" y="-1193"/>
      <point x="1801" y="-1186" type="curve"/>
      <point x="1848" y="-1177"/>
      <point x="1891" y="-1170"/>
      <point x="1926" y="-1170" type="curve"/>
      <point x="1993" y="-1170"/>
      <point x="2072" y="-1180"/>
      <point x="2137" y="-1190" type="curve"/>
      <point x="2181" y="-1196"/>
      <point x="2216" y="-1200"/>
      <point x="2242" y="-1200" type="curve"/>
      <point x="2302" y="-1200"/>
      <point x="2316" y="-1167"/>
      <point x="2316" y="-1151" type="curve"/>
      <point x="2316" y="-1092"/>
      <point x="2261" y="-1024"/>
      <point x="2203" y="-954" type="curve"/>
      <point x="2146" y="-885"/>
      <point x="2088" y="-806"/>
      <point x="2088" y="-727" type="curve"/>
      <point x="2088" y="-656"/>
      <point x="2105" y="-580"/>
      <point x="2143" y="-580" type="curve"/>
      <point x="2150" y="-580"/>
      <point x="2158" y="-584"/>
      <point x="2162" y="-591" type="curve"/>
      <point x="2139" y="-616"/>
      <point x="2131" y="-642"/>
      <point x="2131" y="-667" type="curve"/>
      <point x="2131" y="-731"/>
      <point x="2187" y="-780"/>
      <point x="2262" y="-780" type="curve"/>
      <point x="2333" y="-780"/>
      <point x="2392" y="-742"/>
      <point x="2392" y="-642" type="curve"/>
      <point x="2392" y="-540"/>
      <point x="2305" y="-461"/>
      <point x="2183" y="-461" type="curve"/>
      <point x="2011" y="-461"/>
      <point x="1920" y="-570"/>
      <point x="1920" y="-720" type="curve"/>
      <point x="1920" y="-817"/>
      <point x="1976" y="-953"/>
      <point x="2084" y="-1053" type="curve"/>
      <point x="2034" y="-1046"/>
      <point x="1941" y="-1042"/>
      <point x="1916" y="-1042" type="curve"/>
      <point x="1891" y="-1042"/>
      <point x="1862" y="-1046"/>
      <point x="1829" y="-1050" type="curve"/>
      <point x="1801" y="-1053"/>
      <point x="1730" y="-1061"/>
      <point x="1719" y="-1061" type="curve" smooth="yes"/>
      <point x="1660" y="-1061"/>
      <point x="1606" y="-846"/>
      <point x="1606" y="-689" type="curve"/>
      <point x="1606" y="-510"/>
      <point x="1750" y="-326"/>
      <point x="1822" y="-237" type="curve"/>
      <point x="1837" y="-216"/>
      <point x="1851" y="-198"/>
      <point x="1855" y="-190" type="curve"/>
      <point x="2188" y="-190"/>
      <point x="2374" y="-161"/>
      <point x="2374" y="42" type="curve"/>
      <point x="2374" y="82"/>
      <point x="2357" y="136"/>
      <point x="2341" y="185" type="curve"/>
      <point x="2327" y="229"/>
      <point x="2313" y="274"/>
      <point x="2313" y="311" type="curve"/>
      <point x="2313" y="402"/>
      <point x="2346" y="481"/>
      <point x="2428" y="481" type="curve"/>
      <point x="2403" y="508"/>
      <point x="2374" y="540"/>
      <point x="2287" y="540" type="curve"/>
      <point x="2195" y="540"/>
      <point x="2140" y="429"/>
      <point x="2140" y="308" type="curve"/>
      <point x="2140" y="264"/>
      <point x="2151" y="218"/>
      <point x="2163" y="178" type="curve"/>
      <point x="2174" y="132"/>
      <point x="2184" y="91"/>
      <point x="2184" y="46" type="curve"/>
      <point x="2184" y="-41"/>
      <point x="2051" y="-55"/>
      <point x="1929" y="-55" type="curve"/>
      <point x="1941" y="-29"/>
      <point x="1944" y="4"/>
      <point x="1944" y="16" type="curve"/>
      <point x="1944" y="136"/>
      <point x="1848" y="240"/>
      <point x="1719" y="240" type="curve"/>
      <point x="1593" y="240"/>
      <point x="1494" y="136"/>
      <point x="1494" y="16" type="curve"/>
      <point x="1494" y="-79"/>
      <point x="1550" y="-141"/>
      <point x="1648" y="-190" type="curve"/>
      <point x="1618" y="-220"/>
      <point x="1418" y="-469"/>
    </contour>
    <contour>
      <point x="1664" y="16" type="curve" smooth="yes"/>
      <point x="1664" y="57"/>
      <point x="1690" y="91"/>
      <point x="1719" y="91" type="curve"/>
      <point x="1750" y="91"/>
      <point x="1776" y="57"/>
      <point x="1776" y="16" type="curve"/>
      <point x="1776" y="-26"/>
      <point x="1750" y="-58"/>
      <point x="1719" y="-58" type="curve"/>
      <point x="1690" y="-58"/>
      <point x="1664" y="-26"/>
    </contour>
  </outline>
</glyph>
<glyph name="emdash" format="2">
  <advance width="2115"/>
  <unicode hex="2014"/>
  <outline>
    <contour>
      <point x="2069" y="501" type="line"/>
      <point x="2069" y="580" type="line"/>
      <point x="41" y="580" type="line"/>
      <point x="41" y="501" type="line"/>
    </contour>
  </outline>
</glyph>
<glyph name="uni178017B6.space" format="2">
  <advance width="2204"/>
  <anchor x="1231" y="0" name="L1"/>
  <anchor x="1959" y="0" name="L2"/>
  <anchor x="1231" y="1440" name="U1"/>
  <anchor x="1959" y="1440" name="U2"/>
  <anchor x="763" y="0" name="lm"/>
  <anchor x="763" y="1440" name="um"/>
  <anchor x="1546" y="1440" name="um2"/>
  <outline>
    <contour>
      <point x="1285" y="1236" type="curve" smooth="yes"/>
      <point x="1354" y="1236"/>
      <point x="1661" y="1081"/>
      <point x="1732" y="1035" type="curve" smooth="yes"/>
      <point x="1749" y="1024"/>
      <point x="1771" y="1005"/>
      <point x="1771" y="980" type="curve" smooth="yes"/>
      <point x="1771" y="0" type="line"/>
      <point x="1959" y="0" type="line"/>
      <point x="1959" y="1043" type="line" smooth="yes"/>
      <point x="1959" y="1104"/>
      <point x="1927" y="1149"/>
      <point x="1862" y="1192" type="curve" smooth="yes"/>
      <point x="1804" y="1230"/>
      <point x="1413" y="1440"/>
      <point x="1341" y="1440" type="curve" smooth="yes"/>
      <point x="1229" y="1440"/>
      <point x="1190" y="1295"/>
      <point x="1180" y="1208" type="curve"/>
      <point x="1215" y="1232"/>
      <point x="1256" y="1236"/>
    </contour>
  </outline>
</glyph>
<glyph name="uni1781.pronounlig" format="2">
  <advance width="1358"/>
  <anchor x="1192" y="2083" name="U"/>
  <anchor x="681" y="2083" name="um"/>
  <outline>
    <contour>
      <point x="1055" y="-818" type="line"/>
      <point x="1044" y="-757"/>
      <point x="953" y="-739"/>
      <point x="882" y="-739" type="curve"/>
      <point x="811" y="-750"/>
      <point x="774" y="-768"/>
      <point x="774" y="-840" type="curve" smooth="yes"/>
      <point x="774" y="-878"/>
      <point x="803" y="-918"/>
      <point x="867" y="-925" type="curve"/>
      <point x="867" y="-1145" type="line" smooth="yes"/>
      <point x="867" y="-1192"/>
      <point x="860" y="-1219"/>
      <point x="828" y="-1231" type="curve"/>
      <point x="1001" y="-1231"/>
      <point x="1055" y="-1224"/>
      <point x="1055" y="-1139" type="curve" smooth="yes"/>
    </contour>
    <contour>
      <point x="434" y="1857" type="curve" smooth="yes"/>
      <point x="434" y="1732"/>
      <point x="545" y="1630"/>
      <point x="681" y="1630" type="curve" smooth="yes"/>
      <point x="817" y="1630"/>
      <point x="928" y="1732"/>
      <point x="928" y="1857" type="curve" smooth="yes"/>
      <point x="928" y="1982"/>
      <point x="817" y="2083"/>
      <point x="681" y="2083" type="curve" smooth="yes"/>
      <point x="545" y="2083"/>
      <point x="434" y="1982"/>
    </contour>
    <contour>
      <point x="602" y="1857" type="curve" smooth="yes"/>
      <point x="602" y="1897"/>
      <point x="638" y="1930"/>
      <point x="681" y="1930" type="curve" smooth="yes"/>
      <point x="724" y="1930"/>
      <point x="760" y="1897"/>
      <point x="760" y="1857" type="curve" smooth="yes"/>
      <point x="760" y="1816"/>
      <point x="724" y="1783"/>
      <point x="681" y="1783" type="curve" smooth="yes"/>
      <point x="638" y="1783"/>
      <point x="602" y="1816"/>
    </contour>
    <contour>
      <point x="873" y="-262" type="curve" smooth="yes"/>
      <point x="873" y="-332"/>
      <point x="937" y="-371"/>
      <point x="992" y="-375" type="curve"/>
      <point x="992" y="-401" type="line" smooth="yes"/>
      <point x="992" y="-461"/>
      <point x="937" y="-487"/>
      <point x="895" y="-487" type="curve" smooth="yes"/>
      <point x="823" y="-487"/>
      <point x="759" y="-418"/>
      <point x="689" y="-339" type="curve" smooth="yes"/>
      <point x="583" y="-218"/>
      <point x="524" y="-179"/>
      <point x="377" y="-179" type="curve" smooth="yes"/>
      <point x="189" y="-179"/>
      <point x="122" y="-364"/>
      <point x="122" y="-405" type="curve"/>
      <point x="200" y="-325"/>
      <point x="255" y="-288"/>
      <point x="334" y="-288" type="curve" smooth="yes"/>
      <point x="404" y="-288"/>
      <point x="517" y="-386"/>
      <point x="575" y="-458" type="curve"/>
      <point x="647" y="-537"/>
      <point x="736" y="-605"/>
      <point x="884" y="-605" type="curve" smooth="yes"/>
      <point x="1102" y="-605"/>
      <point x="1191" y="-484"/>
      <point x="1191" y="-303" type="curve" smooth="yes"/>
      <point x="1191" y="-203"/>
      <point x="1095" y="-150"/>
      <point x="1012" y="-150" type="curve" smooth="yes"/>
      <point x="938" y="-150"/>
      <point x="873" y="-199"/>
    </contour>
    <contour>
      <point x="1193" y="1024" type="curve" smooth="yes"/>
      <point x="1193" y="1295"/>
      <point x="982" y="1440"/>
      <point x="670" y="1440" type="curve" smooth="yes"/>
      <point x="474" y="1440"/>
      <point x="218" y="1332"/>
      <point x="218" y="1118" type="curve" smooth="yes"/>
      <point x="218" y="1016"/>
      <point x="254" y="949"/>
      <point x="333" y="888" type="curve"/>
      <point x="371" y="863"/>
      <point x="413" y="852"/>
      <point x="469" y="852" type="curve" smooth="yes"/>
      <point x="558" y="852"/>
      <point x="634" y="905"/>
      <point x="634" y="984" type="curve" smooth="yes"/>
      <point x="634" y="1039"/>
      <point x="581" y="1078"/>
      <point x="515" y="1078" type="curve" smooth="yes"/>
      <point x="473" y="1078"/>
      <point x="444" y="1067"/>
      <point x="417" y="1046" type="curve"/>
      <point x="410" y="1063"/>
      <point x="406" y="1088"/>
      <point x="406" y="1125" type="curve" smooth="yes"/>
      <point x="406" y="1231"/>
      <point x="518" y="1310"/>
      <point x="690" y="1310" type="curve" smooth="yes"/>
      <point x="870" y="1310"/>
      <point x="1005" y="1235"/>
      <point x="1005" y="1024" type="curve" smooth="yes"/>
      <point x="1005" y="720"/>
      <point x="371" y="467"/>
      <point x="218" y="425" type="curve"/>
      <point x="218" y="207"/>
      <point x="432" y="0"/>
      <point x="688" y="0" type="curve" smooth="yes"/>
      <point x="921" y="0"/>
      <point x="1035" y="60"/>
      <point x="1122" y="154" type="curve" smooth="yes"/>
      <point x="1186" y="222"/>
      <point x="1193" y="322"/>
      <point x="1193" y="375" type="curve" smooth="yes"/>
      <point x="1193" y="454"/>
      <point x="1129" y="558"/>
      <point x="1035" y="601" type="curve"/>
      <point x="1058" y="548"/>
      <point x="1065" y="491"/>
      <point x="1065" y="412" type="curve" smooth="yes"/>
      <point x="1065" y="222"/>
      <point x="868" y="130"/>
      <point x="706" y="130" type="curve" smooth="yes"/>
      <point x="546" y="130"/>
      <point x="457" y="232"/>
      <point x="426" y="322" type="curve"/>
      <point x="632" y="394"/>
      <point x="1193" y="676"/>
    </contour>
  </outline>
</glyph>
<glyph name="uni178217C5.right" format="2">
  <advance width="2204"/>
  <anchor x="1231" y="0" name="L1"/>
  <anchor x="1959" y="0" name="L2"/>
  <anchor x="1231" y="1440" name="U1"/>
  <anchor x="1959" y="1922" name="U2"/>
  <anchor x="763" y="0" name="ml"/>
  <anchor x="763" y="1440" name="um"/>
  <anchor x="1501" y="1922" name="um2"/>
  <outline>
    <contour>
      <point x="1868" y="1188" type="line"/>
      <point x="1924" y="1266"/>
      <point x="1959" y="1329"/>
      <point x="1959" y="1410" type="curve" smooth="yes"/>
      <point x="1959" y="1788" type="line" smooth="yes"/>
      <point x="1959" y="1858"/>
      <point x="1871" y="1922"/>
      <point x="1788" y="1922" type="curve" smooth="yes"/>
      <point x="1717" y="1922"/>
      <point x="1687" y="1908"/>
      <point x="1660" y="1893" type="curve"/>
      <point x="1735" y="1893"/>
      <point x="1771" y="1825"/>
      <point x="1771" y="1792" type="curve" smooth="yes"/>
      <point x="1771" y="1410" type="line" smooth="yes"/>
      <point x="1771" y="1355"/>
      <point x="1750" y="1313"/>
      <point x="1720" y="1270" type="curve"/>
    </contour>
    <contour>
      <point x="763" y="1030" type="curve" smooth="yes"/>
      <point x="567" y="1030"/>
      <point x="295" y="945"/>
      <point x="295" y="845" type="curve" smooth="yes"/>
      <point x="295" y="0" type="line"/>
      <point x="483" y="0" type="line"/>
      <point x="539" y="168"/>
      <point x="585" y="247"/>
      <point x="686" y="247" type="curve" smooth="yes"/>
      <point x="739" y="247"/>
      <point x="783" y="294"/>
      <point x="783" y="330" type="curve" smooth="yes"/>
      <point x="783" y="364"/>
      <point x="760" y="416"/>
      <point x="689" y="416" type="curve" smooth="yes"/>
      <point x="600" y="416"/>
      <point x="525" y="341"/>
      <point x="483" y="266" type="curve"/>
      <point x="483" y="827" type="line" smooth="yes"/>
      <point x="483" y="891"/>
      <point x="685" y="918"/>
      <point x="763" y="918" type="curve" smooth="yes"/>
      <point x="841" y="918"/>
      <point x="1043" y="891"/>
      <point x="1043" y="827" type="curve" smooth="yes"/>
      <point x="1043" y="0" type="line"/>
      <point x="1231" y="0" type="line"/>
      <point x="1231" y="845" type="line" smooth="yes"/>
      <point x="1231" y="945"/>
      <point x="959" y="1030"/>
    </contour>
    <contour>
      <point x="1321" y="1440" type="curve" smooth="yes"/>
      <point x="1277" y="1440"/>
      <point x="1226" y="1399"/>
      <point x="1186" y="1367" type="curve" smooth="yes"/>
      <point x="1157" y="1343"/>
      <point x="1099" y="1291"/>
      <point x="1071" y="1258" type="curve"/>
      <point x="992" y="1283"/>
      <point x="577" y="1440"/>
      <point x="513" y="1440" type="curve" smooth="yes"/>
      <point x="429" y="1440"/>
      <point x="166" y="1185"/>
      <point x="141" y="1081" type="curve" smooth="yes"/>
      <point x="140" y="1076"/>
      <point x="140" y="1055"/>
      <point x="140" y="1049" type="curve" smooth="yes"/>
      <point x="140" y="978"/>
      <point x="228" y="952"/>
      <point x="301" y="930" type="curve"/>
      <point x="462" y="1004" type="line"/>
      <point x="379" y="1020"/>
      <point x="300" y="1047"/>
      <point x="300" y="1104" type="curve" smooth="yes"/>
      <point x="300" y="1140"/>
      <point x="378" y="1217"/>
      <point x="408" y="1237" type="curve" smooth="yes"/>
      <point x="416" y="1243"/>
      <point x="432" y="1249"/>
      <point x="447" y="1249" type="curve" smooth="yes"/>
      <point x="516" y="1249"/>
      <point x="939" y="1071"/>
      <point x="1024" y="1071" type="curve" smooth="yes"/>
      <point x="1061" y="1071"/>
      <point x="1102" y="1103"/>
      <point x="1151" y="1152" type="curve" smooth="yes"/>
      <point x="1200" y="1201"/>
      <point x="1244" y="1246"/>
      <point x="1275" y="1246" type="curve" smooth="yes"/>
      <point x="1344" y="1246"/>
      <point x="1661" y="1091"/>
      <point x="1732" y="1045" type="curve" smooth="yes"/>
      <point x="1749" y="1034"/>
      <point x="1771" y="1015"/>
      <point x="1771" y="990" type="curve" smooth="yes"/>
      <point x="1771" y="0" type="line"/>
      <point x="1959" y="0" type="line"/>
      <point x="1959" y="1053" type="line" smooth="yes"/>
      <point x="1959" y="1114"/>
      <point x="1927" y="1159"/>
      <point x="1862" y="1202" type="curve" smooth="yes"/>
      <point x="1804" y="1240"/>
      <point x="1393" y="1440"/>
    </contour>
  </outline>
</glyph>
<glyph name="uni178317B6" format="2">
  <advance width="2696"/>
  <anchor x="1723" y="0" name="L1"/>
  <anchor x="2451" y="0" name="L2"/>
  <anchor x="1723" y="1440" name="U1"/>
  <anchor x="2451" y="1440" name="U2"/>
  <anchor x="1029" y="0" name="lm"/>
  <anchor x="1329" y="1440" name="um"/>
  <anchor x="1993" y="1440" name="um2"/>
  <outline>
    <contour>
      <point x="1535" y="883" type="line"/>
      <point x="1535" y="194" type="line" smooth="yes"/>
      <point x="1535" y="139"/>
      <point x="1415" y="112"/>
      <point x="1329" y="112" type="curve" smooth="yes"/>
      <point x="1243" y="112"/>
      <point x="1123" y="139"/>
      <point x="1123" y="194" type="curve" smooth="yes"/>
      <point x="1123" y="950" type="line" smooth="yes"/>
      <point x="1123" y="1015"/>
      <point x="984" y="1114"/>
      <point x="864" y="1154" type="curve" smooth="yes"/>
      <point x="862" y="1155"/>
      <point x="861" y="1156"/>
      <point x="861" y="1158" type="curve"/>
      <point x="861" y="1160" type="line"/>
      <point x="866" y="1183"/>
      <point x="881" y="1215"/>
      <point x="899" y="1227" type="curve" smooth="yes"/>
      <point x="907" y="1233"/>
      <point x="917" y="1236"/>
      <point x="927" y="1236" type="curve" smooth="yes"/>
      <point x="996" y="1236"/>
      <point x="1029" y="1165"/>
      <point x="1114" y="1165" type="curve" smooth="yes"/>
      <point x="1205" y="1165"/>
      <point x="1224" y="1260"/>
      <point x="1255" y="1346" type="curve"/>
      <point x="1232" y="1336"/>
      <point x="1208" y="1334"/>
      <point x="1185" y="1334" type="curve" smooth="yes"/>
      <point x="1130" y="1334"/>
      <point x="1045" y="1440"/>
      <point x="973" y="1440" type="curve" smooth="yes"/>
      <point x="889" y="1440"/>
      <point x="786" y="1185"/>
      <point x="761" y="1081" type="curve"/>
      <point x="761" y="1079" type="line"/>
      <point x="761" y="1075"/>
      <point x="763" y="1070"/>
      <point x="768" y="1069" type="curve" smooth="yes"/>
      <point x="873" y="1057"/>
      <point x="935" y="983"/>
      <point x="935" y="939" type="curve" smooth="yes"/>
      <point x="935" y="194" type="line" smooth="yes"/>
      <point x="935" y="139"/>
      <point x="815" y="112"/>
      <point x="729" y="112" type="curve" smooth="yes"/>
      <point x="643" y="112"/>
      <point x="523" y="139"/>
      <point x="523" y="194" type="curve" smooth="yes"/>
      <point x="523" y="1362" type="line"/>
      <point x="498" y="1425"/>
      <point x="417" y="1440"/>
      <point x="352" y="1440" type="curve"/>
      <point x="186" y="1409"/>
      <point x="108" y="1269"/>
      <point x="108" y="1170" type="curve" smooth="yes"/>
      <point x="108" y="1056"/>
      <point x="205" y="958"/>
      <point x="335" y="945" type="curve"/>
      <point x="335" y="187" type="line" smooth="yes"/>
      <point x="335" y="87"/>
      <point x="533" y="0"/>
      <point x="729" y="0" type="curve" smooth="yes"/>
      <point x="839" y="0"/>
      <point x="949" y="26"/>
      <point x="1028" y="68" type="curve"/>
      <point x="1103" y="26"/>
      <point x="1217" y="0"/>
      <point x="1329" y="0" type="curve" smooth="yes"/>
      <point x="1525" y="0"/>
      <point x="1723" y="87"/>
      <point x="1723" y="187" type="curve" smooth="yes"/>
      <point x="1723" y="874" type="line"/>
    </contour>
    <contour>
      <point x="230" y="1170" type="curve" smooth="yes"/>
      <point x="230" y="1241"/>
      <point x="284" y="1281"/>
      <point x="335" y="1303" type="curve"/>
      <point x="335" y="1032" type="line"/>
      <point x="269" y="1051"/>
      <point x="230" y="1117"/>
    </contour>
    <contour>
      <point x="1723" y="773" type="line"/>
      <point x="1723" y="950" type="line" smooth="yes"/>
      <point x="1723" y="1015"/>
      <point x="1584" y="1114"/>
      <point x="1464" y="1154" type="curve" smooth="yes"/>
      <point x="1462" y="1155"/>
      <point x="1460" y="1156"/>
      <point x="1460" y="1158" type="curve"/>
      <point x="1460" y="1159"/>
      <point x="1460" y="1159"/>
      <point x="1461" y="1160" type="curve"/>
      <point x="1520" y="1209"/>
      <point x="1771" y="1236"/>
      <point x="1867" y="1236" type="curve" smooth="yes"/>
      <point x="1936" y="1236"/>
      <point x="2153" y="1121"/>
      <point x="2224" y="1075" type="curve" smooth="yes"/>
      <point x="2241" y="1064"/>
      <point x="2263" y="1045"/>
      <point x="2263" y="1020" type="curve" smooth="yes"/>
      <point x="2263" y="0" type="line"/>
      <point x="2451" y="0" type="line"/>
      <point x="2451" y="1083" type="line" smooth="yes"/>
      <point x="2451" y="1144"/>
      <point x="2419" y="1189"/>
      <point x="2354" y="1232" type="curve" smooth="yes"/>
      <point x="2296" y="1270"/>
      <point x="1995" y="1440"/>
      <point x="1923" y="1440" type="curve" smooth="yes"/>
      <point x="1814" y="1440"/>
      <point x="1591" y="1397"/>
      <point x="1499" y="1302" type="curve" smooth="yes"/>
      <point x="1430" y="1231"/>
      <point x="1381" y="1165"/>
      <point x="1361" y="1081" type="curve"/>
      <point x="1361" y="1079" type="line"/>
      <point x="1361" y="1075"/>
      <point x="1363" y="1070"/>
      <point x="1368" y="1069" type="curve" smooth="yes"/>
      <point x="1473" y="1057"/>
      <point x="1535" y="983"/>
      <point x="1535" y="939" type="curve" smooth="yes"/>
      <point x="1535" y="784" type="line"/>
    </contour>
  </outline>
</glyph>
<glyph name="uni178417C5.right" format="2">
  <advance width="2244"/>
  <anchor x="1271" y="0" name="L1"/>
  <anchor x="1999" y="0" name="L2"/>
  <anchor x="1271" y="1440" name="U1"/>
  <anchor x="1999" y="1922" name="U2"/>
  <anchor x="803" y="0" name="lm"/>
  <anchor x="803" y="1743" name="um"/>
  <anchor x="1541" y="1922" name="um2"/>
  <outline>
    <contour>
      <point x="1565" y="1236" type="curve" smooth="yes"/>
      <point x="1614" y="1236"/>
      <point x="1737" y="1102"/>
      <point x="1779" y="1054" type="curve" smooth="yes"/>
      <point x="1792" y="1039"/>
      <point x="1811" y="1005"/>
      <point x="1811" y="980" type="curve" smooth="yes"/>
      <point x="1811" y="0" type="line"/>
      <point x="1999" y="0" type="line"/>
      <point x="1999" y="1043" type="line" smooth="yes"/>
      <point x="1999" y="1104"/>
      <point x="1978" y="1133"/>
      <point x="1927" y="1192" type="curve"/>
      <point x="1924" y="1194"/>
      <point x="1921" y="1198"/>
      <point x="1918" y="1202" type="curve"/>
      <point x="1968" y="1274"/>
      <point x="1999" y="1334"/>
      <point x="1999" y="1410" type="curve" smooth="yes"/>
      <point x="1999" y="1788" type="line" smooth="yes"/>
      <point x="1999" y="1858"/>
      <point x="1911" y="1922"/>
      <point x="1828" y="1922" type="curve" smooth="yes"/>
      <point x="1757" y="1922"/>
      <point x="1727" y="1908"/>
      <point x="1700" y="1893" type="curve"/>
      <point x="1775" y="1893"/>
      <point x="1811" y="1825"/>
      <point x="1811" y="1792" type="curve" smooth="yes"/>
      <point x="1811" y="1410" type="line" smooth="yes"/>
      <point x="1811" y="1378"/>
      <point x="1804" y="1350"/>
      <point x="1792" y="1324" type="curve"/>
      <point x="1725" y="1384"/>
      <point x="1653" y="1440"/>
      <point x="1621" y="1440" type="curve" smooth="yes"/>
      <point x="1450" y="1440"/>
      <point x="1314" y="1152"/>
      <point x="1223" y="968" type="curve"/>
      <point x="1194" y="997"/>
      <point x="1159" y="1024"/>
      <point x="1140" y="1035" type="curve"/>
      <point x="1206" y="1084"/>
      <point x="1240" y="1145"/>
      <point x="1240" y="1216" type="curve" smooth="yes"/>
      <point x="1240" y="1340"/>
      <point x="1130" y="1440"/>
      <point x="997" y="1440" type="curve" smooth="yes"/>
      <point x="861" y="1440"/>
      <point x="753" y="1340"/>
      <point x="753" y="1216" type="curve" smooth="yes"/>
      <point x="753" y="1148"/>
      <point x="782" y="1088"/>
      <point x="850" y="1035" type="curve"/>
      <point x="808" y="1010"/>
      <point x="760" y="1008"/>
      <point x="707" y="1008" type="curve" smooth="yes"/>
      <point x="624" y="1008"/>
      <point x="503" y="1088"/>
      <point x="503" y="1216" type="curve" smooth="yes"/>
      <point x="503" y="1278"/>
      <point x="531" y="1346"/>
      <point x="560" y="1410" type="curve" smooth="yes"/>
      <point x="588" y="1474"/>
      <point x="618" y="1541"/>
      <point x="618" y="1609" type="curve" smooth="yes"/>
      <point x="618" y="1679"/>
      <point x="550" y="1743"/>
      <point x="467" y="1743" type="curve" smooth="yes"/>
      <point x="396" y="1743"/>
      <point x="366" y="1729"/>
      <point x="339" y="1714" type="curve"/>
      <point x="414" y="1714"/>
      <point x="450" y="1646"/>
      <point x="450" y="1613" type="curve" smooth="yes"/>
      <point x="450" y="1549"/>
      <point x="418" y="1472"/>
      <point x="388" y="1400" type="curve" smooth="yes"/>
      <point x="359" y="1332"/>
      <point x="335" y="1268"/>
      <point x="335" y="1216" type="curve" smooth="yes"/>
      <point x="335" y="1050"/>
      <point x="516" y="896"/>
      <point x="725" y="896" type="curve" smooth="yes"/>
      <point x="808" y="896"/>
      <point x="940" y="931"/>
      <point x="993" y="956" type="curve"/>
      <point x="1033" y="938"/>
      <point x="1083" y="910"/>
      <point x="1083" y="870" type="curve" smooth="yes"/>
      <point x="1083" y="215" type="line" smooth="yes"/>
      <point x="1083" y="172"/>
      <point x="1078" y="150"/>
      <point x="1054" y="150" type="curve" smooth="yes"/>
      <point x="1043" y="150"/>
      <point x="984" y="191"/>
      <point x="913" y="247" type="curve" smooth="yes"/>
      <point x="877" y="275"/>
      <point x="839" y="300"/>
      <point x="803" y="300" type="curve" smooth="yes"/>
      <point x="767" y="300"/>
      <point x="729" y="275"/>
      <point x="693" y="247" type="curve" smooth="yes"/>
      <point x="622" y="191"/>
      <point x="563" y="150"/>
      <point x="552" y="150" type="curve" smooth="yes"/>
      <point x="528" y="150"/>
      <point x="523" y="172"/>
      <point x="523" y="215" type="curve" smooth="yes"/>
      <point x="523" y="822" type="line"/>
      <point x="498" y="885"/>
      <point x="417" y="900"/>
      <point x="352" y="900" type="curve"/>
      <point x="186" y="869"/>
      <point x="108" y="729"/>
      <point x="108" y="640" type="curve" smooth="yes"/>
      <point x="108" y="526"/>
      <point x="205" y="458"/>
      <point x="335" y="445" type="curve"/>
      <point x="335" y="68" type="line" smooth="yes"/>
      <point x="335" y="33"/>
      <point x="378" y="0"/>
      <point x="422" y="0" type="curve" smooth="yes"/>
      <point x="503" y="0" type="line" smooth="yes"/>
      <point x="556" y="0"/>
      <point x="621" y="46"/>
      <point x="653" y="72" type="curve" smooth="yes"/>
      <point x="723" y="128"/>
      <point x="777" y="168"/>
      <point x="803" y="168" type="curve" smooth="yes"/>
      <point x="829" y="168"/>
      <point x="883" y="128"/>
      <point x="953" y="72" type="curve" smooth="yes"/>
      <point x="985" y="46"/>
      <point x="1050" y="0"/>
      <point x="1103" y="0" type="curve" smooth="yes"/>
      <point x="1184" y="0" type="line" smooth="yes"/>
      <point x="1226" y="0"/>
      <point x="1271" y="33"/>
      <point x="1271" y="68" type="curve" smooth="yes"/>
      <point x="1271" y="884" type="line"/>
      <point x="1326" y="1005"/>
      <point x="1454" y="1236"/>
    </contour>
    <contour>
      <point x="921" y="1220" type="curve" smooth="yes"/>
      <point x="921" y="1275"/>
      <point x="952" y="1308"/>
      <point x="997" y="1308" type="curve" smooth="yes"/>
      <point x="1041" y="1308"/>
      <point x="1072" y="1275"/>
      <point x="1072" y="1220" type="curve" smooth="yes"/>
      <point x="1072" y="1171"/>
      <point x="1033" y="1138"/>
      <point x="997" y="1114" type="curve"/>
      <point x="958" y="1138"/>
      <point x="921" y="1171"/>
    </contour>
    <contour>
      <point x="230" y="640" type="curve" smooth="yes"/>
      <point x="230" y="701"/>
      <point x="284" y="741"/>
      <point x="335" y="763" type="curve"/>
      <point x="335" y="532" type="line"/>
      <point x="269" y="551"/>
      <point x="230" y="587"/>
    </contour>
  </outline>
</glyph>
<glyph name="uni178717B6" format="2">
  <advance width="2204"/>
  <anchor x="1231" y="0" name="L1"/>
  <anchor x="1959" y="0" name="L2"/>
  <anchor x="1231" y="1743" name="U1"/>
  <anchor x="1959" y="1440" name="U2"/>
  <anchor x="763" y="0" name="lm"/>
  <anchor x="763" y="1743" name="um"/>
  <anchor x="1572" y="1440" name="um2"/>
  <outline>
    <contour>
      <point x="1771" y="980" type="curve"/>
      <point x="1771" y="0" type="line"/>
      <point x="1959" y="0" type="line"/>
      <point x="1959" y="1043" type="line" smooth="yes"/>
      <point x="1959" y="1104"/>
      <point x="1938" y="1133"/>
      <point x="1887" y="1192" type="curve" smooth="yes"/>
      <point x="1845" y="1240"/>
      <point x="1643" y="1440"/>
      <point x="1581" y="1440" type="curve" smooth="yes"/>
      <point x="1408" y="1440"/>
      <point x="1138" y="1065"/>
      <point x="1046" y="910" type="curve" smooth="yes"/>
      <point x="1006" y="843"/>
      <point x="960" y="728"/>
      <point x="949" y="681" type="curve"/>
      <point x="949" y="679" type="line"/>
      <point x="949" y="675"/>
      <point x="951" y="671"/>
      <point x="956" y="669" type="curve"/>
      <point x="1001" y="657"/>
      <point x="1043" y="623"/>
      <point x="1043" y="579" type="curve" smooth="yes"/>
      <point x="1043" y="215" type="line" smooth="yes"/>
      <point x="1043" y="172"/>
      <point x="1038" y="150"/>
      <point x="1014" y="150" type="curve" smooth="yes"/>
      <point x="1003" y="150"/>
      <point x="944" y="191"/>
      <point x="873" y="247" type="curve" smooth="yes"/>
      <point x="837" y="275"/>
      <point x="799" y="300"/>
      <point x="763" y="300" type="curve" smooth="yes"/>
      <point x="727" y="300"/>
      <point x="689" y="275"/>
      <point x="653" y="247" type="curve" smooth="yes"/>
      <point x="582" y="191"/>
      <point x="523" y="150"/>
      <point x="512" y="150" type="curve" smooth="yes"/>
      <point x="488" y="150"/>
      <point x="483" y="172"/>
      <point x="483" y="215" type="curve" smooth="yes"/>
      <point x="483" y="1000" type="line"/>
      <point x="400" y="1016"/>
      <point x="300" y="1041"/>
      <point x="300" y="1104" type="curve" smooth="yes"/>
      <point x="300" y="1107" type="line" smooth="yes"/>
      <point x="300" y="1115"/>
      <point x="301" y="1136"/>
      <point x="311" y="1160" type="curve" smooth="yes"/>
      <point x="320" y="1182"/>
      <point x="351" y="1215"/>
      <point x="369" y="1227" type="curve" smooth="yes"/>
      <point x="377" y="1233"/>
      <point x="387" y="1236"/>
      <point x="397" y="1236" type="curve" smooth="yes"/>
      <point x="486" y="1236"/>
      <point x="789" y="1054"/>
      <point x="894" y="1054" type="curve" smooth="yes"/>
      <point x="1056" y="1054"/>
      <point x="1231" y="1186"/>
      <point x="1231" y="1374" type="curve" smooth="yes"/>
      <point x="1231" y="1468"/>
      <point x="1215" y="1519"/>
      <point x="1158" y="1602" type="curve" smooth="yes"/>
      <point x="1098" y="1689"/>
      <point x="1026" y="1743"/>
      <point x="930" y="1743" type="curve" smooth="yes"/>
      <point x="843" y="1743"/>
      <point x="813" y="1704"/>
      <point x="813" y="1658" type="curve" smooth="yes"/>
      <point x="813" y="1594"/>
      <point x="887" y="1550"/>
      <point x="951" y="1531" type="curve" smooth="yes"/>
      <point x="1092" y="1489"/>
      <point x="1111" y="1425"/>
      <point x="1111" y="1374" type="curve" smooth="yes"/>
      <point x="1111" y="1305"/>
      <point x="1040" y="1250"/>
      <point x="938" y="1250" type="curve" smooth="yes"/>
      <point x="859" y="1250"/>
      <point x="537" y="1440"/>
      <point x="443" y="1440" type="curve" smooth="yes"/>
      <point x="359" y="1440"/>
      <point x="166" y="1185"/>
      <point x="141" y="1081" type="curve" smooth="yes"/>
      <point x="140" y="1076"/>
      <point x="140" y="1055"/>
      <point x="140" y="1049" type="curve" smooth="yes"/>
      <point x="140" y="980"/>
      <point x="223" y="953"/>
      <point x="295" y="931" type="curve"/>
      <point x="295" y="68" type="line" smooth="yes"/>
      <point x="295" y="33"/>
      <point x="338" y="0"/>
      <point x="382" y="0" type="curve" smooth="yes"/>
      <point x="463" y="0" type="line" smooth="yes"/>
      <point x="516" y="0"/>
      <point x="581" y="46"/>
      <point x="613" y="72" type="curve" smooth="yes"/>
      <point x="683" y="128"/>
      <point x="737" y="168"/>
      <point x="763" y="168" type="curve" smooth="yes"/>
      <point x="789" y="168"/>
      <point x="843" y="128"/>
      <point x="913" y="72" type="curve" smooth="yes"/>
      <point x="945" y="46"/>
      <point x="1010" y="0"/>
      <point x="1063" y="0" type="curve" smooth="yes"/>
      <point x="1144" y="0" type="line" smooth="yes"/>
      <point x="1186" y="0"/>
      <point x="1231" y="33"/>
      <point x="1231" y="68" type="curve" smooth="yes"/>
      <point x="1231" y="590" type="line" smooth="yes"/>
      <point x="1231" y="655"/>
      <point x="1167" y="704"/>
      <point x="1077" y="744" type="curve" smooth="yes"/>
      <point x="1075" y="745"/>
      <point x="1074" y="746"/>
      <point x="1074" y="748" type="curve"/>
      <point x="1074" y="750" type="line"/>
      <point x="1081" y="774"/>
      <point x="1099" y="815"/>
      <point x="1124" y="858" type="curve" smooth="yes"/>
      <point x="1210" y="1006"/>
      <point x="1396" y="1236"/>
      <point x="1525" y="1236" type="curve" smooth="yes"/>
      <point x="1574" y="1236"/>
      <point x="1697" y="1102"/>
      <point x="1739" y="1054" type="curve" smooth="yes"/>
      <point x="1752" y="1039"/>
      <point x="1771" y="1005"/>
    </contour>
  </outline>
</glyph>
<glyph name="uni179217B6" format="2">
  <advance width="2204"/>
  <anchor x="1231" y="0" name="L1"/>
  <anchor x="1959" y="0" name="L2"/>
  <anchor x="1231" y="1440" name="U1"/>
  <anchor x="1959" y="1440" name="U2"/>
  <anchor x="763" y="0" name="lm"/>
  <anchor x="763" y="1440" name="um"/>
  <anchor x="1501" y="1440" name="um2"/>
  <outline>
    <contour>
      <point x="295" y="862" type="line"/>
      <point x="295" y="68" type="line" smooth="yes"/>
      <point x="295" y="33"/>
      <point x="338" y="0"/>
      <point x="382" y="0" type="curve" smooth="yes"/>
      <point x="463" y="0" type="line" smooth="yes"/>
      <point x="516" y="0"/>
      <point x="581" y="46"/>
      <point x="613" y="72" type="curve" smooth="yes"/>
      <point x="683" y="128"/>
      <point x="737" y="168"/>
      <point x="763" y="168" type="curve" smooth="yes"/>
      <point x="789" y="168"/>
      <point x="843" y="128"/>
      <point x="913" y="72" type="curve" smooth="yes"/>
      <point x="945" y="46"/>
      <point x="1010" y="0"/>
      <point x="1063" y="0" type="curve" smooth="yes"/>
      <point x="1144" y="0" type="line" smooth="yes"/>
      <point x="1186" y="0"/>
      <point x="1231" y="33"/>
      <point x="1231" y="68" type="curve" smooth="yes"/>
      <point x="1231" y="822" type="line"/>
      <point x="1206" y="885"/>
      <point x="1125" y="900"/>
      <point x="1060" y="900" type="curve"/>
      <point x="894" y="869"/>
      <point x="816" y="729"/>
      <point x="816" y="640" type="curve" smooth="yes"/>
      <point x="816" y="526"/>
      <point x="913" y="458"/>
      <point x="1043" y="445" type="curve"/>
      <point x="1043" y="215" type="line" smooth="yes"/>
      <point x="1043" y="172"/>
      <point x="1038" y="150"/>
      <point x="1014" y="150" type="curve" smooth="yes"/>
      <point x="1003" y="150"/>
      <point x="944" y="191"/>
      <point x="873" y="247" type="curve" smooth="yes"/>
      <point x="837" y="275"/>
      <point x="799" y="300"/>
      <point x="763" y="300" type="curve" smooth="yes"/>
      <point x="727" y="300"/>
      <point x="689" y="275"/>
      <point x="653" y="247" type="curve" smooth="yes"/>
      <point x="582" y="191"/>
      <point x="523" y="150"/>
      <point x="512" y="150" type="curve" smooth="yes"/>
      <point x="488" y="150"/>
      <point x="483" y="172"/>
      <point x="483" y="215" type="curve" smooth="yes"/>
      <point x="483" y="862" type="line"/>
    </contour>
    <contour>
      <point x="938" y="640" type="curve" smooth="yes"/>
      <point x="938" y="701"/>
      <point x="992" y="741"/>
      <point x="1043" y="763" type="curve"/>
      <point x="1043" y="532" type="line"/>
      <point x="977" y="551"/>
      <point x="938" y="587"/>
    </contour>
    <contour>
      <point x="483" y="534" type="line"/>
      <point x="483" y="1000" type="line"/>
      <point x="381" y="1017"/>
      <point x="300" y="1047"/>
      <point x="300" y="1104" type="curve" smooth="yes"/>
      <point x="300" y="1140"/>
      <point x="378" y="1217"/>
      <point x="408" y="1237" type="curve" smooth="yes"/>
      <point x="416" y="1243"/>
      <point x="432" y="1249"/>
      <point x="447" y="1249" type="curve" smooth="yes"/>
      <point x="516" y="1249"/>
      <point x="939" y="1071"/>
      <point x="1024" y="1071" type="curve" smooth="yes"/>
      <point x="1061" y="1071"/>
      <point x="1102" y="1103"/>
      <point x="1151" y="1152" type="curve" smooth="yes"/>
      <point x="1200" y="1201"/>
      <point x="1244" y="1246"/>
      <point x="1275" y="1246" type="curve" smooth="yes"/>
      <point x="1344" y="1246"/>
      <point x="1661" y="1091"/>
      <point x="1732" y="1045" type="curve" smooth="yes"/>
      <point x="1749" y="1034"/>
      <point x="1771" y="1015"/>
      <point x="1771" y="990" type="curve" smooth="yes"/>
      <point x="1771" y="0" type="line"/>
      <point x="1959" y="0" type="line"/>
      <point x="1959" y="1053" type="line" smooth="yes"/>
      <point x="1959" y="1114"/>
      <point x="1927" y="1159"/>
      <point x="1862" y="1202" type="curve" smooth="yes"/>
      <point x="1804" y="1240"/>
      <point x="1393" y="1440"/>
      <point x="1321" y="1440" type="curve" smooth="yes"/>
      <point x="1277" y="1440"/>
      <point x="1226" y="1399"/>
      <point x="1186" y="1367" type="curve" smooth="yes"/>
      <point x="1157" y="1343"/>
      <point x="1099" y="1291"/>
      <point x="1071" y="1258" type="curve"/>
      <point x="992" y="1283"/>
      <point x="577" y="1440"/>
      <point x="513" y="1440" type="curve" smooth="yes"/>
      <point x="429" y="1440"/>
      <point x="166" y="1185"/>
      <point x="141" y="1081" type="curve" smooth="yes"/>
      <point x="140" y="1076"/>
      <point x="140" y="1060"/>
      <point x="140" y="1049" type="curve" smooth="yes"/>
      <point x="140" y="983"/>
      <point x="230" y="951"/>
      <point x="295" y="930" type="curve"/>
      <point x="295" y="538" type="line"/>
    </contour>
  </outline>
</glyph>
<glyph name="uni179517C5.right" format="2">
  <advance width="2204"/>
  <anchor x="1231" y="0" name="L1"/>
  <anchor x="1959" y="0" name="L2"/>
  <anchor x="1231" y="1743" name="U1"/>
  <anchor x="1959" y="1922" name="U2"/>
  <anchor x="763" y="0" name="lm"/>
  <anchor x="763" y="1743" name="um"/>
  <anchor x="1501" y="1922" name="um2"/>
  <outline>
    <contour>
      <point x="1231" y="820" type="line"/>
      <point x="1285" y="963"/>
      <point x="1408" y="1236"/>
      <point x="1525" y="1236" type="curve" smooth="yes"/>
      <point x="1574" y="1236"/>
      <point x="1697" y="1102"/>
      <point x="1739" y="1054" type="curve" smooth="yes"/>
      <point x="1752" y="1039"/>
      <point x="1771" y="1005"/>
      <point x="1771" y="980" type="curve" smooth="yes"/>
      <point x="1771" y="0" type="line"/>
      <point x="1959" y="0" type="line"/>
      <point x="1959" y="1043" type="line" smooth="yes"/>
      <point x="1959" y="1104"/>
      <point x="1938" y="1133"/>
      <point x="1887" y="1192" type="curve"/>
      <point x="1884" y="1194"/>
      <point x="1881" y="1198"/>
      <point x="1878" y="1202" type="curve"/>
      <point x="1928" y="1274"/>
      <point x="1959" y="1334"/>
      <point x="1959" y="1410" type="curve" smooth="yes"/>
      <point x="1959" y="1788" type="line" smooth="yes"/>
      <point x="1959" y="1858"/>
      <point x="1871" y="1922"/>
      <point x="1788" y="1922" type="curve" smooth="yes"/>
      <point x="1717" y="1922"/>
      <point x="1687" y="1908"/>
      <point x="1660" y="1893" type="curve"/>
      <point x="1735" y="1893"/>
      <point x="1771" y="1825"/>
      <point x="1771" y="1792" type="curve" smooth="yes"/>
      <point x="1771" y="1410" type="line" smooth="yes"/>
      <point x="1771" y="1378"/>
      <point x="1764" y="1350"/>
      <point x="1752" y="1324" type="curve"/>
      <point x="1685" y="1384"/>
      <point x="1613" y="1440"/>
      <point x="1581" y="1440" type="curve" smooth="yes"/>
      <point x="1386" y="1440"/>
      <point x="1257" y="1061"/>
      <point x="1176" y="878" type="curve"/>
      <point x="1141" y="895"/>
      <point x="1098" y="900"/>
      <point x="1060" y="900" type="curve"/>
      <point x="894" y="869"/>
      <point x="816" y="729"/>
      <point x="816" y="640" type="curve" smooth="yes"/>
      <point x="816" y="526"/>
      <point x="913" y="458"/>
      <point x="1043" y="445" type="curve"/>
      <point x="1043" y="215" type="line" smooth="yes"/>
      <point x="1043" y="172"/>
      <point x="1038" y="150"/>
      <point x="1014" y="150" type="curve" smooth="yes"/>
      <point x="1003" y="150"/>
      <point x="944" y="191"/>
      <point x="873" y="247" type="curve" smooth="yes"/>
      <point x="837" y="275"/>
      <point x="799" y="300"/>
      <point x="763" y="300" type="curve" smooth="yes"/>
      <point x="727" y="300"/>
      <point x="689" y="275"/>
      <point x="653" y="247" type="curve" smooth="yes"/>
      <point x="582" y="191"/>
      <point x="523" y="150"/>
      <point x="512" y="150" type="curve" smooth="yes"/>
      <point x="488" y="150"/>
      <point x="483" y="172"/>
      <point x="483" y="215" type="curve" smooth="yes"/>
      <point x="483" y="1000" type="line"/>
      <point x="400" y="1016"/>
      <point x="300" y="1041"/>
      <point x="300" y="1104" type="curve" smooth="yes"/>
      <point x="300" y="1107" type="line" smooth="yes"/>
      <point x="300" y="1115"/>
      <point x="301" y="1136"/>
      <point x="311" y="1160" type="curve" smooth="yes"/>
      <point x="320" y="1182"/>
      <point x="351" y="1215"/>
      <point x="369" y="1227" type="curve" smooth="yes"/>
      <point x="377" y="1233"/>
      <point x="387" y="1236"/>
      <point x="397" y="1236" type="curve" smooth="yes"/>
      <point x="486" y="1236"/>
      <point x="789" y="1054"/>
      <point x="894" y="1054" type="curve" smooth="yes"/>
      <point x="1056" y="1054"/>
      <point x="1231" y="1186"/>
      <point x="1231" y="1374" type="curve" smooth="yes"/>
      <point x="1231" y="1468"/>
      <point x="1215" y="1519"/>
      <point x="1158" y="1602" type="curve" smooth="yes"/>
      <point x="1098" y="1689"/>
      <point x="1026" y="1743"/>
      <point x="930" y="1743" type="curve" smooth="yes"/>
      <point x="843" y="1743"/>
      <point x="813" y="1704"/>
      <point x="813" y="1658" type="curve" smooth="yes"/>
      <point x="813" y="1594"/>
      <point x="887" y="1550"/>
      <point x="951" y="1531" type="curve" smooth="yes"/>
      <point x="1092" y="1489"/>
      <point x="1111" y="1425"/>
      <point x="1111" y="1374" type="curve" smooth="yes"/>
      <point x="1111" y="1305"/>
      <point x="1040" y="1250"/>
      <point x="938" y="1250" type="curve" smooth="yes"/>
      <point x="859" y="1250"/>
      <point x="537" y="1440"/>
      <point x="443" y="1440" type="curve" smooth="yes"/>
      <point x="359" y="1440"/>
      <point x="166" y="1185"/>
      <point x="141" y="1081" type="curve" smooth="yes"/>
      <point x="140" y="1076"/>
      <point x="140" y="1055"/>
      <point x="140" y="1049" type="curve" smooth="yes"/>
      <point x="140" y="980"/>
      <point x="223" y="953"/>
      <point x="295" y="931" type="curve"/>
      <point x="295" y="68" type="line" smooth="yes"/>
      <point x="295" y="33"/>
      <point x="338" y="0"/>
      <point x="382" y="0" type="curve" smooth="yes"/>
      <point x="463" y="0" type="line" smooth="yes"/>
      <point x="516" y="0"/>
      <point x="581" y="46"/>
      <point x="613" y="72" type="curve" smooth="yes"/>
      <point x="683" y="128"/>
      <point x="737" y="168"/>
      <point x="763" y="168" type="curve" smooth="yes"/>
      <point x="789" y="168"/>
      <point x="843" y="128"/>
      <point x="913" y="72" type="curve" smooth="yes"/>
      <point x="945" y="46"/>
      <point x="1010" y="0"/>
      <point x="1063" y="0" type="curve" smooth="yes"/>
      <point x="1144" y="0" type="line" smooth="yes"/>
      <point x="1186" y="0"/>
      <point x="1231" y="33"/>
      <point x="1231" y="68" type="curve" smooth="yes"/>
    </contour>
    <contour>
      <point x="938" y="640" type="curve" smooth="yes"/>
      <point x="938" y="701"/>
      <point x="992" y="741"/>
      <point x="1043" y="763" type="curve"/>
      <point x="1043" y="532" type="line"/>
      <point x="977" y="551"/>
      <point x="938" y="587"/>
    </contour>
  </outline>
</glyph>
<glyph name="uni179A17B6" format="2">
  <advance width="1496"/>
  <anchor x="1251" y="0" name="L2"/>
  <anchor x="523" y="1440" name="U1"/>
  <anchor x="1251" y="1440" name="U2"/>
  <anchor x="372" y="0" name="lm"/>
  <anchor x="399" y="1440" name="um"/>
  <anchor x="747" y="1440" name="um2"/>
  <outline>
    <contour>
      <point x="762" y="1236" type="curve" smooth="yes"/>
      <point x="831" y="1236"/>
      <point x="953" y="1131"/>
      <point x="1024" y="1075" type="curve" smooth="yes"/>
      <point x="1041" y="1062"/>
      <point x="1063" y="1045"/>
      <point x="1063" y="1020" type="curve" smooth="yes"/>
      <point x="1063" y="0" type="line"/>
      <point x="1251" y="0" type="line"/>
      <point x="1251" y="1083" type="line" smooth="yes"/>
      <point x="1251" y="1144"/>
      <point x="1215" y="1184"/>
      <point x="1154" y="1232" type="curve" smooth="yes"/>
      <point x="1096" y="1278"/>
      <point x="890" y="1440"/>
      <point x="818" y="1440" type="curve" smooth="yes"/>
      <point x="758" y="1440"/>
      <point x="712" y="1400"/>
      <point x="677" y="1349" type="curve" smooth="yes"/>
      <point x="667" y="1335"/>
      <point x="659" y="1334"/>
      <point x="649" y="1334" type="curve" smooth="yes"/>
      <point x="645" y="1334" type="line" smooth="yes"/>
      <point x="590" y="1334"/>
      <point x="445" y="1440"/>
      <point x="373" y="1440" type="curve" smooth="yes"/>
      <point x="289" y="1440"/>
      <point x="186" y="1185"/>
      <point x="161" y="1081" type="curve"/>
      <point x="161" y="1079" type="line"/>
      <point x="161" y="1075"/>
      <point x="163" y="1070"/>
      <point x="168" y="1069" type="curve" smooth="yes"/>
      <point x="273" y="1057"/>
      <point x="335" y="983"/>
      <point x="335" y="939" type="curve" smooth="yes"/>
      <point x="335" y="495" type="line"/>
      <point x="205" y="482"/>
      <point x="108" y="384"/>
      <point x="108" y="270" type="curve" smooth="yes"/>
      <point x="108" y="171"/>
      <point x="186" y="31"/>
      <point x="352" y="0" type="curve"/>
      <point x="417" y="0"/>
      <point x="498" y="15"/>
      <point x="523" y="78" type="curve"/>
      <point x="523" y="950" type="line" smooth="yes"/>
      <point x="523" y="1015"/>
      <point x="384" y="1114"/>
      <point x="264" y="1154" type="curve" smooth="yes"/>
      <point x="262" y="1155"/>
      <point x="261" y="1156"/>
      <point x="261" y="1158" type="curve"/>
      <point x="261" y="1160" type="line"/>
      <point x="266" y="1183"/>
      <point x="281" y="1215"/>
      <point x="299" y="1227" type="curve" smooth="yes"/>
      <point x="307" y="1233"/>
      <point x="317" y="1236"/>
      <point x="327" y="1236" type="curve" smooth="yes"/>
      <point x="396" y="1236"/>
      <point x="489" y="1165"/>
      <point x="574" y="1165" type="curve" smooth="yes"/>
      <point x="612" y="1165"/>
      <point x="633" y="1181"/>
      <point x="658" y="1208" type="curve" smooth="yes"/>
      <point x="677" y="1229"/>
      <point x="733" y="1236"/>
    </contour>
    <contour>
      <point x="230" y="270" type="curve" smooth="yes"/>
      <point x="230" y="323"/>
      <point x="269" y="389"/>
      <point x="335" y="408" type="curve"/>
      <point x="335" y="137" type="line"/>
      <point x="284" y="159"/>
      <point x="230" y="199"/>
    </contour>
  </outline>
</glyph>
<glyph name="uni17A217B6" format="2">
  <advance width="2176"/>
  <anchor x="1203" y="0" name="L1"/>
  <anchor x="1931" y="0" name="L2"/>
  <anchor x="1203" y="1440" name="U1"/>
  <anchor x="1931" y="1440" name="U2"/>
  <anchor x="769" y="0" name="lm"/>
  <anchor x="769" y="1440" name="um"/>
  <anchor x="1473" y="1440" name="um2"/>
  <outline>
    <contour>
      <point x="1015" y="917" type="line"/>
      <point x="1015" y="740" type="line"/>
      <point x="523" y="740" type="line"/>
      <point x="523" y="950" type="line" smooth="yes"/>
      <point x="523" y="1015"/>
      <point x="384" y="1114"/>
      <point x="264" y="1154" type="curve" smooth="yes"/>
      <point x="262" y="1155"/>
      <point x="261" y="1156"/>
      <point x="261" y="1158" type="curve"/>
      <point x="261" y="1160" type="line"/>
      <point x="266" y="1183"/>
      <point x="281" y="1215"/>
      <point x="299" y="1227" type="curve" smooth="yes"/>
      <point x="307" y="1233"/>
      <point x="317" y="1236"/>
      <point x="327" y="1236" type="curve" smooth="yes"/>
      <point x="396" y="1236"/>
      <point x="429" y="1165"/>
      <point x="514" y="1165" type="curve" smooth="yes"/>
      <point x="605" y="1165"/>
      <point x="624" y="1260"/>
      <point x="655" y="1346" type="curve"/>
      <point x="632" y="1336"/>
      <point x="608" y="1334"/>
      <point x="585" y="1334" type="curve" smooth="yes"/>
      <point x="530" y="1334"/>
      <point x="445" y="1440"/>
      <point x="373" y="1440" type="curve" smooth="yes"/>
      <point x="289" y="1440"/>
      <point x="186" y="1185"/>
      <point x="161" y="1081" type="curve"/>
      <point x="161" y="1079" type="line"/>
      <point x="161" y="1075"/>
      <point x="163" y="1070"/>
      <point x="168" y="1069" type="curve" smooth="yes"/>
      <point x="273" y="1057"/>
      <point x="335" y="983"/>
      <point x="335" y="939" type="curve" smooth="yes"/>
      <point x="335" y="495" type="line"/>
      <point x="205" y="482"/>
      <point x="108" y="384"/>
      <point x="108" y="270" type="curve" smooth="yes"/>
      <point x="108" y="171"/>
      <point x="186" y="31"/>
      <point x="352" y="0" type="curve"/>
      <point x="417" y="0"/>
      <point x="498" y="15"/>
      <point x="523" y="78" type="curve"/>
      <point x="523" y="610" type="line"/>
      <point x="1015" y="610" type="line"/>
      <point x="1015" y="495" type="line"/>
      <point x="885" y="482"/>
      <point x="788" y="384"/>
      <point x="788" y="270" type="curve" smooth="yes"/>
      <point x="788" y="171"/>
      <point x="866" y="31"/>
      <point x="1032" y="0" type="curve"/>
      <point x="1097" y="0"/>
      <point x="1178" y="15"/>
      <point x="1203" y="78" type="curve"/>
      <point x="1203" y="914" type="line"/>
    </contour>
    <contour>
      <point x="910" y="270" type="curve" smooth="yes"/>
      <point x="910" y="323"/>
      <point x="949" y="389"/>
      <point x="1015" y="408" type="curve"/>
      <point x="1015" y="137" type="line"/>
      <point x="964" y="159"/>
      <point x="910" y="199"/>
    </contour>
    <contour>
      <point x="230" y="270" type="curve" smooth="yes"/>
      <point x="230" y="323"/>
      <point x="269" y="389"/>
      <point x="335" y="408" type="curve"/>
      <point x="335" y="137" type="line"/>
      <point x="284" y="159"/>
      <point x="230" y="199"/>
    </contour>
    <contour>
      <point x="1203" y="773" type="line"/>
      <point x="1203" y="950" type="line" smooth="yes"/>
      <point x="1203" y="1015"/>
      <point x="1064" y="1114"/>
      <point x="944" y="1154" type="curve" smooth="yes"/>
      <point x="942" y="1155"/>
      <point x="940" y="1156"/>
      <point x="940" y="1158" type="curve"/>
      <point x="940" y="1159"/>
      <point x="940" y="1159"/>
      <point x="941" y="1160" type="curve"/>
      <point x="1000" y="1209"/>
      <point x="1251" y="1236"/>
      <point x="1347" y="1236" type="curve" smooth="yes"/>
      <point x="1416" y="1236"/>
      <point x="1633" y="1121"/>
      <point x="1704" y="1075" type="curve" smooth="yes"/>
      <point x="1721" y="1064"/>
      <point x="1743" y="1045"/>
      <point x="1743" y="1020" type="curve" smooth="yes"/>
      <point x="1743" y="0" type="line"/>
      <point x="1931" y="0" type="line"/>
      <point x="1931" y="1083" type="line" smooth="yes"/>
      <point x="1931" y="1144"/>
      <point x="1899" y="1189"/>
      <point x="1834" y="1232" type="curve" smooth="yes"/>
      <point x="1776" y="1270"/>
      <point x="1475" y="1440"/>
      <point x="1403" y="1440" type="curve" smooth="yes"/>
      <point x="1294" y="1440"/>
      <point x="1071" y="1397"/>
      <point x="979" y="1302" type="curve" smooth="yes"/>
      <point x="910" y="1231"/>
      <point x="861" y="1165"/>
      <point x="841" y="1081" type="curve"/>
      <point x="841" y="1079" type="line"/>
      <point x="841" y="1075"/>
      <point x="843" y="1070"/>
      <point x="848" y="1069" type="curve" smooth="yes"/>
      <point x="953" y="1057"/>
      <point x="1015" y="983"/>
      <point x="1015" y="939" type="curve" smooth="yes"/>
      <point x="1015" y="784" type="line"/>
    </contour>
  </outline>
</glyph>
<glyph name="uni17BF.rightpart2" format="2">
  <advance width="728"/>
  <anchor x="483" y="-1236" name="L"/>
  <anchor x="483" y="2490" name="U"/>
  <outline>
    <contour>
      <point x="295" y="900" type="line"/>
      <point x="295" y="-1039" type="line" smooth="yes"/>
      <point x="295" y="-1088"/>
      <point x="127" y="-1124"/>
      <point x="25" y="-1124" type="curve" smooth="yes"/>
      <point x="-77" y="-1124"/>
      <point x="-245" y="-1088"/>
      <point x="-245" y="-1039" type="curve" smooth="yes"/>
      <point x="-245" y="-860" type="line"/>
      <point x="-433" y="-860" type="line"/>
      <point x="-433" y="-1049" type="line" smooth="yes"/>
      <point x="-433" y="-1151"/>
      <point x="-171" y="-1236"/>
      <point x="25" y="-1236" type="curve" smooth="yes"/>
      <point x="221" y="-1236"/>
      <point x="483" y="-1151"/>
      <point x="483" y="-1049" type="curve" smooth="yes"/>
      <point x="483" y="906" type="line"/>
    </contour>
    <contour>
      <point x="-234" y="1899" type="curve" smooth="yes"/>
      <point x="-90" y="1899"/>
      <point x="36" y="1871"/>
      <point x="138" y="1846" type="curve" smooth="yes"/>
      <point x="213" y="1827"/>
      <point x="272" y="1810"/>
      <point x="328" y="1810" type="curve" smooth="yes"/>
      <point x="358" y="1810"/>
      <point x="379" y="1822"/>
      <point x="402" y="1844" type="curve" smooth="yes"/>
      <point x="493" y="1933"/>
      <point x="568" y="2070"/>
      <point x="568" y="2216" type="curve" smooth="yes"/>
      <point x="568" y="2313"/>
      <point x="517" y="2406"/>
      <point x="425" y="2406" type="curve" smooth="yes"/>
      <point x="372" y="2406"/>
      <point x="342" y="2366"/>
      <point x="342" y="2316" type="curve" smooth="yes"/>
      <point x="342" y="2291"/>
      <point x="352" y="2272"/>
      <point x="370" y="2247" type="curve" smooth="yes"/>
      <point x="387" y="2224"/>
      <point x="396" y="2202"/>
      <point x="396" y="2170" type="curve" smooth="yes"/>
      <point x="396" y="2116"/>
      <point x="381" y="2059"/>
      <point x="353" y="1997" type="curve"/>
      <point x="319" y="2038"/>
      <point x="278" y="2077"/>
      <point x="233" y="2112" type="curve"/>
      <point x="257" y="2170"/>
      <point x="272" y="2235"/>
      <point x="272" y="2300" type="curve" smooth="yes"/>
      <point x="272" y="2397"/>
      <point x="222" y="2490"/>
      <point x="129" y="2490" type="curve" smooth="yes"/>
      <point x="76" y="2490"/>
      <point x="47" y="2449"/>
      <point x="47" y="2400" type="curve" smooth="yes"/>
      <point x="47" y="2374"/>
      <point x="56" y="2356"/>
      <point x="74" y="2331" type="curve" smooth="yes"/>
      <point x="92" y="2307"/>
      <point x="100" y="2286"/>
      <point x="100" y="2253" type="curve" smooth="yes"/>
      <point x="100" y="2236"/>
      <point x="99" y="2218"/>
      <point x="96" y="2200" type="curve"/>
      <point x="-4" y="2251"/>
      <point x="-111" y="2283"/>
      <point x="-204" y="2283" type="curve" smooth="yes"/>
      <point x="-409" y="2283"/>
      <point x="-598" y="2157"/>
      <point x="-598" y="2025" type="curve" smooth="yes"/>
      <point x="-598" y="1939"/>
      <point x="-537" y="1886"/>
      <point x="-447" y="1886" type="curve" smooth="yes"/>
      <point x="-385" y="1886"/>
      <point x="-294" y="1899"/>
    </contour>
    <contour>
      <point x="-215" y="2029" type="curve" smooth="yes"/>
      <point x="-277" y="2029"/>
      <point x="-303" y="2020"/>
      <point x="-361" y="2020" type="curve" smooth="yes"/>
      <point x="-386" y="2020"/>
      <point x="-401" y="2035"/>
      <point x="-401" y="2049" type="curve" smooth="yes"/>
      <point x="-401" y="2107"/>
      <point x="-293" y="2153"/>
      <point x="-204" y="2153" type="curve" smooth="yes"/>
      <point x="-72" y="2153"/>
      <point x="107" y="2048"/>
      <point x="175" y="1970" type="curve"/>
      <point x="114" y="1990"/>
      <point x="-62" y="2029"/>
    </contour>
    <contour>
      <point x="483" y="692" type="line"/>
      <point x="483" y="950" type="line" smooth="yes"/>
      <point x="483" y="1015"/>
      <point x="344" y="1114"/>
      <point x="224" y="1154" type="curve" smooth="yes"/>
      <point x="222" y="1155"/>
      <point x="221" y="1156"/>
      <point x="221" y="1158" type="curve"/>
      <point x="221" y="1160" type="line"/>
      <point x="226" y="1183"/>
      <point x="241" y="1215"/>
      <point x="259" y="1227" type="curve" smooth="yes"/>
      <point x="267" y="1233"/>
      <point x="277" y="1236"/>
      <point x="287" y="1236" type="curve" smooth="yes"/>
      <point x="356" y="1236"/>
      <point x="389" y="1165"/>
      <point x="474" y="1165" type="curve" smooth="yes"/>
      <point x="572" y="1165"/>
      <point x="656" y="1257"/>
      <point x="656" y="1453" type="curve" smooth="yes"/>
      <point x="656" y="1610"/>
      <point x="558" y="1793"/>
      <point x="358" y="1793" type="curve" smooth="yes"/>
      <point x="290" y="1793"/>
      <point x="251" y="1763"/>
      <point x="251" y="1713" type="curve" smooth="yes"/>
      <point x="251" y="1650"/>
      <point x="295" y="1616"/>
      <point x="381" y="1589" type="curve" smooth="yes"/>
      <point x="475" y="1560"/>
      <point x="567" y="1488"/>
      <point x="567" y="1390" type="curve" smooth="yes"/>
      <point x="567" y="1354"/>
      <point x="562" y="1334"/>
      <point x="545" y="1334" type="curve" smooth="yes"/>
      <point x="490" y="1334"/>
      <point x="405" y="1440"/>
      <point x="333" y="1440" type="curve" smooth="yes"/>
      <point x="249" y="1440"/>
      <point x="146" y="1185"/>
      <point x="121" y="1081" type="curve"/>
      <point x="121" y="1079" type="line"/>
      <point x="121" y="1075"/>
      <point x="123" y="1070"/>
      <point x="128" y="1069" type="curve" smooth="yes"/>
      <point x="233" y="1057"/>
      <point x="295" y="983"/>
      <point x="295" y="939" type="curve" smooth="yes"/>
      <point x="295" y="704" type="line"/>
    </contour>
  </outline>
</glyph>
<glyph name="uni17C0.rightpart1" format="2">
  <advance width="728"/>
  <anchor x="483" y="-598" name="L"/>
  <anchor x="483" y="1793" name="U"/>
  <outline>
    <contour>
      <point x="295" y="905" type="line"/>
      <point x="295" y="-401" type="line" smooth="yes"/>
      <point x="295" y="-450"/>
      <point x="127" y="-486"/>
      <point x="25" y="-486" type="curve" smooth="yes"/>
      <point x="-77" y="-486"/>
      <point x="-245" y="-450"/>
      <point x="-245" y="-401" type="curve" smooth="yes"/>
      <point x="-245" y="-150" type="line"/>
      <point x="-433" y="-150" type="line"/>
      <point x="-433" y="-411" type="line" smooth="yes"/>
      <point x="-433" y="-513"/>
      <point x="-171" y="-598"/>
      <point x="25" y="-598" type="curve" smooth="yes"/>
      <point x="221" y="-598"/>
      <point x="483" y="-513"/>
      <point x="483" y="-411" type="curve" smooth="yes"/>
      <point x="483" y="908" type="line"/>
    </contour>
    <contour>
      <point x="483" y="692" type="line"/>
      <point x="483" y="950" type="line" smooth="yes"/>
      <point x="483" y="1015"/>
      <point x="344" y="1114"/>
      <point x="224" y="1154" type="curve" smooth="yes"/>
      <point x="222" y="1155"/>
      <point x="221" y="1156"/>
      <point x="221" y="1158" type="curve"/>
      <point x="221" y="1160" type="line"/>
      <point x="226" y="1183"/>
      <point x="241" y="1215"/>
      <point x="259" y="1227" type="curve" smooth="yes"/>
      <point x="267" y="1233"/>
      <point x="277" y="1236"/>
      <point x="287" y="1236" type="curve" smooth="yes"/>
      <point x="356" y="1236"/>
      <point x="389" y="1165"/>
      <point x="474" y="1165" type="curve" smooth="yes"/>
      <point x="572" y="1165"/>
      <point x="656" y="1257"/>
      <point x="656" y="1453" type="curve" smooth="yes"/>
      <point x="656" y="1610"/>
      <point x="558" y="1793"/>
      <point x="358" y="1793" type="curve" smooth="yes"/>
      <point x="290" y="1793"/>
      <point x="251" y="1763"/>
      <point x="251" y="1713" type="curve" smooth="yes"/>
      <point x="251" y="1650"/>
      <point x="295" y="1616"/>
      <point x="381" y="1589" type="curve" smooth="yes"/>
      <point x="475" y="1560"/>
      <point x="567" y="1488"/>
      <point x="567" y="1390" type="curve" smooth="yes"/>
      <point x="567" y="1354"/>
      <point x="562" y="1334"/>
      <point x="545" y="1334" type="curve" smooth="yes"/>
      <point x="490" y="1334"/>
      <point x="405" y="1440"/>
      <point x="333" y="1440" type="curve" smooth="yes"/>
      <point x="249" y="1440"/>
      <point x="146" y="1185"/>
      <point x="121" y="1081" type="curve"/>
      <point x="121" y="1079" type="line"/>
      <point x="121" y="1075"/>
      <point x="123" y="1070"/>
      <point x="128" y="1069" type="curve" smooth="yes"/>
      <point x="233" y="1057"/>
      <point x="295" y="983"/>
      <point x="295" y="939" type="curve" smooth="yes"/>
      <point x="295" y="704" type="line"/>
    </contour>
  </outline>
</glyph>
<glyph name="uni17C5.rightpart" format="2">
  <advance width="728"/>
  <outline>
    <contour>
      <point x="-191" y="1236" type="curve" smooth="yes"/>
      <point x="-122" y="1236"/>
      <point x="185" y="1081"/>
      <point x="256" y="1035" type="curve" smooth="yes"/>
      <point x="273" y="1024"/>
      <point x="295" y="1005"/>
      <point x="295" y="980" type="curve" smooth="yes"/>
      <point x="295" y="0" type="line"/>
      <point x="483" y="0" type="line"/>
      <point x="483" y="1043" type="line" smooth="yes"/>
      <point x="483" y="1102"/>
      <point x="453" y="1146"/>
      <point x="392" y="1188" type="curve"/>
      <point x="448" y="1266"/>
      <point x="483" y="1329"/>
      <point x="483" y="1410" type="curve" smooth="yes"/>
      <point x="483" y="1788" type="line" smooth="yes"/>
      <point x="483" y="1858"/>
      <point x="395" y="1922"/>
      <point x="312" y="1922" type="curve" smooth="yes"/>
      <point x="241" y="1922"/>
      <point x="211" y="1908"/>
      <point x="184" y="1893" type="curve"/>
      <point x="259" y="1893"/>
      <point x="295" y="1825"/>
      <point x="295" y="1792" type="curve" smooth="yes"/>
      <point x="295" y="1410" type="line" smooth="yes"/>
      <point x="295" y="1356"/>
      <point x="275" y="1313"/>
      <point x="245" y="1271" type="curve"/>
      <point x="107" y="1345"/>
      <point x="-86" y="1440"/>
      <point x="-135" y="1440" type="curve" smooth="yes"/>
      <point x="-247" y="1440"/>
      <point x="-286" y="1295"/>
      <point x="-296" y="1208" type="curve"/>
      <point x="-261" y="1232"/>
      <point x="-220" y="1236"/>
    </contour>
  </outline>
</glyph>
<glyph name="uni17CA.lower" format="2">
  <anchor x="-245" y="1772" name="U"/>
  <anchor x="-245" y="1440" name="_U"/>
  <anchor x="-720" y="1772" name="um"/>
  <outline>
    <contour>
      <point x="-752" y="1496" type="curve" smooth="yes"/>
      <point x="-715" y="1496"/>
      <point x="-684" y="1520"/>
      <point x="-665" y="1544" type="curve" smooth="yes"/>
      <point x="-641" y="1573"/>
      <point x="-612" y="1598"/>
      <point x="-581" y="1598" type="curve" smooth="yes"/>
      <point x="-512" y="1598"/>
      <point x="-339" y="1496"/>
      <point x="-254" y="1496" type="curve" smooth="yes"/>
      <point x="-173" y="1496"/>
      <point x="-144" y="1601"/>
      <point x="-113" y="1687" type="curve"/>
      <point x="-136" y="1677"/>
      <point x="-160" y="1675"/>
      <point x="-183" y="1675" type="curve" smooth="yes"/>
      <point x="-248" y="1675"/>
      <point x="-471" y="1802"/>
      <point x="-543" y="1802" type="curve" smooth="yes"/>
      <point x="-567" y="1802"/>
      <point x="-596" y="1785"/>
      <point x="-626" y="1759" type="curve" smooth="yes"/>
      <point x="-654" y="1734"/>
      <point x="-677" y="1713"/>
      <point x="-705" y="1680" type="curve"/>
      <point x="-784" y="1705"/>
      <point x="-969" y="1802"/>
      <point x="-1033" y="1802" type="curve" smooth="yes"/>
      <point x="-1117" y="1802"/>
      <point x="-1302" y="1606"/>
      <point x="-1333" y="1534" type="curve" smooth="yes"/>
      <point x="-1336" y="1527"/>
      <point x="-1336" y="1519"/>
      <point x="-1336" y="1513" type="curve" smooth="yes"/>
      <point x="-1336" y="1482"/>
      <point x="-1288" y="1464"/>
      <point x="-1215" y="1442" type="curve"/>
      <point x="-1054" y="1486" type="line"/>
      <point x="-1137" y="1502"/>
      <point x="-1176" y="1519"/>
      <point x="-1176" y="1541" type="curve" smooth="yes"/>
      <point x="-1176" y="1552"/>
      <point x="-1151" y="1573"/>
      <point x="-1122" y="1589" type="curve" smooth="yes"/>
      <point x="-1113" y="1594"/>
      <point x="-1104" y="1598"/>
      <point x="-1094" y="1598" type="curve" smooth="yes"/>
      <point x="-1025" y="1598"/>
      <point x="-837" y="1496"/>
    </contour>
  </outline>
</glyph>
<glyph name="uni17CA.ms.narrowhigh" format="2">
  <outline>
    <contour>
      <point x="-471" y="1846" type="curve" smooth="yes"/>
      <point x="-434" y="1846"/>
      <point x="-403" y="1870"/>
      <point x="-384" y="1894" type="curve" smooth="yes"/>
      <point x="-360" y="1923"/>
      <point x="-331" y="1948"/>
      <point x="-300" y="1948" type="curve" smooth="yes"/>
      <point x="-251" y="1948"/>
      <point x="-198" y="1846"/>
      <point x="-133" y="1846" type="curve" smooth="yes"/>
      <point x="-52" y="1846"/>
      <point x="-23" y="1941"/>
      <point x="8" y="2027" type="curve"/>
      <point x="-15" y="2017"/>
      <point x="-39" y="2015"/>
      <point x="-62" y="2015" type="curve" smooth="yes"/>
      <point x="-117" y="2015"/>
      <point x="-200" y="2142"/>
      <point x="-262" y="2142" type="curve" smooth="yes"/>
      <point x="-286" y="2142"/>
      <point x="-315" y="2125"/>
      <point x="-345" y="2099" type="curve" smooth="yes"/>
      <point x="-373" y="2074"/>
      <point x="-396" y="2053"/>
      <point x="-424" y="2020" type="curve"/>
      <point x="-483" y="2075"/>
      <point x="-558" y="2142"/>
      <point x="-612" y="2142" type="curve" smooth="yes"/>
      <point x="-696" y="2142"/>
      <point x="-791" y="1996"/>
      <point x="-822" y="1924" type="curve" smooth="yes"/>
      <point x="-825" y="1917"/>
      <point x="-825" y="1909"/>
      <point x="-825" y="1903" type="curve" smooth="yes"/>
      <point x="-825" y="1882"/>
      <point x="-814" y="1854"/>
      <point x="-781" y="1842" type="curve"/>
      <point x="-660" y="1866" type="line"/>
      <point x="-690" y="1866"/>
      <point x="-701" y="1885"/>
      <point x="-701" y="1909" type="curve" smooth="yes"/>
      <point x="-701" y="1929"/>
      <point x="-689" y="1948"/>
      <point x="-673" y="1948" type="curve" smooth="yes"/>
      <point x="-624" y="1948"/>
      <point x="-536" y="1846"/>
    </contour>
  </outline>
</glyph>
<glyph name="uni17D21783.low.alt" format="2">
  <advance width="728"/>
  <anchor x="483" y="-1225" name="L"/>
  <anchor x="483" y="1440" name="U"/>
  <anchor x="389" y="1440" name="um"/>
  <outline>
    <contour>
      <point x="295" y="874" type="line"/>
      <point x="295" y="-1030" type="line" smooth="yes"/>
      <point x="295" y="-1078"/>
      <point x="224" y="-1113"/>
      <point x="123" y="-1113" type="curve" smooth="yes"/>
      <point x="22" y="-1113"/>
      <point x="-49" y="-1078"/>
      <point x="-49" y="-1030" type="curve" smooth="yes"/>
      <point x="-49" y="-790" type="line"/>
      <point x="-217" y="-790" type="line"/>
      <point x="-217" y="-1030" type="line" smooth="yes"/>
      <point x="-217" y="-1078"/>
      <point x="-288" y="-1113"/>
      <point x="-389" y="-1113" type="curve" smooth="yes"/>
      <point x="-490" y="-1113"/>
      <point x="-561" y="-1078"/>
      <point x="-561" y="-1030" type="curve" smooth="yes"/>
      <point x="-561" y="-869" type="line"/>
      <point x="-573" y="-808"/>
      <point x="-646" y="-790"/>
      <point x="-714" y="-790" type="curve"/>
      <point x="-796" y="-808"/>
      <point x="-860" y="-830"/>
      <point x="-860" y="-906" type="curve" smooth="yes"/>
      <point x="-860" y="-947"/>
      <point x="-821" y="-1012"/>
      <point x="-729" y="-1015" type="curve"/>
      <point x="-729" y="-1038" type="line" smooth="yes"/>
      <point x="-729" y="-1138"/>
      <point x="-585" y="-1225"/>
      <point x="-389" y="-1225" type="curve" smooth="yes"/>
      <point x="-280" y="-1225"/>
      <point x="-193" y="-1199"/>
      <point x="-133" y="-1153" type="curve"/>
      <point x="-50" y="-1199"/>
      <point x="10" y="-1225"/>
      <point x="123" y="-1225" type="curve" smooth="yes"/>
      <point x="319" y="-1225"/>
      <point x="483" y="-1138"/>
      <point x="483" y="-1038" type="curve" smooth="yes"/>
      <point x="483" y="874" type="line"/>
    </contour>
    <contour>
      <point x="-760" y="-908" type="curve" smooth="yes"/>
      <point x="-760" y="-891"/>
      <point x="-746" y="-883"/>
      <point x="-724" y="-876" type="curve"/>
      <point x="-724" y="-936" type="line"/>
      <point x="-750" y="-933"/>
      <point x="-760" y="-921"/>
    </contour>
    <contour>
      <point x="483" y="688" type="line"/>
      <point x="483" y="950" type="line" smooth="yes"/>
      <point x="483" y="1015"/>
      <point x="344" y="1114"/>
      <point x="224" y="1154" type="curve" smooth="yes"/>
      <point x="222" y="1155"/>
      <point x="221" y="1156"/>
      <point x="221" y="1158" type="curve"/>
      <point x="221" y="1160" type="line"/>
      <point x="226" y="1183"/>
      <point x="241" y="1215"/>
      <point x="259" y="1227" type="curve" smooth="yes"/>
      <point x="267" y="1233"/>
      <point x="277" y="1236"/>
      <point x="287" y="1236" type="curve" smooth="yes"/>
      <point x="356" y="1236"/>
      <point x="389" y="1165"/>
      <point x="474" y="1165" type="curve" smooth="yes"/>
      <point x="565" y="1165"/>
      <point x="584" y="1260"/>
      <point x="615" y="1346" type="curve"/>
      <point x="592" y="1336"/>
      <point x="568" y="1334"/>
      <point x="545" y="1334" type="curve" smooth="yes"/>
      <point x="490" y="1334"/>
      <point x="405" y="1440"/>
      <point x="333" y="1440" type="curve" smooth="yes"/>
      <point x="249" y="1440"/>
      <point x="146" y="1185"/>
      <point x="121" y="1081" type="curve"/>
      <point x="121" y="1079" type="line"/>
      <point x="121" y="1075"/>
      <point x="123" y="1070"/>
      <point x="128" y="1069" type="curve" smooth="yes"/>
      <point x="233" y="1057"/>
      <point x="295" y="983"/>
      <point x="295" y="939" type="curve" smooth="yes"/>
      <point x="295" y="688" type="line"/>
    </contour>
  </outline>
</glyph>
